<svg xmlns="http://www.w3.org/2000/svg" viewBox="0 0 22 16.384">
    <defs>
        <style>.a{fill:#80ccff;}</style>
    </defs>
    <path class="a"
          d="M22,8.445h0a.868.868,0,0,0-.116-.579h0a2.531,2.531,0,0,0-.347-.579L14.821.571a1.679,1.679,0,0,0-2.432,0A1.592,1.592,0,0,0,12.274,3l3.821,3.821H1.737A1.611,1.611,0,0,0,0,8.445a1.781,1.781,0,0,0,1.737,1.737H16.095l-3.358,3.358a1.679,1.679,0,0,0,0,2.432,1.741,1.741,0,0,0,1.274.463,1.741,1.741,0,0,0,1.274-.463L21.653,9.6A.985.985,0,0,0,22,9.024h0Z"
          transform="translate(0 -0.05)"/>
</svg>