<svg id="Ground" xmlns="http://www.w3.org/2000/svg" viewBox="0 0 53 57"><defs><style>.cls-1{fill:#fff;}</style></defs><g id="fVugOJ.tif"><path class="cls-1" d="M25.72,4.26q0,6.11,0,12.2a1.22,1.22,0,0,1-.31.76q-5.92,6-11.87,11.88c-.14.13-.31.24-.46.36l0,.21a3.27,3.27,0,0,1,.5.32L25.36,41.82a1.1,1.1,0,0,1,.37.85c0,3.86,0,7.71,0,11.56v.44L.42,29.37a1.78,1.78,0,0,0,.44-.26L25.27,4.71a5.37,5.37,0,0,0,.35-.45Z"/><path class="cls-1" d="M51,54.83C42.59,46.41,34.17,38,25.6,29.43a2.75,2.75,0,0,0,.54-.32Q38.35,16.92,50.55,4.71a5.37,5.37,0,0,0,.35-.45,2,2,0,0,1,.1.4V17a3.8,3.8,0,0,0-.38.29l-11.9,11.9a3.81,3.81,0,0,0-.33.36l.19.21L50.73,41.91a1.81,1.81,0,0,0,.27.18Z"/></g></svg>