<svg id="Ground" xmlns="http://www.w3.org/2000/svg" viewBox="0 0 53 57"><defs><style>.cls-1{fill:#fff;}</style></defs><g id="fVugOJ.tif"><path class="cls-1" d="M25.7,54.83c0-4.07,0-8.13,0-12.2a1.19,1.19,0,0,1,.32-.76Q32,35.92,37.9,30a4.32,4.32,0,0,1,.46-.36l0-.21a3.56,3.56,0,0,1-.5-.32L26.06,17.27a1.11,1.11,0,0,1-.37-.86c0-3.85,0-7.7,0-11.55V4.42L51,29.72a1.78,1.78,0,0,0-.44.26Q38.35,42.18,26.15,54.38a5.37,5.37,0,0,0-.35.45Z"/><path class="cls-1" d="M.42,4.26c8.41,8.42,16.82,16.83,25.4,25.4a2.48,2.48,0,0,0-.54.32Q13.07,42.18.87,54.38a3.87,3.87,0,0,0-.35.45,1.56,1.56,0,0,1-.1-.4V42.09c.12-.1.27-.18.38-.29q6-5.94,11.9-11.9c.11-.11.21-.23.33-.36a2.2,2.2,0,0,0-.19-.21L.69,17.18A1.81,1.81,0,0,0,.42,17Z"/></g></svg>