<svg xmlns="http://www.w3.org/2000/svg" viewBox="0 0 480 398">
  <defs>
    <style>
      .cls-1 {
        fill: #666;
      }

      .cls-2 {
        fill: #fff;
      }

      .cls-3 {
        fill: #4d4d4d;
      }

      .cls-4 {
        fill: #f2f2f2;
      }

      .cls-5 {
        fill: #5ac7f2;
      }

      .cls-6 {
        fill: #52c0e2;
      }

      .cls-7 {
        fill: none;
      }

      .cls-8 {
        fill: #333;
      }

      .cls-9 {
        fill: #49b9db;
      }

      .cls-10 {
        fill: #f77781;
      }

      .cls-11 {
        fill: #43b6d1;
      }

      .cls-12 {
        fill: #40b3c6;
      }

      .cls-13 {
        fill: #40a8b2;
      }

      .cls-14 {
        fill: #4abadd;
      }

      .cls-15 {
        opacity: 0.65;
      }

      .cls-16 {
        fill: #61d0f2;
      }

      .cls-17 {
        fill: #fbb03b;
      }

      .cls-18 {
        fill: #7ac943;
      }
    </style>
  </defs>
  <title>cross</title>
  <g id="isometric">
    <g>
      <polygon class="cls-1" points="0.12 319.8 141.63 399.56 141.63 397.51 0.12 318.38 0.12 319.8"/>
      <polygon class="cls-2" points="141.63 397.51 0.21 318.38 262.49 167.64 403.91 246.63 141.63 397.51"/>
      <polygon class="cls-3" points="141.63 397.51 404 246.63 404 248.69 141.63 399.56 141.63 397.51"/>
    </g>
    <polygon class="cls-4" points="336.91 250.24 389 226 356 207 343 209 336.91 250.24"/>
    <polygon class="cls-4" points="272 286 317.11 262 289.37 243.18 272 286"/>
    <polyline class="cls-4" points="177 350 247 324 134 262 103 267"/>
    <g>
      <g>
        <polygon class="cls-3" points="72.02 289.52 177.05 350.45 177.05 344.38 72.02 283.98 72.02 289.52"/>
        <polygon class="cls-2" points="177.05 344.38 72.09 283.98 103.03 266.62 207.99 326.91 177.05 344.38"/>
        <polygon class="cls-3" points="177.05 344.38 208.06 326.91 208.06 332.97 177.05 350.45 177.05 344.38"/>
      </g>
      <g>
        <polygon class="cls-5" points="125.45 294.12 149.03 308.57 149.03 285.61 125.45 271.2 125.45 294.12"/>
        <polygon class="cls-3" points="149.03 285.61 125.45 271.2 128.89 269.22 152.47 283.62 149.03 285.61"/>
        <polygon class="cls-3" points="149.03 285.61 152.47 283.62 152.47 306.57 149.03 308.57 149.03 285.61"/>
      </g>
      <g>
        <polyline class="cls-5" points="325.52 177.74 325.52 190.98 401.21 235.45 401.21 220.78"/>
        <polygon class="cls-6" points="439.05 200.44 439.05 213.69 401.21 235.45 401.36 221.98 439.05 200.44"/>
        <polygon class="cls-6" points="380.87 194.29 392.54 200.89 399.79 196.66 399.79 183.42 380.87 194.29"/>
        <polygon class="cls-6" points="350.12 176.32 361.6 182.92 373.77 175.85 373.77 162.6 350.12 176.32"/>
        <polygon class="cls-5" points="370.93 151.72 370.93 164.97 447.09 208.96 447.09 195.72 370.93 151.72"/>
        <path class="cls-5" d="M447.09,209,473,194s5.83-3.45,6.77-9.13h0V170.17s1,7.41-12.26,13.87l-20.38,11.67Z"/>
        <g>
          <path class="cls-7" d="M439.16,175.26,450,181.55l3.53-2L451,178C446.43,175.4,442.82,174.57,439.16,175.26Z"/>
          <path class="cls-7" d="M404.91,145a14.51,14.51,0,0,1,3.19-.74A12.19,12.19,0,0,0,404.91,145Z"/>
          <path class="cls-7" d="M402.36,146.19l-.35.2,1.57-.84C403.17,145.74,402.77,146,402.36,146.19Z"/>
          <path class="cls-7" d="M417.57,146.89l-.35-.2a23.42,23.42,0,0,0-2.75-1.37c1.16.59,2.15,1.11,3,1.56Z"/>
          <path class="cls-7" d="M395.77,150l-.08,0,.92.54.09,0Z"/>
          <path class="cls-7" d="M415.84,161.64l-7-4.09h-.15l7.12,4.13Z"/>
          <polygon class="cls-7" points="416.38 161.34 417.93 160.44 417.85 160.4 416.38 161.34"/>
          <path class="cls-7" d="M450,194.89l7.92-4.55a9.32,9.32,0,0,0,3.25-2.67l-11.87,6.81Z"/>
          <path class="cls-5" d="M418.53,147.45l-1-.56h-.09Z"/>
          <path class="cls-5" d="M396.7,150.51l-.09,0,12.05,7h.15Z"/>
          <polygon class="cls-8" points="404.33 207.74 392.54 200.89 380.99 207.52 403.63 220.68 435.45 202.42 424.59 196.11 404.33 207.74"/>
          <polygon class="cls-8" points="370.13 201.22 381.69 194.59 380.99 194.18 399.98 183.28 389.12 176.98 370.13 187.87 361.6 182.92 350.04 189.55 370.13 201.22"/>
          <polygon class="cls-8" points="350.04 176.21 373.94 162.49 363.08 156.19 325.35 177.84 336.91 184.55 350.74 176.61 350.04 176.21"/>
          <polygon class="cls-8" points="392.54 200.89 381.69 194.59 370.13 201.22 350.04 189.55 361.6 182.92 350.74 176.61 336.91 184.55 401.36 221.98 403.63 220.68 380.99 207.52 392.54 200.89"/>
          <polygon class="cls-8" points="428.22 194.03 424.59 196.11 435.45 202.42 439.08 200.34 428.22 194.03"/>
          <path class="cls-9" d="M457.58,168.53l-4.6-2.66-2-1.18c-3.86-2.25-7.05-3.18-10.17-3a18.43,18.43,0,0,0-8,2.74L426.63,168l12.53,7.27c3.66-.69,7.27.14,11.79,2.77l2.56,1.49L457.9,177C462.55,174.33,463.22,171.81,457.58,168.53Z"/>
          <path class="cls-8" d="M424.86,165.25V169A2.89,2.89,0,0,0,424.86,165.25Z"/>
          <path class="cls-8" d="M451,164.69l2,1.18A34.2,34.2,0,0,1,464.6,170v-8.82H440.69a5.34,5.34,0,0,1,.09.53C443.9,161.51,447.09,162.44,451,164.69Z"/>
          <path class="cls-8" d="M457.58,181.88l-4.07-2.36-3.53,2-10.82-6.29a20.56,20.56,0,0,0-6.36,2.53l-6.16,3.54,1.14.67h30Z"/>
          <path class="cls-8" d="M471.74,160.79,465.22,157c-8-4.67-16.57-6.29-26.16-3.29l-.22-.13c4-4.79,1.87-9.22-5.95-13.76l-3-1.77c-11.72-6.81-23.64-6.61-38,1.61l-20.87,12,11.56,6.71L447,195.79l2.28-1.31,11.87-6.81,7.61-4.36a35.62,35.62,0,0,0,7.76-5.72C482.27,171.67,480.63,166,471.74,160.79ZM424.86,169v-3.74A2.89,2.89,0,0,1,424.86,169Zm-.24-12.92-.25.16a14.1,14.1,0,0,1-3.19,2.35l-3.25,1.86-1.55.89-.51.33,0,0-.06,0-7.12-4.13-12.05-7-.92-.54.08,0-.24-.14,6.48-3.44.35-.2c.41-.24.81-.45,1.22-.64l.12-.06a9,9,0,0,1,1.21-.5,12.19,12.19,0,0,1,3.19-.74,11.12,11.12,0,0,1,6.31,1l.06,0a23.42,23.42,0,0,1,2.75,1.37l.35.2,1,.56c2.22,1.22,3.15,1.83,3.15,1.83S428.16,152.38,424.62,156.07Zm40,13.93A34.2,34.2,0,0,0,453,165.87l4.6,2.66c5.64,3.28,5,5.8.32,8.47l-4.39,2.52,4.07,2.36.19.12h-30l-1.14-.67,6.16-3.54a20.56,20.56,0,0,1,6.36-2.53L426.63,168l6.17-3.54a18.43,18.43,0,0,1,8-2.74,5.34,5.34,0,0,0-.09-.53H464.6Z"/>
          <polygon class="cls-10" points="415.87 161.66 416.38 161.34 415.85 161.64 415.87 161.66"/>
          <path class="cls-10" d="M414.47,145.32l-.06,0a11.12,11.12,0,0,0-6.31-1A13.32,13.32,0,0,1,414.47,145.32Z"/>
          <path class="cls-10" d="M403.7,145.49l-.12.06c.44-.21.89-.4,1.33-.56A9,9,0,0,0,403.7,145.49Z"/>
          <path class="cls-9" d="M421.68,149.28s-.93-.61-3.15-1.83l-1-.57c-.86-.45-1.85-1-3-1.56a13.32,13.32,0,0,0-6.37-1.07,14.51,14.51,0,0,0-3.19.74c-.44.16-.89.35-1.33.56l-1.57.84-6.48,3.44.24.14.93.54,12.11,7a15.59,15.59,0,0,1,8.41,2.48l.63.37.08,0,3.25-1.86a14.1,14.1,0,0,0,3.19-2.35l.25-.16C428.16,152.38,421.68,149.28,421.68,149.28Z"/>
        </g>
      </g>
      <polygon class="cls-11" points="226.79 60.55 283.09 94.33 269.58 246.35 268.45 247.47 256.07 110.09 224.12 90.92 226.79 60.55"/>
      <polygon class="cls-11" points="342.77 60.55 286.47 26.77 283.8 57.14 315.75 76.31 318.05 99.54 338.21 116.59 342.77 60.55"/>
      <polygon class="cls-12" points="318.05 99.54 329.26 212.56 330.39 212.56 338.21 116.59 318.05 99.54"/>
      <polyline class="cls-5" points="226.79 60.55 259.45 41.4 315.75 76.31 283.09 94.33"/>
      <polygon class="cls-5" points="312.37 11 368.67 44.78 342.77 60.55 285.35 26.77 312.37 11"/>
      <g>
        <polygon class="cls-5" points="256.07 110.09 199.76 76.31 170.49 93.2 226.79 126.98 256.07 110.09"/>
        <polygon class="cls-11" points="226.79 126.98 170.49 93.2 178 158.76 234.55 191.07 226.79 126.98"/>
        <polygon class="cls-11" points="248.19 303.77 234.55 191.07 178 158.76 190.76 269.99 248.19 303.77"/>
      </g>
      <polygon class="cls-13" points="299.98 145 298.86 147.25 291.67 219.96 290.61 230.65 306.25 202.76 299.98 145"/>
      <polygon class="cls-14" points="306.25 202.76 290.61 230.65 288.72 249.72 313.5 264.36 309.27 230.52 306.25 202.76"/>
      <path class="cls-8" d="M227.09,126.65l28.46-16.44,13.16,136.88.54-.31,14-152.54,32.22-18.6,14,136.41.53-.31L343.09,59.67,368.6,44.94l-19.06,199-36.79,21.24-13.43-119-.54.31L285.36,281l-39.21,22.64Z"/>
      <g>
        <g class="cls-15">
          <polyline class="cls-16" points="124.59 192.14 197.4 149.8 205.49 160.7 132.54 203.09"/>
        </g>
        <g class="cls-15">
          <ellipse class="cls-16" cx="128.3" cy="197.78" rx="3.84" ry="6.79" transform="translate(-93.12 116.84) rotate(-36.95)"/>
        </g>
        <g class="cls-15">
          <ellipse class="cls-16" cx="201.41" cy="155.28" rx="3.84" ry="6.79" transform="translate(-52.89 152.25) rotate(-36.95)"/>
        </g>
      </g>
      <g>
        <g class="cls-15">
          <polygon class="cls-16" points="257.08 114.89 256.06 115.49 257.57 130.21 265.17 125.79 257.08 114.89"/>
        </g>
        <g class="cls-15">
          <ellipse class="cls-16" cx="187.98" cy="162.88" rx="3.84" ry="6.79" transform="translate(-60.15 145.71) rotate(-36.95)"/>
        </g>
        <g class="cls-15">
          <ellipse class="cls-16" cx="261.09" cy="120.37" rx="3.84" ry="6.79" transform="translate(-19.92 181.12) rotate(-36.95)"/>
        </g>
      </g>
      <g>
        <g class="cls-15">
          <polygon class="cls-16" points="320.14 78.86 316.06 81.24 317.54 95.97 328.23 89.76 320.14 78.86"/>
        </g>
        <g class="cls-15">
          <ellipse class="cls-16" cx="324.15" cy="84.34" rx="3.84" ry="6.79" transform="translate(14.4 211.79) rotate(-36.95)"/>
        </g>
      </g>
      <g>
        <polygon class="cls-3" points="197.51 96.76 197.51 100.9 226.79 100.9 226.79 96.53 197.51 96.76"/>
        <g>
          <ellipse class="cls-3" cx="212.15" cy="100.46" rx="14.64" ry="7.94"/>
          <ellipse class="cls-10" cx="212.15" cy="97.2" rx="14.64" ry="7.94"/>
        </g>
      </g>
      <g>
        <polygon class="cls-3" points="254.94 64.11 254.94 68.24 284.22 68.24 284.22 63.88 254.94 64.11"/>
        <g>
          <ellipse class="cls-3" cx="269.58" cy="67.81" rx="14.64" ry="7.94"/>
          <ellipse class="cls-17" cx="269.58" cy="64.55" rx="14.64" ry="7.94"/>
        </g>
      </g>
      <g>
        <polygon class="cls-3" points="312.37 31.45 312.37 35.59 341.65 35.59 341.65 31.22 312.37 31.45"/>
        <g>
          <ellipse class="cls-3" cx="327.01" cy="35.15" rx="14.64" ry="7.94"/>
          <ellipse class="cls-18" cx="327.01" cy="31.89" rx="14.64" ry="7.94"/>
        </g>
      </g>
      <g>
        <path class="cls-2" d="M285.92,87.17l-5.3-3.06c-1.52-.88-1.52-1.93.21-2.93a4.92,4.92,0,0,1,5.06-.12l1.05.6-1.7,1L284.1,82a1.73,1.73,0,0,0-1.81,0c-.54.31-.63.67,0,1l5.51,3.19a1.71,1.71,0,0,0,1.8,0c.54-.31.64-.66,0-1l-1.51-.87,1.69-1,1.39.8c1.53.88,1.52,1.93-.21,2.92A4.9,4.9,0,0,1,285.92,87.17Z"/>
        <path class="cls-2" d="M291.93,83.63l-.56-.33,1.69-1,.68.39a1.77,1.77,0,0,0,1.89,0c.57-.32.67-.68-.06-1.1s-1.7-.57-3.76-.4c-2.64.2-3.93,0-5.06-.63-1.55-.9-1.53-1.95.22-3a4.84,4.84,0,0,1,5.08-.07l.41.23-1.69,1-.51-.29a1.72,1.72,0,0,0-1.87,0c-.57.32-.62.67.05,1.06s1.62.5,3.68.33c2.64-.2,3.9,0,5.13.69,1.6.93,1.56,2-.2,3A4.92,4.92,0,0,1,291.93,83.63Z"/>
        <path class="cls-2" d="M298,80.13l-.57-.32,1.7-1,.67.39a1.75,1.75,0,0,0,1.89,0c.57-.33.68-.68-.06-1.11s-1.7-.56-3.76-.4c-2.64.21-3.93,0-5.06-.63-1.55-.89-1.52-1.95.22-3a4.88,4.88,0,0,1,5.09-.07l.41.24-1.7,1-.5-.3a1.74,1.74,0,0,0-1.87,0c-.57.33-.63.67.05,1.06s1.61.5,3.67.34c2.64-.21,3.9,0,5.13.68,1.61.93,1.57,2-.19,3A4.89,4.89,0,0,1,298,80.13Z"/>
      </g>
      <g>
        <path class="cls-2" d="M347.59,53.75l-1.41-.82a4.89,4.89,0,0,0,.65-.3c.71-.42.76-.79.11-1.16l-7.57-4.37,1.79-1,7.53,4.35c1.62.94,1.55,1.88-.21,2.89A7.45,7.45,0,0,1,347.59,53.75Z"/>
        <path class="cls-2" d="M349.66,49.85l-.56-.33,1.69-1,.68.39a1.77,1.77,0,0,0,1.89,0c.56-.33.67-.68-.06-1.1s-1.7-.57-3.76-.4c-2.64.2-3.93,0-5.06-.63-1.55-.9-1.53-2,.21-3a4.86,4.86,0,0,1,5.09-.07l.41.24-1.69,1-.51-.29a1.74,1.74,0,0,0-1.87-.05c-.57.33-.63.68.05,1.07s1.62.5,3.68.33c2.64-.2,3.9,0,5.12.69,1.61.93,1.57,2-.19,3A4.92,4.92,0,0,1,349.66,49.85Z"/>
      </g>
      <g>
        <path class="cls-2" d="M218.68,118.05l1.63-.94,3.66,2.11,1.74-1-3.65-2.11,1.63-.94,9,5.19-1.63.94L227,119l-1.75,1,4,2.34-1.63.94Z"/>
        <path class="cls-2" d="M227.46,114.47l-1.7,1-1.29-.74,5-2.91,1.28.74-1.7,1,7.7,4.44-1.63.94Z"/>
        <path class="cls-2" d="M230.29,111.35l2.33-1.35,7.47,3.12,0,0-5.4-4.31,2.33-1.34,9,5.18-1.54.89-6.8-3.92h0l5.62,4.61-1.37.79-8-3.24,0,0,6.8,3.92-1.42.82Z"/>
        <path class="cls-2" d="M238.26,106.75l1.63-.94,7.7,4.44,2.68-1.55,1.29.74-4.31,2.49Z"/>
      </g>
      <g>
        <g>
          <polygon class="cls-10" points="90.02 255.1 196.41 315.67 196.41 181.47 90.02 120.95 90.02 255.1"/>
          <polygon class="cls-3" points="196.41 181.47 90.03 120.95 95.19 117.98 201.58 178.49 196.41 181.47"/>
          <polygon class="cls-3" points="196.41 181.47 201.59 178.49 201.59 312.68 196.41 315.67 196.41 181.47"/>
        </g>
        <g>
          <path class="cls-2" d="M113.59,194.75l3.74,2.16,1.73,20,.07,0L121,199l4.24,2.44,1.83,20,.07,0,1.73-18,3.35,1.93-2.51,23.24-4.83-2.79-1.76-17.66-.07,0-1.76,15.62-5.15-3Z"/>
          <path class="cls-2" d="M134.15,206.62l10.58,6.11v3.53l-6.7-3.87v6.52l5.33,3.07v3.53L138,222.44V230l6.7,3.87v3.52l-10.58-6.11Z"/>
          <path class="cls-2" d="M147,214l5.86,3.38c4,2.32,5.74,5.19,5.74,9v1c0,2.54-.77,3.68-2.5,3.39v.07a8.77,8.77,0,0,1,2.89,6.82v2.11c0,3.81-2,4.7-5.89,2.46l-6.1-3.53Zm5.4,13.17c1.44.83,2.32.7,2.32-1.27v-1.37a3.77,3.77,0,0,0-2-3.68l-1.87-1.08v6.52Zm.7,11.51c1.31.75,2,.56,2-1.27v-2.15a4.42,4.42,0,0,0-2.5-4.45l-1.73-1v7.58Z"/>
        </g>
      </g>
      <g>
        <g>
          <polygon class="cls-2" points="181.53 190.13 189.58 195.06 189.58 192.99 181.53 188.07 181.53 190.13"/>
          <polygon class="cls-3" points="189.58 192.99 181.53 188.07 182.7 187.39 190.75 192.31 189.58 192.99"/>
          <polygon class="cls-3" points="189.58 192.99 190.76 192.31 190.76 194.38 189.58 195.06 189.58 192.99"/>
        </g>
        <g>
          <polygon class="cls-2" points="181.53 185.51 189.58 190.45 189.58 188.38 181.53 183.45 181.53 185.51"/>
          <polygon class="cls-3" points="189.58 188.38 181.53 183.45 182.7 182.78 190.75 187.7 189.58 188.38"/>
          <polygon class="cls-3" points="189.58 188.38 190.76 187.7 190.76 189.77 189.58 190.45 189.58 188.38"/>
        </g>
        <g>
          <polygon class="cls-2" points="181.53 180.51 189.58 185.45 189.58 183.38 181.53 178.45 181.53 180.51"/>
          <polygon class="cls-3" points="189.58 183.38 181.53 178.45 182.7 177.78 190.75 182.7 189.58 183.38"/>
          <polygon class="cls-3" points="189.58 183.38 190.76 182.7 190.76 184.77 189.58 185.45 189.58 183.38"/>
        </g>
      </g>
    </g>
  </g>
</svg>
