<svg xmlns="http://www.w3.org/2000/svg" xmlns:xlink="http://www.w3.org/1999/xlink" viewBox="0 0 369 363">
  <defs>
    <style>
      .cls-1 {
        fill: #dd6271;
      }

      .cls-2 {
        fill: #e6e6e6;
      }

      .cls-3 {
        fill: #f7f7f7;
      }

      .cls-4 {
        opacity: 0.7;
      }

      .cls-5 {
        fill: #dee0e0;
      }

      .cls-6 {
        fill: #fff;
      }

      .cls-7 {
        fill: #e8e8e8;
      }

      .cls-8 {
        fill: #f2f2f2;
      }

      .cls-9 {
        fill: #4d4d4d;
      }

      .cls-10 {
        fill: #5ac7f2;
      }

      .cls-11 {
        fill: #e2e0e0;
      }

      .cls-12 {
        fill: #f77781;
      }

      .cls-13 {
        clip-path: url(#clip-path);
      }

      .cls-14 {
        fill: #e56575;
      }

      .cls-15 {
        fill: #666;
      }

      .cls-16 {
        clip-path: url(#clip-path-2);
      }

      .cls-17 {
        clip-path: url(#clip-path-3);
      }

      .cls-18 {
        opacity: 0.65;
      }

      .cls-19 {
        fill: #61d0f2;
      }

      .cls-20 {
        opacity: 0.52;
      }

      .cls-21 {
        fill: #ea7381;
      }

      .cls-22 {
        clip-path: url(#clip-path-4);
      }

      .cls-23 {
        fill: gray;
      }
    </style>
    <clipPath id="clip-path">
      <polygon class="cls-1" points="245.67 128.16 238.9 124.25 247.98 119.11 254.75 123.01 245.67 128.16"/>
    </clipPath>
    <clipPath id="clip-path-2">
      <polygon class="cls-1" points="280.99 148.34 274.22 144.43 283.3 139.29 290.06 143.19 280.99 148.34"/>
    </clipPath>
    <clipPath id="clip-path-3">
      <polygon class="cls-1" points="322.61 171.04 315.85 167.14 324.92 162 331.69 165.9 322.61 171.04"/>
    </clipPath>
    <clipPath id="clip-path-4">
      <polygon class="cls-1" points="86.54 317.85 120.41 298.28 74.97 272.55 41.1 292.08 86.54 317.85"/>
    </clipPath>
  </defs>
  <title>experts</title>
  <g id="isometric">
    <g>
      <polygon class="cls-2" points="28 293 188.09 344.43 158.82 360.57 168 361 216 335 74 245 28 293"/>
      <polygon class="cls-3" points="201 247 160.29 268.71 164 268 246 299 293 302 294.34 301.85 287.9 266.01 201 247"/>
      <g class="cls-4">
        <polygon class="cls-2" points="297 268 287.9 266.01 294.34 301.85 348 296 297 268"/>
      </g>
      <polyline class="cls-5" points="165.74 267.69 201.05 247.51 201.72 242.5 170.78 223.54 165.74 267.69"/>
      <polygon class="cls-6" points="211.15 196.65 177.15 195.83 211.15 215.97 211.15 196.65"/>
      <polygon class="cls-7" points="211.15 171.82 177.09 195.79 177.15 195.83 211.15 196.65 211.15 171.82"/>
      <polygon class="cls-6" points="169.52 31.81 204.84 11.63 255.29 40.64 219.97 60.82 169.52 31.81"/>
      <polygon class="cls-8" points="261 78.79 255.29 40.64 219.97 60.82 225.72 99.18 225.78 99.21 261 78.79"/>
      <polygon class="cls-8" points="225.78 99.21 225.72 99.18 225.73 99.24 225.78 99.21"/>
      <polygon class="cls-9" points="261 78.79 225.78 99.21 267.77 123.94 261 78.79"/>
      <polygon class="cls-10" points="225.78 99.21 225.73 99.24 232.57 144.91 267.82 124.3 267.77 123.94 225.78 99.21"/>
      <polygon class="cls-11" points="267.82 124.3 232.57 144.91 234.12 155.25 286.53 249.22 267.82 124.3"/>
      <polygon class="cls-8" points="234.12 155.25 259.08 321.93 294.39 301.75 286.53 249.22 234.12 155.25"/>
      <polygon class="cls-5" points="177.09 195.79 205.81 179.35 193.49 87.31 192.22 87.31 177.09 195.79"/>
      <g>
        <polygon class="cls-9" points="170.74 32.69 329.08 123.56 329.08 119.49 170.74 28.97 170.74 32.69"/>
        <polygon class="cls-6" points="329.08 119.49 170.79 28.97 204.16 10 362.46 100.45 329.08 119.49"/>
        <polygon class="cls-9" points="329.08 119.49 362.51 100.45 362.51 104.52 329.08 123.56 329.08 119.49"/>
      </g>
      <g>
        <polygon class="cls-12" points="198.26 121.65 198.83 125.75 231.93 144.75 232.06 144.83 232.24 144.93 232.87 145.29 232.26 141.08 198.26 121.65"/>
        <polygon class="cls-9" points="329.08 196.44 235.59 142.99 235.44 142.9 235.32 142.84 232.26 141.08 232.26 141.08 232.87 145.29 329.08 200.51 329.08 196.44"/>
        <polygon class="cls-10" points="362.46 177.4 267.91 123.89 235.34 142.83 329.08 196.44 362.46 177.4"/>
        <polygon class="cls-9" points="329.08 196.44 362.51 177.4 362.51 181.47 329.08 200.51 329.08 196.44"/>
      </g>
      <g>
        <path class="cls-9" d="M209.32,19l5.89,3.33L196,38.88l-4.35-2.46,3.92-3.23-.07,0-4.94-2.8-5.44,2.29-4-2.28ZM198.19,31l9.8-8-.08-.05-13.64,5.84Z"/>
        <path class="cls-9" d="M221.82,26.08l6.41,3.63c4.35,2.46,4.42,4.89.62,7.13l-2.34,1.37c-3.8,2.24-8,2.25-12.36-.21l-2.06-1.17-9.67,5.7-4.35-2.46ZM217.54,36a3.91,3.91,0,0,0,4.38-.11l2.81-1.66c1.7-1,1.49-1.74.1-2.52l-2.05-1.17-7.3,4.3Z"/>
        <path class="cls-9" d="M237.09,34.72l6.41,3.63c4.35,2.46,4.42,4.89.62,7.13l-2.34,1.38c-3.8,2.23-8,2.24-12.36-.22l-2.06-1.16-9.67,5.69-4.35-2.46Zm-4.28,9.92a3.91,3.91,0,0,0,4.38-.11L240,42.88c1.7-1,1.49-1.75.1-2.53l-2-1.17-7.3,4.3Z"/>
        <path class="cls-9" d="M252.36,43.36l11.86,6.72-3.39,2-7.51-4.26L247,51.52l6,3.38-3.39,2-6-3.38-7.29,4.29,7.51,4.26-3.39,2-11.87-6.71Z"/>
        <path class="cls-9" d="M266.72,51.49l11.86,6.72-3.39,2L267.68,56l-6.28,3.7,6,3.38L264,65l-6-3.38-7.29,4.3,7.51,4.25-3.39,2L243,65.47Z"/>
        <path class="cls-9" d="M281.08,59.62l4.35,2.46-20.35,12,7.16,4.05-3.4,2L257.33,73.6Z"/>
        <path class="cls-9" d="M274.93,79.41l4.19,2.37-3.59,2.12-4.2-2.37Z"/>
        <path class="cls-9" d="M302.52,71.75l4.35,2.46-23.75,14-4.35-2.47Z"/>
        <path class="cls-9" d="M291.68,86.54l12.48-7.36c3.8-2.23,8.31-2.19,12.58.23s4.44,5,.64,7.25L304.89,94c-3.8,2.24-8.3,2.2-12.57-.22S287.88,88.77,291.68,86.54Zm8.62,5.15,13-7.63c1.7-1,1.47-1.87.09-2.66a4.3,4.3,0,0,0-4.6.11l-13,7.63c-1.69,1-1.47,1.87-.08,2.65A4.26,4.26,0,0,0,300.3,91.69Z"/>
      </g>
      <g>
        <g>
          <g>
            <polygon class="cls-9" points="242.46 131.38 242.46 132.61 251.19 132.61 251.19 131.31 242.46 131.38"/>
            <g>
              <ellipse class="cls-9" cx="246.82" cy="132.48" rx="4.37" ry="2.37"/>
              <ellipse class="cls-6" cx="246.82" cy="131.51" rx="4.37" ry="2.37"/>
            </g>
          </g>
          <g>
            <polygon class="cls-9" points="246.21 131.76 246.72 132.06 246.68 126.48 246.16 126.19 246.21 131.76"/>
            <polygon class="cls-12" points="246.68 126.48 246.16 126.19 247.66 125.25 248.17 125.54 246.68 126.48"/>
            <polygon class="cls-6" points="246.68 126.48 248.17 125.54 248.21 131.12 246.72 132.06 246.68 126.48"/>
          </g>
          <g>
            <polygon class="cls-12" points="238.9 124.57 245.67 128.51 245.67 128.16 238.9 124.25 238.9 124.57"/>
            <g>
              <polygon class="cls-1" points="245.67 128.16 238.9 124.25 247.98 119.11 254.75 123.01 245.67 128.16"/>
              <g class="cls-13">
                <polygon class="cls-14" points="244.83 127.69 249.62 119.99 248.43 119.04 238.9 124.18 244.83 127.69"/>
              </g>
            </g>
            <polygon class="cls-1" points="245.67 128.16 254.75 123.01 254.75 123.36 245.67 128.51 245.67 128.16"/>
          </g>
        </g>
        <g>
          <g>
            <polygon class="cls-15" points="223.25 132.25 232.35 137.44 232.35 129.72 223.25 124.55 223.25 132.25"/>
            <polygon class="cls-9" points="232.35 129.72 223.25 124.55 225.08 123.5 234.18 128.66 232.35 129.72"/>
            <polygon class="cls-6" points="232.35 129.72 234.18 128.66 234.18 136.38 232.35 137.44 232.35 129.72"/>
          </g>
          <g>
            <polygon class="cls-15" points="248.34 117.91 257.45 123.1 257.45 115.38 248.34 110.21 248.34 117.91"/>
            <polygon class="cls-9" points="257.45 115.38 248.35 110.21 250.17 109.16 259.27 114.32 257.45 115.38"/>
            <polygon class="cls-6" points="257.45 115.38 259.28 114.32 259.28 122.04 257.45 123.1 257.45 115.38"/>
          </g>
          <g>
            <polygon class="cls-9" points="221 126.18 231.2 132.21 231.2 129.55 221 123.85 221 126.18"/>
            <polygon class="cls-6" points="231.2 129.55 221.04 123.85 252.66 105.88 262.81 111.51 231.2 129.55"/>
            <polygon class="cls-9" points="231.2 129.55 262.86 111.51 262.86 114.17 231.2 132.21 231.2 129.55"/>
          </g>
        </g>
        <g>
          <polygon class="cls-1" points="245.6 128.02 245.9 128.19 245.9 117.17 245.6 117 245.6 128.02"/>
          <polygon class="cls-1" points="245.9 117.17 245.6 117 254.05 112.02 254.75 112.07 245.9 117.17"/>
          <polygon class="cls-12" points="245.9 117.17 254.75 112.07 254.75 123.43 245.9 128.19 245.9 117.17"/>
        </g>
        <g>
          <g>
            <polygon class="cls-12" points="240.05 117.87 240.59 118.17 240.59 116.9 240.05 116.61 240.05 117.87"/>
            <polygon class="cls-2" points="240.59 116.9 240.05 116.61 244.49 114.01 245.03 114.3 240.59 116.9"/>
            <polygon class="cls-9" points="240.59 116.9 245.03 114.3 245.03 115.57 240.59 118.17 240.59 116.9"/>
          </g>
          <g>
            <polygon class="cls-9" points="238.04 118.33 238.35 118.51 238.35 107.44 238.04 107.26 238.04 118.33"/>
            <polygon class="cls-9" points="238.35 107.44 238.04 107.26 246.53 102.27 246.83 102.44 238.35 107.44"/>
            <polygon class="cls-10" points="238.35 107.44 246.83 102.44 246.83 113.51 238.35 118.51 238.35 107.44"/>
          </g>
          <g>
            <path class="cls-6" d="M242,110.6v-.13l.53-.53v.14l-.37.36.37,0v.13Z"/>
            <path class="cls-6" d="M243.1,109.29l.16-.09-.48,1.48-.16.09Z"/>
            <path class="cls-6" d="M243.37,109.89l.36-.36-.36,0v-.13l.53-.08v.13l-.53.53Z"/>
          </g>
        </g>
      </g>
      <g>
        <g>
          <g>
            <polygon class="cls-9" points="277.77 151.56 277.77 152.8 286.51 152.8 286.51 151.49 277.77 151.56"/>
            <g>
              <ellipse class="cls-9" cx="282.14" cy="152.67" rx="4.37" ry="2.37"/>
              <ellipse class="cls-6" cx="282.14" cy="151.69" rx="4.37" ry="2.37"/>
            </g>
          </g>
          <g>
            <polygon class="cls-9" points="281.52 151.95 282.04 152.24 281.99 146.66 281.48 146.38 281.52 151.95"/>
            <polygon class="cls-12" points="281.99 146.66 281.48 146.38 282.97 145.44 283.49 145.72 281.99 146.66"/>
            <polygon class="cls-6" points="281.99 146.66 283.49 145.72 283.53 151.3 282.04 152.24 281.99 146.66"/>
          </g>
          <g>
            <polygon class="cls-12" points="274.22 144.75 280.99 148.69 280.99 148.34 274.22 144.43 274.22 144.75"/>
            <g>
              <polygon class="cls-1" points="280.99 148.34 274.22 144.43 283.3 139.29 290.06 143.19 280.99 148.34"/>
              <g class="cls-16">
                <polygon class="cls-14" points="280.15 147.88 284.93 140.17 283.75 139.22 274.22 144.37 280.15 147.88"/>
              </g>
            </g>
            <polygon class="cls-1" points="280.99 148.34 290.07 143.19 290.07 143.55 280.99 148.69 280.99 148.34"/>
          </g>
        </g>
        <g>
          <g>
            <polygon class="cls-15" points="258.57 152.44 267.67 157.62 267.67 149.9 258.57 144.74 258.57 152.44"/>
            <polygon class="cls-9" points="267.67 149.9 258.57 144.74 260.4 143.68 269.5 148.84 267.67 149.9"/>
            <polygon class="cls-6" points="267.67 149.9 269.5 148.84 269.5 156.56 267.67 157.62 267.67 149.9"/>
          </g>
          <g>
            <polygon class="cls-15" points="283.66 138.1 292.76 143.28 292.76 135.56 283.66 130.4 283.66 138.1"/>
            <polygon class="cls-9" points="292.76 135.56 283.67 130.4 285.49 129.34 294.59 134.5 292.76 135.56"/>
            <polygon class="cls-6" points="292.76 135.56 294.59 134.5 294.59 142.22 292.76 143.28 292.76 135.56"/>
          </g>
          <g>
            <polygon class="cls-9" points="256.31 146.36 266.51 152.39 266.51 149.73 256.31 144.03 256.31 146.36"/>
            <polygon class="cls-6" points="266.51 149.73 256.36 144.03 287.98 126.06 298.13 131.69 266.51 149.73"/>
            <polygon class="cls-9" points="266.51 149.73 298.18 131.69 298.18 134.35 266.51 152.39 266.51 149.73"/>
          </g>
        </g>
        <g>
          <polygon class="cls-1" points="280.92 148.2 281.22 148.37 281.22 137.35 280.92 137.18 280.92 148.2"/>
          <polygon class="cls-1" points="281.22 137.35 280.92 137.18 289.37 132.2 290.07 132.25 281.22 137.35"/>
          <polygon class="cls-12" points="281.22 137.35 290.07 132.25 290.07 143.61 281.22 148.37 281.22 137.35"/>
        </g>
        <g>
          <g>
            <polygon class="cls-12" points="275.37 138.06 275.9 138.35 275.9 137.08 275.37 136.79 275.37 138.06"/>
            <polygon class="cls-2" points="275.9 137.08 275.37 136.79 279.81 134.19 280.35 134.48 275.9 137.08"/>
            <polygon class="cls-9" points="275.9 137.08 280.35 134.48 280.35 135.75 275.9 138.35 275.9 137.08"/>
          </g>
          <g>
            <polygon class="cls-9" points="273.36 138.51 273.66 138.69 273.66 127.62 273.36 127.45 273.36 138.51"/>
            <polygon class="cls-9" points="273.66 127.62 273.36 127.45 281.85 122.45 282.15 122.62 273.66 127.62"/>
            <polygon class="cls-10" points="273.66 127.62 282.15 122.62 282.15 133.69 273.66 138.69 273.66 127.62"/>
          </g>
          <g>
            <path class="cls-6" d="M277.3,130.78v-.12l.53-.54v.14l-.37.36.37-.05v.14Z"/>
            <path class="cls-6" d="M278.41,129.47l.17-.09-.48,1.48-.16.1Z"/>
            <path class="cls-6" d="M278.69,130.07l.36-.36-.36.06v-.14l.53-.08v.13l-.53.53Z"/>
          </g>
        </g>
      </g>
      <g>
        <g>
          <g>
            <polygon class="cls-9" points="319.4 174.27 319.4 175.5 328.13 175.5 328.13 174.2 319.4 174.27"/>
            <g>
              <ellipse class="cls-9" cx="323.77" cy="175.37" rx="4.37" ry="2.37"/>
              <ellipse class="cls-6" cx="323.77" cy="174.4" rx="4.37" ry="2.37"/>
            </g>
          </g>
          <g>
            <polygon class="cls-9" points="323.15 174.65 323.66 174.95 323.62 169.37 323.11 169.08 323.15 174.65"/>
            <polygon class="cls-12" points="323.62 169.37 323.11 169.08 324.6 168.14 325.11 168.43 323.62 169.37"/>
            <polygon class="cls-6" points="323.62 169.37 325.11 168.43 325.16 174 323.66 174.95 323.62 169.37"/>
          </g>
          <g>
            <polygon class="cls-12" points="315.84 167.46 322.61 171.4 322.61 171.04 315.84 167.14 315.84 167.46"/>
            <g>
              <polygon class="cls-1" points="322.61 171.04 315.85 167.14 324.92 162 331.69 165.9 322.61 171.04"/>
              <g class="cls-17">
                <polygon class="cls-14" points="321.77 170.58 326.56 162.87 325.38 161.93 315.84 167.07 321.77 170.58"/>
              </g>
            </g>
            <polygon class="cls-1" points="322.61 171.04 331.69 165.9 331.69 166.25 322.61 171.4 322.61 171.04"/>
          </g>
        </g>
        <g>
          <g>
            <polygon class="cls-15" points="300.19 175.14 309.3 180.32 309.3 172.6 300.19 167.44 300.19 175.14"/>
            <polygon class="cls-9" points="309.3 172.6 300.2 167.44 302.02 166.38 311.12 171.55 309.3 172.6"/>
            <polygon class="cls-6" points="309.3 172.6 311.13 171.55 311.13 179.26 309.3 180.32 309.3 172.6"/>
          </g>
          <g>
            <polygon class="cls-15" points="325.29 160.8 334.39 165.98 334.39 158.27 325.29 153.1 325.29 160.8"/>
            <polygon class="cls-9" points="334.39 158.27 325.29 153.1 327.12 152.05 336.22 157.21 334.39 158.27"/>
            <polygon class="cls-6" points="334.39 158.27 336.22 157.21 336.22 164.93 334.39 165.98 334.39 158.27"/>
          </g>
          <g>
            <polygon class="cls-9" points="297.94 169.06 308.14 175.1 308.14 172.44 297.94 166.74 297.94 169.06"/>
            <polygon class="cls-6" points="308.14 172.44 297.99 166.74 329.6 148.77 339.76 154.4 308.14 172.44"/>
            <polygon class="cls-9" points="308.14 172.44 339.8 154.4 339.8 157.06 308.14 175.1 308.14 172.44"/>
          </g>
        </g>
        <g>
          <polygon class="cls-1" points="322.54 170.9 322.85 171.08 322.85 160.05 322.54 159.88 322.54 170.9"/>
          <polygon class="cls-1" points="322.85 160.05 322.54 159.88 330.99 154.91 331.69 154.96 322.85 160.05"/>
          <polygon class="cls-12" points="322.85 160.05 331.69 154.96 331.69 166.31 322.85 171.08 322.85 160.05"/>
        </g>
        <g>
          <g>
            <polygon class="cls-12" points="316.99 160.76 317.53 161.06 317.53 159.79 316.99 159.5 316.99 160.76"/>
            <polygon class="cls-2" points="317.53 159.79 316.99 159.5 321.44 156.9 321.97 157.19 317.53 159.79"/>
            <polygon class="cls-9" points="317.53 159.79 321.97 157.19 321.97 158.46 317.53 161.06 317.53 159.79"/>
          </g>
          <g>
            <polygon class="cls-9" points="314.98 161.22 315.29 161.39 315.29 150.32 314.98 150.15 314.98 161.22"/>
            <polygon class="cls-9" points="315.29 150.32 314.99 150.15 323.47 145.15 323.78 145.32 315.29 150.32"/>
            <polygon class="cls-10" points="315.29 150.32 323.78 145.32 323.78 156.39 315.29 161.39 315.29 150.32"/>
          </g>
          <g>
            <path class="cls-6" d="M318.92,153.49v-.13l.53-.53V153l-.36.37.36-.06v.14Z"/>
            <path class="cls-6" d="M320,152.18l.16-.1-.47,1.48-.17.1Z"/>
            <path class="cls-6" d="M320.31,152.78l.37-.37-.37.06v-.14l.53-.08v.13l-.53.53Z"/>
          </g>
        </g>
      </g>
      <g class="cls-18">
        <polygon class="cls-19" points="219.97 60.82 232.59 141.55 329.71 197.05 329.71 123.89 219.97 60.82"/>
      </g>
      <g class="cls-20">
        <polygon class="cls-19" points="329.71 123.89 362.51 104.97 362.51 176.87 329.71 197.05 329.71 123.89"/>
      </g>
      <g>
        <path class="cls-21" d="M130.74,248.21l34.77,20.08,2.31-14.51q-17.65-8.53-34.92-17.59Z"/>
        <path class="cls-21" d="M218.56,276.77l3.18,24,37.5,21.64-4.65-31.24Q236.44,284.34,218.56,276.77Z"/>
        <path class="cls-12" d="M220.38,61.37,169.59,32,132.9,236.19q17.25,9,34.92,17.59l4.5-28.26,42.61,24.6v-.68l3.63,27.33q17.88,7.55,36,14.39ZM176.75,195.7,193.11,87.21l.69.39,16.7,127.58Z"/>
      </g>
      <g>
        <g>
          <g>
            <polygon class="cls-6" points="171.43 202.84 171.41 200.15 159.37 207.56 159.4 210.25 171.43 202.84"/>
            <polygon class="cls-9" points="159.37 207.56 159.4 210.25 158.85 209.95 158.82 207.26 159.37 207.56"/>
            <polygon class="cls-9" points="159.37 207.56 158.82 207.26 170.85 199.85 171.41 200.15 159.37 207.56"/>
          </g>
          <g>
            <polygon class="cls-6" points="194.4 193.93 194.38 191.24 182.35 198.65 182.38 201.34 194.4 193.93"/>
            <polygon class="cls-9" points="182.35 198.65 182.38 201.34 181.82 201.04 181.8 198.35 182.35 198.65"/>
            <polygon class="cls-9" points="182.35 198.65 181.8 198.35 193.83 190.94 194.38 191.24 182.35 198.65"/>
          </g>
          <g>
            <polygon class="cls-6" points="179.04 203.52 179.03 202 172.23 206.19 172.24 207.71 179.04 203.52"/>
            <polygon class="cls-9" points="172.23 206.19 172.24 207.71 171.93 207.54 171.92 206.02 172.23 206.19"/>
            <polygon class="cls-9" points="172.23 206.19 171.92 206.02 178.72 201.83 179.03 202 172.23 206.19"/>
          </g>
          <g>
            <polygon class="cls-6" points="184.09 194.69 184.08 193.17 177.27 197.36 177.29 198.88 184.09 194.69"/>
            <polygon class="cls-9" points="177.27 197.36 177.29 198.88 176.98 198.71 176.96 197.19 177.27 197.36"/>
            <polygon class="cls-9" points="177.27 197.36 176.96 197.19 183.76 193 184.08 193.17 177.27 197.36"/>
          </g>
          <g>
            <polygon class="cls-6" points="160.42 213.31 160.41 211.79 153.6 215.98 153.62 217.5 160.42 213.31"/>
            <polygon class="cls-9" points="153.6 215.98 153.62 217.5 153.31 217.33 153.29 215.81 153.6 215.98"/>
            <polygon class="cls-9" points="153.6 215.98 153.29 215.81 160.09 211.62 160.41 211.79 153.6 215.98"/>
          </g>
        </g>
        <g class="cls-18">
          <ellipse class="cls-19" cx="114.57" cy="236.51" rx="3.26" ry="5.76" transform="translate(-119.16 116.36) rotate(-36.95)"/>
        </g>
        <g class="cls-18">
          <polygon class="cls-19" points="111.42 231.72 118.16 241.01 207.04 189 205.38 176.72 111.42 231.72"/>
        </g>
      </g>
      <g>
        <g>
          <g>
            <polygon class="cls-9" points="102.62 333.98 102.62 340.16 58.91 340.16 58.91 333.64 102.62 333.98"/>
            <g>
              <ellipse class="cls-9" cx="80.77" cy="339.51" rx="21.86" ry="11.86"/>
              <ellipse class="cls-6" cx="80.77" cy="334.64" rx="21.86" ry="11.86"/>
            </g>
          </g>
          <g>
            <polygon class="cls-9" points="83.85 335.9 81.28 337.38 81.5 309.46 84.07 308.02 83.85 335.9"/>
            <polygon class="cls-12" points="81.5 309.46 84.06 308.02 76.59 303.32 74.03 304.75 81.5 309.46"/>
            <polygon class="cls-8" points="81.5 309.46 74.02 304.75 73.8 332.67 81.28 337.38 81.5 309.46"/>
          </g>
          <g>
            <polygon class="cls-12" points="120.43 299.89 86.54 319.62 86.54 317.85 120.43 298.28 120.43 299.89"/>
            <g>
              <polygon class="cls-1" points="86.54 317.85 120.41 298.28 74.97 272.55 41.1 292.08 86.54 317.85"/>
              <g class="cls-22">
                <polygon class="cls-14" points="90.75 315.53 66.78 276.94 72.7 272.22 120.43 297.95 90.75 315.53"/>
              </g>
            </g>
            <polygon class="cls-1" points="86.54 317.85 41.08 292.08 41.08 293.85 86.54 319.62 86.54 317.85"/>
          </g>
        </g>
        <g>
          <g>
            <polygon class="cls-15" points="198.77 338.35 153.2 364.3 153.2 325.66 198.77 299.8 198.77 338.35"/>
            <polygon class="cls-9" points="153.2 325.66 198.76 299.8 189.61 294.52 144.06 320.37 153.2 325.66"/>
            <polygon class="cls-9" points="153.2 325.66 144.04 320.37 144.04 359 153.2 364.3 153.2 325.66"/>
          </g>
          <g>
            <polygon class="cls-15" points="73.14 266.56 27.58 292.51 27.58 253.88 73.14 228.02 73.14 266.56"/>
            <polygon class="cls-9" points="27.58 253.88 73.13 228.02 63.98 222.74 18.43 248.58 27.58 253.88"/>
            <polygon class="cls-9" points="27.58 253.88 18.42 248.58 18.42 287.21 27.58 292.51 27.58 253.88"/>
          </g>
          <g>
            <polygon class="cls-15" points="210.06 307.94 159 338.13 159 324.81 210.06 296.29 210.06 307.94"/>
            <polygon class="cls-6" points="159 324.81 209.82 296.29 51.53 206.33 0.7 234.5 159 324.81"/>
            <polygon class="cls-9" points="159 324.81 0.47 234.5 0.47 247.82 159 338.13 159 324.81"/>
          </g>
        </g>
        <g>
          <g>
            <polygon class="cls-12" points="114.67 266.36 111.98 267.86 111.98 261.49 114.67 260.03 114.67 266.36"/>
            <polygon class="cls-2" points="111.98 261.49 114.67 260.03 92.43 247.02 89.75 248.47 111.98 261.49"/>
            <polygon class="cls-9" points="111.98 261.49 89.74 248.47 89.74 254.84 111.98 267.86 111.98 261.49"/>
          </g>
          <g>
            <polygon class="cls-9" points="124.73 268.65 123.2 269.54 123.2 214.1 124.73 213.25 124.73 268.65"/>
            <polygon class="cls-9" points="123.2 214.1 124.73 213.25 82.24 188.22 80.71 189.07 123.2 214.1"/>
            <polygon class="cls-10" points="123.2 214.1 80.71 189.07 80.71 244.51 123.2 269.54 123.2 214.1"/>
          </g>
          <g>
            <path class="cls-6" d="M92.48,207v-.69l1.82.29-1.82-1.82v-.69l2.64,2.66v.64Z"/>
            <path class="cls-6" d="M91.93,208.25l-.82-.47-2.38-7.42.82.47Z"/>
            <path class="cls-6" d="M88.18,204.52l-2.64-2.66v-.64l2.64.38v.69L86.36,202l1.82,1.82Z"/>
          </g>
        </g>
        <g>
          <g>
            <polygon class="cls-9" points="120.43 279.71 104.2 289.35 104.2 287.58 120.43 278.1 120.43 279.71"/>
            <polygon class="cls-8" points="104.2 287.58 120.41 278.1 74.97 252.36 58.76 261.81 104.2 287.58"/>
            <polygon class="cls-9" points="104.2 287.58 58.73 261.81 58.73 263.58 104.2 289.35 104.2 287.58"/>
          </g>
          <g>
            <polygon class="cls-9" points="96.46 274.67 92.84 276.73 92.84 274.96 96.46 273.05 96.46 274.67"/>
            <polygon class="cls-8" points="92.84 274.96 96.44 273.05 77.49 262.45 73.89 264.33 92.84 274.96"/>
            <polygon class="cls-9" points="92.84 274.96 73.87 264.33 73.87 266.1 92.84 276.73 92.84 274.96"/>
          </g>
        </g>
        <g>
          <polygon class="cls-9" points="121.59 293.11 121.59 295.25 136.72 295.25 136.72 292.99 121.59 293.11"/>
          <g>
            <ellipse class="cls-9" cx="129.16" cy="295.02" rx="7.57" ry="4.11"/>
            <ellipse class="cls-10" cx="129.16" cy="293.33" rx="7.57" ry="4.11"/>
          </g>
        </g>
        <g>
          <polygon class="cls-1" points="86.89 317.14 85.37 318.02 85.37 262.83 86.89 261.97 86.89 317.14"/>
          <polygon class="cls-1" points="85.37 262.83 86.89 261.97 44.58 237.05 41.08 237.32 85.37 262.83"/>
          <polygon class="cls-12" points="85.37 262.83 41.08 237.32 41.08 294.16 85.37 318.02 85.37 262.83"/>
        </g>
        <g>
          <polygon class="cls-15" points="82.49 239.25 82.49 205.44 109.86 221.24 109.86 255.06 82.49 239.25"/>
          <polygon class="cls-6" points="121.59 261.83 109.86 255.06 109.86 221.24 121.59 228.01 121.59 261.83"/>
          <path class="cls-10" d="M106.05,246.67,84.49,234.23c-.17-.1-.31,0-.31.13h0a.67.67,0,0,0,.31.5l21.56,12.45c.18.1.32,0,.32-.14h0A.65.65,0,0,0,106.05,246.67Z"/>
          <path class="cls-10" d="M98.65,230.14,84.49,222c-.17-.1-.31,0-.31.13h0a.65.65,0,0,0,.31.5l14.16,8.18c.18.1.32,0,.32-.14h0A.65.65,0,0,0,98.65,230.14Z"/>
          <path class="cls-10" d="M103.3,221.2,84.49,210.34c-.17-.1-.31,0-.31.14h0a.67.67,0,0,0,.31.5l18.81,10.86c.18.1.32,0,.32-.14h0A.65.65,0,0,0,103.3,221.2Z"/>
          <path class="cls-23" d="M98.23,240.68l-12-7c-.17-.1-.31,0-.31.14h0a.67.67,0,0,0,.31.5l12,6.95c.18.1.32,0,.32-.13h0A.64.64,0,0,0,98.23,240.68Z"/>
          <path class="cls-23" d="M94.22,235.82l-8-4.63c-.17-.1-.31,0-.31.13h0a.67.67,0,0,0,.31.5l8,4.64c.17.1.31,0,.31-.14h0A.67.67,0,0,0,94.22,235.82Z"/>
          <path class="cls-23" d="M96.33,235.14l-10.15-5.86c-.17-.1-.31,0-.31.14h0a.67.67,0,0,0,.31.5l10.15,5.86c.17.1.32,0,.32-.14h0A.68.68,0,0,0,96.33,235.14Z"/>
          <path class="cls-23" d="M96.33,233l-10.15-5.86c-.17-.1-.31,0-.31.13h0a.65.65,0,0,0,.31.5l10.15,5.86c.17.1.32,0,.32-.13h0A.66.66,0,0,0,96.33,233Z"/>
          <path class="cls-23" d="M98.23,227.79l-12-7c-.17-.1-.31,0-.31.13h0a.65.65,0,0,0,.31.5l12,7c.18.1.32,0,.32-.13h0A.64.64,0,0,0,98.23,227.79Z"/>
          <path class="cls-23" d="M94.22,222.93l-8-4.64c-.17-.1-.31,0-.31.14h0a.67.67,0,0,0,.31.5l8,4.63c.17.11.31,0,.31-.13h0A.67.67,0,0,0,94.22,222.93Z"/>
          <path class="cls-23" d="M96.33,222.25l-10.15-5.86c-.17-.1-.31,0-.31.13h0a.65.65,0,0,0,.31.5l10.15,5.86c.17.1.32,0,.32-.13h0A.66.66,0,0,0,96.33,222.25Z"/>
          <path class="cls-23" d="M96.33,220.13l-10.15-5.85c-.17-.1-.31,0-.31.13h0a.65.65,0,0,0,.31.5l10.15,5.86c.17.1.32,0,.32-.14h0A.7.7,0,0,0,96.33,220.13Z"/>
          <polygon class="cls-10" points="111.44 228.35 119.26 232.79 119.26 245.26 111.23 240.61 111.44 228.35"/>
        </g>
      </g>
      <path class="cls-10" d="M134.29,291.75l-.17-.19a30.56,30.56,0,0,1,5.06-3.8,22.51,22.51,0,0,1,7.33-2.81,26.76,26.76,0,0,0,6.56-2.24c1.55-.77,4.4-2.61,10.08-6.3l.14-.09c2.55-1.66,5.44-3.53,7.55-2.44a3.43,3.43,0,0,1,1.31,1.31l-.22.13a3,3,0,0,0-1.21-1.21c-2-1-4.8.8-7.3,2.42l-.14.09c-5.68,3.69-8.53,5.54-10.1,6.32a27.48,27.48,0,0,1-6.61,2.26,21.91,21.91,0,0,0-7.26,2.78A29,29,0,0,0,134.29,291.75Z"/>
    </g>
  </g>
</svg>
