<svg id="Layer_1" data-name="Layer 1" xmlns="http://www.w3.org/2000/svg" viewBox="0 0 31.2 31.2"><defs><style>.cls-1{fill:#5ac7f2;}.cls-2{fill:#fff;}</style></defs><title>facebook copy</title><path class="cls-1" d="M30.74,15.67C30.42,24,24.4,30.49,15.83,30.51A14.53,14.53,0,0,1,1,15.68,14.54,14.54,0,0,1,15.82.83C24.14.82,30.39,7.08,30.74,15.67Zm-11.39,0c.07-.44.13-.82.2-1.2.27-1.61.28-1.65-1.33-1.69-.8,0-1-.37-1-1.08,0-.92.51-1.14,1.29-1.07s1.24-.12,1.16-1a11.06,11.06,0,0,0,0-1.29,1,1,0,0,0-.46-.69c-2.94-1-5.46.56-5.65,3.63-.06,1-.26,1.67-1.48,1.56v2.89c1.35-.12,1.48.65,1.45,1.68-.06,1.76-.06,3.52,0,5.28,0,.37.41,1,.7,1a20.8,20.8,0,0,0,3,.05V18.14C17.22,16,17.22,16,19.35,15.65Z"/><path class="cls-2" d="M19.35,15.65c-2.13.32-2.13.32-2.13,2.49v5.61a20.8,20.8,0,0,1-3-.05c-.29,0-.68-.66-.7-1-.08-1.76-.08-3.52,0-5.28,0-1-.1-1.8-1.45-1.68V12.82c1.22.11,1.42-.55,1.48-1.56.19-3.07,2.71-4.66,5.65-3.63a1,1,0,0,1,.46.69,11.06,11.06,0,0,1,0,1.29c.08.88-.41,1.07-1.16,1s-1.28.15-1.29,1.07c0,.71.2,1.07,1,1.08,1.61,0,1.6.08,1.33,1.69C19.48,14.83,19.42,15.21,19.35,15.65Z"/></svg>