<svg xmlns="http://www.w3.org/2000/svg" xmlns:xlink="http://www.w3.org/1999/xlink" viewBox="0 0 484 483">
  <defs>
    <style>
      .cls-1 {
        fill: #dd6271;
      }

      .cls-2 {
        fill: #666;
      }

      .cls-17, .cls-3 {
        fill: #fff;
      }

      .cls-4 {
        fill: #4d4d4d;
      }

      .cls-5 {
        fill: #f9f9f9;
      }

      .cls-6, .cls-7 {
        fill: #f2f2f2;
      }

      .cls-21, .cls-6, .cls-8 {
        opacity: 0.65;
      }

      .cls-11, .cls-8 {
        fill: #5ac7f2;
      }

      .cls-9 {
        fill: #f77781;
      }

      .cls-10, .cls-20 {
        fill: none;
      }

      .cls-12 {
        fill: #414242;
      }

      .cls-13 {
        fill: #52c0e2;
      }

      .cls-14 {
        clip-path: url(#clip-path);
      }

      .cls-15 {
        fill: #e56575;
      }

      .cls-16 {
        fill: #e6e6e6;
      }

      .cls-17 {
        font-size: 2.15px;
        font-family: BebasNeue-Regular, Bebas Neue;
      }

      .cls-18 {
        fill: gray;
      }

      .cls-19 {
        clip-path: url(#clip-path-2);
      }

      .cls-20 {
        stroke: #ccc;
        stroke-miterlimit: 10;
        stroke-width: 0.5px;
      }

      .cls-21 {
        fill: #61d0f2;
      }
    </style>
    <clipPath id="clip-path">
      <polygon class="cls-1" points="65.72 224.89 74.16 220.01 62.83 213.6 54.4 218.47 65.72 224.89"/>
    </clipPath>
    <clipPath id="clip-path-2">
      <polygon class="cls-1" points="139.46 41.39 131.02 36.51 142.34 30.1 150.78 34.97 139.46 41.39"/>
    </clipPath>
  </defs>
  <title>hiring</title>
  <g id="stelling">
    <g>
      <g>
        <polygon class="cls-2" points="483.73 385.57 323.44 475.92 323.44 473.59 483.73 383.96 483.73 385.57"/>
        <polygon class="cls-3" points="323.44 473.59 483.63 383.96 186.54 213.21 26.35 302.69 323.44 473.59"/>
        <polygon class="cls-4" points="323.44 473.59 26.25 302.69 26.25 305.02 323.44 475.92 323.44 473.59"/>
      </g>
      <polyline class="cls-5" points="130.32 304.24 261.72 277.05 261.17 256.1 220.94 230.61 86.87 249.95"/>
      <g>
        <polygon class="cls-4" points="325.97 387.51 325.97 400.08 414.95 400.08 414.95 386.81 325.97 387.51"/>
        <g>
          <ellipse class="cls-4" cx="370.46" cy="398.76" rx="44.49" ry="24.13"/>
          <ellipse class="cls-3" cx="370.46" cy="388.85" rx="44.49" ry="24.13"/>
        </g>
      </g>
      <g>
        <ellipse class="cls-6" cx="371.59" cy="358.62" rx="16.4" ry="8.9"/>
        <g>
          <path class="cls-4" d="M371.59,365.08c-9.06,0-16.4-4-16.4-8.9v2.93h0c.47,4.68,7.6,8.41,16.36,8.41s15.89-3.73,16.36-8.41H388v-2.93C388,361.09,380.65,365.08,371.59,365.08Z"/>
          <path class="cls-7" d="M355.19,303.58v52.6c0-4.91,7.34-8.9,16.4-8.9s16.41,4,16.41,8.9V303.32Z"/>
          <ellipse class="cls-7" cx="371.59" cy="356.18" rx="16.41" ry="8.9"/>
        </g>
        <ellipse class="cls-4" cx="371.59" cy="304.08" rx="16.4" ry="8.9"/>
      </g>
      <g>
        <ellipse class="cls-6" cx="372.72" cy="302.27" rx="2.27" ry="1.23"/>
        <g>
          <path class="cls-4" d="M372.72,303.16c-1.25,0-2.26-.55-2.26-1.23v.4h0c.07.65,1.05,1.16,2.26,1.16s2.2-.51,2.26-1.16h0v-.4C375,302.61,374,303.16,372.72,303.16Z"/>
          <path class="cls-7" d="M370.46,183.66V301.93c0-.68,1-1.23,2.26-1.23s2.27.55,2.27,1.23V183.62Z"/>
          <ellipse class="cls-7" cx="372.72" cy="301.93" rx="2.27" ry="1.23"/>
        </g>
        <ellipse class="cls-4" cx="372.72" cy="183.73" rx="2.27" ry="1.23"/>
      </g>
      <g>
        <g>
          <path class="cls-8" d="M388,388.56v-.49a3.87,3.87,0,0,1-.05.49Z"/>
          <path class="cls-8" d="M355.19,388.56h0c0-.16,0-.32,0-.49Z"/>
          <path class="cls-8" d="M371.59,379.17c-9.06,0-16.4,4-16.4,8.9,0,.17,0,.33,0,.49H388a3.87,3.87,0,0,0,.05-.49C388,383.16,380.65,379.17,371.59,379.17Z"/>
          <path class="cls-8" d="M371.59,398.08c9.06,0,16.41-4,16.41-8.9a4.28,4.28,0,0,0-.05-.49H355.23c0,.17,0,.33,0,.49C355.19,394.09,362.53,398.08,371.59,398.08Z"/>
          <path class="cls-8" d="M355.19,173.32V388.07c0,.17,0,.33,0,.49.47,4.68,7.6,8.41,16.36,8.41s15.89-3.73,16.36-8.41a3.87,3.87,0,0,0,.05-.49v-215Z"/>
        </g>
        <ellipse class="cls-3" cx="371.59" cy="173.81" rx="16.4" ry="8.9"/>
      </g>
      <polygon class="cls-4" points="421.98 170.85 421.98 167.13 418.71 172.4 418.71 172.65 421.25 171.25 421.98 170.85"/>
      <g>
        <polygon class="cls-9" points="86.23 278.59 130.88 304.01 130.88 81.89 86.23 56.54 86.23 278.59"/>
        <polygon class="cls-4" points="130.88 81.89 86.24 56.54 151.84 19.66 196.48 44.98 130.88 81.89"/>
        <polygon class="cls-3" points="130.88 81.89 196.49 44.98 196.49 267.11 130.88 304.01 130.88 81.89"/>
      </g>
      <g>
        <path class="cls-10" d="M389.17,168.15a4.75,4.75,0,0,1,.05-.53,51.45,51.45,0,0,0-18.76-3.33c-14.25,0-26.3,5.09-30.3,12.1,2,3.58,6.2,6.66,11.66,8.82A25.59,25.59,0,0,1,362.53,183c6.51,0,12.12,2.06,14.77,5,11-1.31,19.85-5.71,23.3-11.45C394,175.49,389.17,172.12,389.17,168.15Z"/>
        <path class="cls-3" d="M377.86,195.08l-9.29,5.12C372.85,199.28,376.23,197.42,377.86,195.08Z"/>
        <path class="cls-3" d="M355.65,200l-8.4-4.86C348.79,197.3,351.82,199,355.65,200Z"/>
        <path class="cls-3" d="M414.39,160.65l5.54,3.2A15,15,0,0,0,414.39,160.65Z"/>
        <path class="cls-3" d="M420.86,171.36l-9.13,5C415.92,175.47,419.23,173.64,420.86,171.36Z"/>
        <path class="cls-11" d="M421.44,165.89a6.37,6.37,0,0,0-2.63-2.69l-4.42-2.55L151.24,9,86.33,44.49,347.25,195.15l8.4,4.86a28.7,28.7,0,0,0,6.88.82,28.27,28.27,0,0,0,6-.63l9.29-5.12,33.87-18.69,9.13-5a5.53,5.53,0,0,0,1.12-3.21A5.14,5.14,0,0,0,421.44,165.89ZM400.6,176.63c-3.45,5.74-12.3,10.14-23.3,11.45a56.34,56.34,0,0,1-6.84.42,51.52,51.52,0,0,1-18.64-3.29c-5.46-2.16-9.62-5.24-11.66-8.82,4-7,16-12.1,30.3-12.1a51.45,51.45,0,0,1,18.76,3.33c5.4,2.16,9.51,5.22,11.54,8.77Z"/>
      </g>
      <path class="cls-4" d="M355.65,200s9.71,1.91,15.66-1.3v5.85l-8.78,4.53-7.93-2.27Z"/>
      <path class="cls-4" d="M370.46,164.29c14.24,0,26.29,5.09,30.3,12.1a10.19,10.19,0,0,0,1.41-5.1c0-9.5-14.2-17.2-31.71-17.2s-31.72,7.7-31.72,17.2a10.2,10.2,0,0,0,1.42,5.1C344.16,169.38,356.21,164.29,370.46,164.29Z"/>
      <g>
        <polygon class="cls-4" points="346.67 167.29 346.67 174.01 394.25 174.01 394.25 166.92 346.67 167.29"/>
        <g>
          <ellipse class="cls-4" cx="370.46" cy="173.3" rx="23.79" ry="12.9"/>
          <ellipse class="cls-3" cx="370.46" cy="168.01" rx="23.79" ry="12.9"/>
        </g>
      </g>
      <g>
        <g>
          <polygon class="cls-3" points="357.83 291.67 366.46 296.58 366.46 241.4 357.83 236.51 357.83 291.67"/>
          <polygon class="cls-4" points="366.46 241.4 357.83 236.51 359.56 235.51 368.19 240.4 366.46 241.4"/>
          <polygon class="cls-4" points="366.46 241.4 368.19 240.4 368.19 295.58 366.46 296.58 366.46 241.4"/>
        </g>
        <g>
          <path class="cls-4" d="M360.1,247.5v-4.8c0-1.46.76-1.85,2.17-1a4,4,0,0,1,2.18,3.55V250c0,1.46-.77,1.85-2.18,1A4,4,0,0,1,360.1,247.5Zm2.91,1.77v-5a1.4,1.4,0,0,0-.74-1.33c-.45-.27-.74-.18-.74.47v5a1.41,1.41,0,0,0,.74,1.32C362.73,250,363,249.93,363,249.27Z"/>
          <path class="cls-4" d="M360.29,253.68l2.11,1.22a3.88,3.88,0,0,1,2.14,3.49v.9c0,1.46-.7,1.85-2.14,1l-.68-.39v3.71l-1.43-.82ZM362.4,259c.46.26.71.19.71-.46v-1.08a1.28,1.28,0,0,0-.71-1.26l-.68-.4v2.81Z"/>
          <path class="cls-4" d="M360.44,266.8l3.91,2.26v1.3l-2.48-1.43v2.41l2,1.14v1.3l-2-1.13v2.8l2.48,1.43v1.3l-3.91-2.26Z"/>
          <path class="cls-4" d="M360,279.59l1.8,1,1.4,6.27h0v-5.46l1.28.74v9.12l-1.47-.85-1.72-7.65,0,0v6.66l-1.28-.74Z"/>
        </g>
      </g>
      <path class="cls-7" d="M197.15,177.58l-44.61-24.79-.48-.26-21.74,12.61h0l-13.4,7.78c14.47-5.67,30-7.85,46.25-3.47a60.38,60.38,0,0,1,24.3,14.25l9.68-5.54Z"/>
      <path class="cls-3" d="M116.92,172.92,86.38,190.65l43.94,24.94v.8l57.15-32.69a60.38,60.38,0,0,0-24.3-14.25C146.94,165.07,131.39,167.25,116.92,172.92Z"/>
      <polygon class="cls-4" points="86.33 143.91 86.33 190.62 86.38 190.65 130.88 164.82 151.32 152.96 86.33 143.91"/>
      <polygon class="cls-12" points="152.06 152.53 152.54 152.25 152.54 136.69 130.78 149.14 86.33 123.92 86.33 143.91 151.32 152.96 152.06 152.53"/>
      <polygon class="cls-4" points="152.06 152.53 152.54 152.79 152.54 152.25 152.06 152.53"/>
      <polygon class="cls-11" points="152.54 152.25 152.54 152.69 154.97 150.84 152.54 152.25"/>
      <polygon class="cls-13" points="197.15 118.66 197.15 111.17 152.54 136.69 152.54 152.25 154.97 150.84 197.15 118.66"/>
      <polygon class="cls-11" points="154.97 150.84 192.63 128.98 154.97 150.84 152.54 152.69 152.54 152.79 197.15 177.58 197.15 118.66 154.97 150.84"/>
      <polygon class="cls-9" points="125.09 212.45 125.09 145.9 130.32 149.06 130.32 215.89 125.09 212.45"/>
      <polygon class="cls-7" points="130.32 149.06 130.32 215.89 134.36 214.09 134.36 147.1 130.32 149.06"/>
      <polygon class="cls-3" points="190.68 181.87 190.68 109.41 197.15 109.41 197.15 184.46 190.68 181.87"/>
      <g>
        <path class="cls-4" d="M418.71,172.64l-56.57,31.11v8.15c3.05,0,6.66-.36,9.45-1.86v.26l48.22-27.63-1.29.74Z"/>
        <path class="cls-4" d="M421.25,171.25l-2.54,1.39-.19,10.77,1.29-.74h0a4.32,4.32,0,0,0,2.17-3.74v-8.08Z"/>
        <polygon class="cls-4" points="421.98 181.43 421.98 181.43 419.81 182.67 421.98 181.43"/>
        <path class="cls-4" d="M362.14,211.9v-8.15L86.12,44.49v12L352.33,210.22l3.61,1.11A37.35,37.35,0,0,0,362.14,211.9Z"/>
      </g>
      <g>
        <polygon class="cls-2" points="115.6 225.85 51.58 261.83 51.58 256.11 115.6 220.85 115.6 225.85"/>
        <polygon class="cls-11" points="51.58 256.11 115.5 220.85 74.4 197.35 10.49 232.46 51.58 256.11"/>
        <polygon class="cls-4" points="51.58 256.11 10.39 232.46 10.39 238.19 51.58 261.83 51.58 256.11"/>
      </g>
      <g>
        <g>
          <g>
            <polygon class="cls-4" points="69.73 228.91 69.73 230.44 58.83 230.44 58.83 228.82 69.73 228.91"/>
            <g>
              <ellipse class="cls-4" cx="64.28" cy="230.28" rx="5.45" ry="2.95"/>
              <ellipse class="cls-3" cx="64.28" cy="229.07" rx="5.45" ry="2.95"/>
            </g>
          </g>
          <g>
            <polygon class="cls-4" points="65.05 229.38 64.41 229.75 64.46 222.8 65.1 222.44 65.05 229.38"/>
            <polygon class="cls-9" points="64.46 222.8 65.1 222.44 63.24 221.26 62.6 221.62 64.46 222.8"/>
            <polygon class="cls-7" points="64.46 222.8 62.6 221.62 62.54 228.58 64.41 229.75 64.46 222.8"/>
          </g>
          <g>
            <polygon class="cls-9" points="74.16 220.41 65.72 225.33 65.72 224.89 74.16 220.01 74.16 220.41"/>
            <g>
              <polygon class="cls-1" points="65.72 224.89 74.16 220.01 62.83 213.6 54.4 218.47 65.72 224.89"/>
              <g class="cls-14">
                <polygon class="cls-15" points="66.77 224.31 60.79 214.69 62.27 213.51 74.16 219.93 66.77 224.31"/>
              </g>
            </g>
            <polygon class="cls-1" points="65.72 224.89 54.39 218.47 54.39 218.91 65.72 225.33 65.72 224.89"/>
          </g>
        </g>
        <g>
          <g>
            <polygon class="cls-2" points="93.69 230 82.33 236.46 82.33 226.83 93.69 220.39 93.69 230"/>
            <polygon class="cls-4" points="82.33 226.83 93.68 220.39 91.4 219.07 80.05 225.51 82.33 226.83"/>
            <polygon class="cls-4" points="82.33 226.83 80.05 225.51 80.05 235.14 82.33 236.46 82.33 226.83"/>
          </g>
          <g>
            <polygon class="cls-2" points="62.38 212.11 51.03 218.57 51.03 208.94 62.38 202.5 62.38 212.11"/>
            <polygon class="cls-4" points="51.03 208.94 62.38 202.5 60.1 201.19 48.75 207.63 51.03 208.94"/>
            <polygon class="cls-4" points="51.03 208.94 48.74 207.63 48.74 217.25 51.03 218.57 51.03 208.94"/>
          </g>
          <g>
            <polygon class="cls-2" points="96.5 222.42 83.77 229.94 83.77 226.62 96.5 219.51 96.5 222.42"/>
            <polygon class="cls-3" points="83.77 226.62 96.44 219.51 57 197.1 44.33 204.12 83.77 226.62"/>
            <polygon class="cls-4" points="83.77 226.62 44.27 204.12 44.27 207.44 83.77 229.94 83.77 226.62"/>
          </g>
        </g>
        <g>
          <g>
            <polygon class="cls-9" points="72.73 212.06 72.06 212.43 72.06 210.84 72.73 210.48 72.73 212.06"/>
            <polygon class="cls-16" points="72.06 210.84 72.73 210.48 67.19 207.24 66.52 207.6 72.06 210.84"/>
            <polygon class="cls-4" points="72.06 210.84 66.52 207.6 66.52 209.19 72.06 212.43 72.06 210.84"/>
          </g>
          <g>
            <polygon class="cls-4" points="75.23 212.63 74.86 212.85 74.86 199.03 75.23 198.82 75.23 212.63"/>
            <polygon class="cls-4" points="74.86 199.03 75.23 198.82 64.65 192.58 64.27 192.8 74.86 199.03"/>
            <polygon class="cls-11" points="74.86 199.03 64.27 192.8 64.27 206.61 74.86 212.85 74.86 199.03"/>
          </g>
          <text class="cls-17" transform="matrix(-1, -0.58, 0, 1, 67.95, 198.09)">&lt;/&gt;</text>
        </g>
        <g>
          <g>
            <polygon class="cls-4" points="74.16 215.38 70.12 217.78 70.12 217.34 74.16 214.98 74.16 215.38"/>
            <polygon class="cls-7" points="70.12 217.34 74.16 214.98 62.83 208.57 58.8 210.92 70.12 217.34"/>
            <polygon class="cls-4" points="70.12 217.34 58.79 210.92 58.79 211.36 70.12 217.78 70.12 217.34"/>
          </g>
          <g>
            <polygon class="cls-4" points="68.19 214.13 67.29 214.64 67.29 214.2 68.19 213.72 68.19 214.13"/>
            <polygon class="cls-7" points="67.29 214.2 68.19 213.72 63.46 211.08 62.57 211.55 67.29 214.2"/>
            <polygon class="cls-4" points="67.29 214.2 62.56 211.55 62.56 211.99 67.29 214.64 67.29 214.2"/>
          </g>
        </g>
        <g>
          <polygon class="cls-4" points="74.45 218.72 74.45 219.25 78.22 219.25 78.22 218.69 74.45 218.72"/>
          <g>
            <ellipse class="cls-4" cx="76.34" cy="219.2" rx="1.89" ry="1.02"/>
            <ellipse class="cls-11" cx="76.34" cy="218.78" rx="1.89" ry="1.02"/>
          </g>
        </g>
        <g>
          <polygon class="cls-1" points="65.81 224.71 65.43 224.93 65.43 211.18 65.81 210.96 65.81 224.71"/>
          <polygon class="cls-1" points="65.43 211.18 65.81 210.96 55.26 204.75 54.39 204.82 65.43 211.18"/>
          <polygon class="cls-9" points="65.43 211.18 54.39 204.82 54.39 218.98 65.43 224.93 65.43 211.18"/>
        </g>
        <g>
          <polygon class="cls-2" points="64.71 205.3 64.71 196.87 71.53 200.81 71.53 209.24 64.71 205.3"/>
          <polygon class="cls-3" points="74.45 210.93 71.53 209.24 71.53 200.81 74.45 202.5 74.45 210.93"/>
          <path class="cls-11" d="M70.58,207.15l-5.37-3.1s-.08,0-.08,0h0a.2.2,0,0,0,.08.13l5.37,3.1s.08,0,.08,0h0A.16.16,0,0,0,70.58,207.15Z"/>
          <path class="cls-11" d="M68.74,203l-3.53-2s-.08,0-.08,0h0a.16.16,0,0,0,.08.12l3.53,2s.08,0,.08,0h0A.18.18,0,0,0,68.74,203Z"/>
          <path class="cls-11" d="M69.9,200.8l-4.69-2.7s-.08,0-.08,0h0a.16.16,0,0,0,.08.12L69.9,201s.08,0,.08,0h0A.18.18,0,0,0,69.9,200.8Z"/>
          <path class="cls-18" d="M68.63,205.66l-3-1.74s-.08,0-.08,0h0a.16.16,0,0,0,.08.12l3,1.73c.05,0,.08,0,.08,0h0A.14.14,0,0,0,68.63,205.66Z"/>
          <path class="cls-18" d="M67.63,204.45l-2-1.16s-.08,0-.08,0h0a.18.18,0,0,0,.08.13l2,1.15c.05,0,.08,0,.08,0h0A.14.14,0,0,0,67.63,204.45Z"/>
          <path class="cls-18" d="M68.16,204.28l-2.53-1.46s-.08,0-.08,0h0a.16.16,0,0,0,.08.12l2.53,1.46s.08,0,.08,0h0A.16.16,0,0,0,68.16,204.28Z"/>
          <path class="cls-18" d="M68.16,203.75l-2.53-1.46s-.08,0-.08,0h0a.18.18,0,0,0,.08.13l2.53,1.46s.08,0,.08,0h0A.16.16,0,0,0,68.16,203.75Z"/>
          <path class="cls-18" d="M68.63,202.44l-3-1.73s-.08,0-.08,0h0a.18.18,0,0,0,.08.13l3,1.73c.05,0,.08,0,.08,0h0A.16.16,0,0,0,68.63,202.44Z"/>
          <path class="cls-18" d="M67.63,201.23l-2-1.15s-.08,0-.08,0h0a.2.2,0,0,0,.08.13l2,1.15c.05,0,.08,0,.08,0h0A.16.16,0,0,0,67.63,201.23Z"/>
          <path class="cls-18" d="M68.16,201.06l-2.53-1.46s-.08,0-.08,0h0a.16.16,0,0,0,.08.12l2.53,1.46s.08,0,.08,0h0A.18.18,0,0,0,68.16,201.06Z"/>
          <path class="cls-18" d="M68.16,200.54l-2.53-1.46s-.08,0-.08,0h0a.16.16,0,0,0,.08.12l2.53,1.46s.08,0,.08,0h0A.16.16,0,0,0,68.16,200.54Z"/>
          <polygon class="cls-11" points="71.92 202.58 73.87 203.69 73.87 206.8 71.87 205.64 71.92 202.58"/>
        </g>
      </g>
      <g>
        <g>
          <g>
            <polygon class="cls-4" points="135.45 45.41 135.45 46.95 146.34 46.95 146.34 45.32 135.45 45.41"/>
            <g>
              <ellipse class="cls-4" cx="140.9" cy="46.78" rx="5.45" ry="2.95"/>
              <ellipse class="cls-3" cx="140.9" cy="45.57" rx="5.45" ry="2.95"/>
            </g>
          </g>
          <g>
            <polygon class="cls-4" points="140.13 45.88 140.77 46.25 140.71 39.3 140.07 38.94 140.13 45.88"/>
            <polygon class="cls-9" points="140.71 39.3 140.07 38.94 141.94 37.76 142.58 38.12 140.71 39.3"/>
            <polygon class="cls-7" points="140.71 39.3 142.58 38.12 142.63 45.08 140.77 46.25 140.71 39.3"/>
          </g>
          <g>
            <polygon class="cls-9" points="131.01 36.91 139.46 41.83 139.46 41.39 131.01 36.51 131.01 36.91"/>
            <g>
              <polygon class="cls-1" points="139.46 41.39 131.02 36.51 142.34 30.1 150.78 34.97 139.46 41.39"/>
              <g class="cls-19">
                <polygon class="cls-15" points="138.41 40.81 144.38 31.19 142.91 30.02 131.01 36.43 138.41 40.81"/>
              </g>
            </g>
            <polygon class="cls-1" points="139.46 41.39 150.79 34.97 150.79 35.41 139.46 41.83 139.46 41.39"/>
          </g>
        </g>
        <g>
          <g>
            <polygon class="cls-2" points="111.49 46.49 122.85 52.96 122.85 43.33 111.49 36.89 111.49 46.49"/>
            <polygon class="cls-4" points="122.85 43.33 111.49 36.89 113.77 35.57 125.13 42.01 122.85 43.33"/>
            <polygon class="cls-4" points="122.85 43.33 125.13 42.01 125.13 51.64 122.85 52.96 122.85 43.33"/>
          </g>
          <g>
            <polygon class="cls-2" points="142.8 28.61 154.15 35.07 154.15 25.45 142.8 19 142.8 28.61"/>
            <polygon class="cls-4" points="154.15 25.45 142.8 19 145.08 17.68 156.43 24.13 154.15 25.45"/>
            <polygon class="cls-4" points="154.15 25.45 156.43 24.13 156.43 33.75 154.15 35.07 154.15 25.45"/>
          </g>
          <g>
            <polygon class="cls-2" points="108.68 38.92 121.4 46.44 121.4 43.12 108.68 36.01 108.68 38.92"/>
            <polygon class="cls-3" points="121.4 43.12 108.74 36.01 148.18 13.6 160.85 20.62 121.4 43.12"/>
            <polygon class="cls-4" points="121.4 43.12 160.91 20.62 160.91 23.93 121.4 46.44 121.4 43.12"/>
          </g>
        </g>
        <g>
          <g>
            <polygon class="cls-9" points="132.45 28.56 133.12 28.93 133.12 27.34 132.45 26.98 132.45 28.56"/>
            <polygon class="cls-16" points="133.12 27.34 132.45 26.98 137.99 23.74 138.66 24.1 133.12 27.34"/>
            <polygon class="cls-4" points="133.12 27.34 138.66 24.1 138.66 25.68 133.12 28.93 133.12 27.34"/>
          </g>
          <g>
            <polygon class="cls-4" points="129.94 29.13 130.32 29.35 130.32 15.53 129.94 15.32 129.94 29.13"/>
            <polygon class="cls-4" points="130.32 15.53 129.94 15.32 140.53 9.08 140.91 9.3 130.32 15.53"/>
            <polygon class="cls-11" points="130.32 15.53 140.91 9.3 140.91 23.11 130.32 29.35 130.32 15.53"/>
          </g>
          <text class="cls-17" transform="matrix(1, -0.58, 0, 1, 137.33, 14.53)">&lt;/&gt;</text>
        </g>
        <g>
          <g>
            <polygon class="cls-4" points="131.01 31.88 135.06 34.28 135.06 33.84 131.01 31.48 131.01 31.88"/>
            <polygon class="cls-7" points="135.06 33.84 131.02 31.48 142.34 25.07 146.38 27.42 135.06 33.84"/>
            <polygon class="cls-4" points="135.06 33.84 146.39 27.42 146.39 27.86 135.06 34.28 135.06 33.84"/>
          </g>
          <g>
            <polygon class="cls-4" points="136.99 30.63 137.89 31.14 137.89 30.7 136.99 30.22 136.99 30.63"/>
            <polygon class="cls-7" points="137.89 30.7 136.99 30.22 141.71 27.58 142.61 28.05 137.89 30.7"/>
            <polygon class="cls-4" points="137.89 30.7 142.62 28.05 142.62 28.49 137.89 31.14 137.89 30.7"/>
          </g>
        </g>
        <g>
          <polygon class="cls-4" points="130.72 35.22 130.72 35.75 126.95 35.75 126.95 35.19 130.72 35.22"/>
          <g>
            <ellipse class="cls-4" cx="128.84" cy="35.7" rx="1.89" ry="1.02"/>
            <ellipse class="cls-11" cx="128.84" cy="35.28" rx="1.89" ry="1.02"/>
          </g>
        </g>
        <g>
          <polygon class="cls-1" points="139.37 41.21 139.75 41.43 139.75 27.68 139.37 27.46 139.37 41.21"/>
          <polygon class="cls-1" points="139.75 27.68 139.37 27.46 149.91 21.25 150.79 21.32 139.75 27.68"/>
          <polygon class="cls-9" points="139.75 27.68 150.79 21.32 150.79 35.48 139.75 41.43 139.75 27.68"/>
        </g>
        <g>
          <polygon class="cls-2" points="140.47 21.8 140.47 13.37 133.65 17.31 133.65 25.74 140.47 21.8"/>
          <polygon class="cls-3" points="130.72 27.43 133.65 25.74 133.65 17.31 130.72 19 130.72 27.43"/>
          <path class="cls-11" d="M134.6,23.65l5.37-3.1s.08,0,.08,0h0a.2.2,0,0,1-.08.13l-5.37,3.1s-.08,0-.08,0h0A.14.14,0,0,1,134.6,23.65Z"/>
          <path class="cls-11" d="M136.44,19.53l3.53-2s.08,0,.08,0h0a.16.16,0,0,1-.08.12l-3.53,2s-.08,0-.08,0h0A.18.18,0,0,1,136.44,19.53Z"/>
          <path class="cls-11" d="M135.28,17.3,140,14.6s.08,0,.08,0h0a.16.16,0,0,1-.08.12l-4.69,2.71s-.08,0-.08,0h0A.18.18,0,0,1,135.28,17.3Z"/>
          <path class="cls-18" d="M136.54,22.16l3-1.74s.08,0,.08,0h0a.16.16,0,0,1-.08.12l-3,1.73s-.07,0-.07,0h0A.15.15,0,0,1,136.54,22.16Z"/>
          <path class="cls-18" d="M137.54,21l2-1.16s.08,0,.08,0h0a.18.18,0,0,1-.08.13l-2,1.15s-.07,0-.07,0h0A.15.15,0,0,1,137.54,21Z"/>
          <path class="cls-18" d="M137,20.78l2.53-1.46s.08,0,.08,0h0a.16.16,0,0,1-.08.12L137,20.93c-.05,0-.08,0-.08,0h0A.14.14,0,0,1,137,20.78Z"/>
          <path class="cls-18" d="M137,20.25l2.53-1.46s.08,0,.08,0h0a.18.18,0,0,1-.08.13L137,20.41c-.05,0-.08,0-.08,0h0A.14.14,0,0,1,137,20.25Z"/>
          <path class="cls-18" d="M136.54,18.94l3-1.73s.08,0,.08,0h0a.18.18,0,0,1-.08.13l-3,1.73s-.07,0-.07,0h0A.17.17,0,0,1,136.54,18.94Z"/>
          <path class="cls-18" d="M137.54,17.73l2-1.15s.08,0,.08,0h0a.2.2,0,0,1-.08.13l-2,1.15s-.07,0-.07,0h0A.17.17,0,0,1,137.54,17.73Z"/>
          <path class="cls-18" d="M137,17.56l2.53-1.46s.08,0,.08,0h0a.16.16,0,0,1-.08.12L137,17.72c-.05,0-.08,0-.08,0h0A.16.16,0,0,1,137,17.56Z"/>
          <path class="cls-18" d="M137,17l2.53-1.46s.08,0,.08,0h0a.16.16,0,0,1-.08.12L137,17.19c-.05,0-.08,0-.08,0h0A.14.14,0,0,1,137,17Z"/>
          <polygon class="cls-11" points="133.25 19.08 131.3 20.19 131.3 23.3 133.31 22.14 133.25 19.08"/>
        </g>
      </g>
      <polyline class="cls-20" points="10.82 232.31 59.53 182.47 51.6 256.1 59.53 182.47 74.25 197.2 59.53 182.47 115.03 220.98"/>
      <line class="cls-20" x1="59.53" y1="182.47" x2="59.53" y2="92.99"/>
      <g>
        <polygon class="cls-2" points="108.97 67.6 53.95 98.92 53.95 88.83 108.97 57.61 108.97 67.6"/>
        <polygon class="cls-4" points="53.95 88.83 108.95 57.61 105.52 55.81 50.52 87 53.95 88.83"/>
        <polygon class="cls-4" points="53.95 88.83 50.51 87 50.51 97.1 53.95 98.92 53.95 88.83"/>
      </g>
      <polygon class="cls-21" points="134.85 146.79 134.85 213.62 190.08 182.2 190.08 115.22 134.85 146.79"/>
      <polygon class="cls-21" points="11.39 167.18 11.39 234.01 49.9 255.53 49.9 188.7 11.39 167.18"/>
    </g>
    <g>
      <path class="cls-3" d="M182.05,48.54,186,50.82,170.48,61.88l.07,0L189.83,53l4.46,2.58-15.4,11.13.07,0,19.17-9,3.53,2-25.2,11.5-5.1-3,13.35-9.85-.07,0-17.07,7.71-5.44-3.14Z"/>
      <path class="cls-3" d="M203.75,61.07l11.16,6.44-3.22,1.87-7.07-4.09-6,3.45L204.27,72l-3.22,1.86-5.62-3.24-6.93,4,7.07,4.08-3.22,1.86-11.16-6.45Z"/>
      <path class="cls-3" d="M226.37,74.13l5.55,3.2L213.6,92.81l-4.1-2.37,3.74-3-.07,0-4.65-2.68-5.16,2.12-3.79-2.19ZM215.75,85.42l9.33-7.49-.07-.05-12.94,5.41Z"/>
      <path class="cls-3" d="M238.13,80.92l6.07,3.5c4.24,2.45,4.35,4.49.87,6.5l-1.38.8a8.94,8.94,0,0,1-7.13,1l-.07,0c1.5,1.5.5,2.85-2.05,4.32l-4,2.29a5.93,5.93,0,0,0-2.3,1.84L224,98.82c.35-.46.56-.75,2.4-1.81l4.12-2.39c2.1-1.2,2.07-2,.21-3.08l-1.42-.81-9.67,5.58L215.57,94ZM234,89.72a4.4,4.4,0,0,0,4.84,0l1.74-1c1.62-.93,1.69-1.7.24-2.54L239,85.14l-6.45,3.73Z"/>
      <path class="cls-3" d="M253.12,89.58,264.29,96l-3.22,1.86L254,93.8l-6,3.44,5.62,3.25-3.22,1.86-5.62-3.24-6.93,4,7.07,4.08-3.22,1.86-11.17-6.45Z"/>
      <path class="cls-3" d="M272.59,100.81l4.09,2.37-9.19,5.3,4.4,2.54,9.18-5.31,4.09,2.37-22.56,13-4.09-2.36,10.15-5.86-4.39-2.54-10.15,5.86L250,113.84Z"/>
      <path class="cls-3" d="M288.22,109.84l4.09,2.36-22.56,13-4.09-2.37Z"/>
      <path class="cls-3" d="M295.36,114l6.07,3.5c4.24,2.45,4.35,4.49.87,6.5l-1.38.8a8.93,8.93,0,0,1-7.13,1l-.06,0c1.49,1.5.49,2.85-2.06,4.32l-4,2.29a5.81,5.81,0,0,0-2.29,1.84l-4.17-2.41c.35-.46.56-.75,2.4-1.81l4.12-2.38c2.1-1.21,2.07-2,.21-3.09l-1.42-.81-9.67,5.58L272.8,127Zm-4.09,8.81a4.43,4.43,0,0,0,4.85,0l1.74-1c1.61-.93,1.68-1.7.23-2.54l-1.86-1.07-6.44,3.72Z"/>
      <path class="cls-3" d="M310.36,122.62l4.09,2.36-22.56,13-4.09-2.36Z"/>
      <path class="cls-3" d="M317.5,126.75l5.14,3-9.53,10.09.08,0,13.5-7.8,3.65,2.11-22.56,13-4.21-2.43,11.56-12.34-.07,0-16.47,9.51-3.65-2.11Z"/>
      <path class="cls-3" d="M315.88,145.68l11.86-6.85a11.35,11.35,0,0,1,11.78.25c4,2.32,4,4.72.43,6.8L338,147l-3.87-2.24,2.16-1.24c1.62-.93,1.41-1.76.11-2.51a4.07,4.07,0,0,0-4.35.06l-12.34,7.13c-1.61.92-1.38,1.73-.07,2.49a4,4,0,0,0,4.31-.05l4.42-2.55-2.05-1.18,3.22-1.86,5.92,3.42-7.38,4.26a11.35,11.35,0,0,1-11.78-.25C312.29,150.16,312.27,147.77,315.88,145.68Z"/>
    </g>
  </g>
</svg>
