<svg id="Ground" xmlns="http://www.w3.org/2000/svg" xmlns:xlink="http://www.w3.org/1999/xlink" viewBox="0 0 53 52"><defs><style>.cls-1,.cls-2,.cls-3{fill:#5f308b;}.cls-1{clip-rule:evenodd;}.cls-3{fill-rule:evenodd;}.cls-4{clip-path:url(#clip-path);}.cls-5{clip-path:url(#clip-path-2);}</style><clipPath id="clip-path"><path class="cls-1" d="M40.89,8.36H12.49a4.33,4.33,0,0,0-4.42,4.23V39.76A4.33,4.33,0,0,0,12.49,44h28.4a4.33,4.33,0,0,0,4.42-4.23V12.59a4.33,4.33,0,0,0-4.42-4.23m-5.62,4.86h3.89c.71,0,1.3.44,1.3,1v2.92c0,.53-.59,1-1.3,1H35.27c-.71,0-1.29-.44-1.29-1V14.19c0-.53.58-1,1.29-1M26.69,19.7c4,0,7.29,2.9,7.29,6.48s-3.27,6.47-7.29,6.47-7.29-2.9-7.29-6.47,3.27-6.48,7.29-6.48m14.2,21.05H12.49a1.15,1.15,0,0,1-1.18-1.11V22.94H16a6.43,6.43,0,0,0-.83,3.38c0,6,5.17,10.81,11.52,10.81s11.52-4.85,11.52-10.81a5.4,5.4,0,0,0-.91-3.38h4.73v16.7a1.15,1.15,0,0,1-1.18,1.11"/></clipPath><clipPath id="clip-path-2"><rect class="cls-2" x="-1561.19" y="-417.55" width="1658.32" height="6761.23"/></clipPath></defs><path class="cls-3" d="M40.89,8.36H12.49a4.33,4.33,0,0,0-4.42,4.23V39.76A4.33,4.33,0,0,0,12.49,44h28.4a4.33,4.33,0,0,0,4.42-4.23V12.59a4.33,4.33,0,0,0-4.42-4.23m-5.62,4.86h3.89c.71,0,1.3.44,1.3,1v2.92c0,.53-.59,1-1.3,1H35.27c-.71,0-1.29-.44-1.29-1V14.19c0-.53.58-1,1.29-1M26.69,19.7c4,0,7.29,2.9,7.29,6.48s-3.27,6.47-7.29,6.47-7.29-2.9-7.29-6.47,3.27-6.48,7.29-6.48m14.2,21.05H12.49a1.15,1.15,0,0,1-1.18-1.11V22.94H16a6.43,6.43,0,0,0-.83,3.38c0,6,5.17,10.81,11.52,10.81s11.52-4.85,11.52-10.81a5.4,5.4,0,0,0-.91-3.38h4.73v16.7a1.15,1.15,0,0,1-1.18,1.11"/><g class="cls-4"><rect class="cls-2" x="-1561.19" y="-417.55" width="1658.32" height="6761.23"/><g class="cls-5"><rect class="cls-2" x="-0.03" y="0.26" width="53.44" height="51.82"/></g></g></svg>