<svg xmlns="http://www.w3.org/2000/svg" xmlns:xlink="http://www.w3.org/1999/xlink" viewBox="0 0 422 396">
  <defs>
    <style>
      .cls-1 {
        fill: #fff;
      }

      .cls-2 {
        fill: #f2f2f2;
      }

      .cls-3 {
        fill: #666;
      }

      .cls-4 {
        fill: #4d4d4d;
      }

      .cls-5 {
        fill: #e6e6e6;
      }

      .cls-6 {
        fill: #f7f7f7;
      }

      .cls-7 {
        fill: #5ac7f2;
      }

      .cls-8 {
        fill: #f77781;
      }

      .cls-9 {
        fill: #e56777;
      }

      .cls-10 {
        fill: #e8e8e8;
      }

      .cls-11 {
        fill: #e3e5e5;
      }

      .cls-12 {
        fill: #3f3f3f;
      }

      .cls-13 {
        opacity: 0.49;
      }

      .cls-14 {
        clip-path: url(#clip-path);
      }

      .cls-15 {
        fill: #61d0f2;
      }

      .cls-16 {
        fill: #fbb03b;
      }

      .cls-17 {
        fill: #7ac943;
      }

      .cls-18 {
        clip-path: url(#clip-path-2);
      }

      .cls-19 {
        fill: #dd6271;
      }

      .cls-20 {
        fill: gray;
      }

      .cls-21 {
        fill: #8cc63f;
      }

      .cls-22 {
        opacity: 0.65;
      }

      .cls-23 {
        fill: #fc95a2;
      }

      .cls-24 {
        fill: #b3b3b3;
      }

      .cls-25 {
        fill: #febe00;
      }

      .cls-26 {
        fill: #343333;
      }

      .cls-27 {
        fill: #333;
      }

      .cls-28 {
        fill: #fe0723;
      }

      .cls-29 {
        fill: #343432;
      }

      .cls-30 {
        fill: #fefefe;
      }

      .cls-31 {
        fill: #db0019;
      }

      .cls-32 {
        fill: #ccc;
      }
    </style>
    <clipPath id="clip-path">
      <polygon class="cls-1" points="37.46 192.86 37.46 341.45 139.79 281.15 139.79 132.56 37.46 192.86"/>
    </clipPath>
    <clipPath id="clip-path-2">
      <polygon class="cls-2" points="277.48 148.84 283.89 145.13 275.28 140.25 268.87 143.95 277.48 148.84"/>
    </clipPath>
  </defs>
  <title>interfaces</title>
  <g id="isometric">
    <g>
      <polygon class="cls-3" points="18.12 315.8 159.63 395.56 159.63 393.51 18.12 314.38 18.12 315.8"/>
      <polygon class="cls-1" points="159.63 393.51 18.21 314.38 280.49 163.64 421.91 242.63 159.63 393.51"/>
      <polygon class="cls-4" points="159.63 393.51 422 242.63 422 244.69 159.63 395.56 159.63 393.51"/>
    </g>
  </g>
  <g id="stelling">
    <g>
      <polygon class="cls-5" points="327.11 250.26 339.33 257.92 362.48 253.2 368.51 248.88 347.81 238.31 327.11 250.26"/>
      <polygon class="cls-6" points="169.3 343.43 299.13 266.62 229.46 256.48 157.26 298.29 169.3 343.43"/>
      <polygon class="cls-5" points="145.43 349.49 158.88 352.4 208.06 321.35 201.16 317.9 145.43 349.49"/>
      <polygon class="cls-6" points="319.99 254.32 422 193.96 367.26 186 310.53 218.84 319.99 254.32"/>
      <g>
        <path class="cls-2" d="M282.92,27.2l36.38-21V218.75l-36.38,21Z"/>
        <g>
          <polygon class="cls-7" points="314.58 95.68 314.58 107.33 324.72 101.45 314.58 95.68"/>
          <polygon class="cls-7" points="314.58 44.93 314.58 95.68 324.72 101.45 334.32 95.88 324.72 101.45 335.09 107.34 324.72 101.45 314.58 107.33 314.58 145.21 326.86 152.17 314.58 145.21 314.58 257.49 350.97 236.48 350.97 23.92 314.58 44.93"/>
        </g>
        <polygon class="cls-1" points="319.4 5.68 351.07 23.41 314.33 44.95 282.67 27.21 319.4 5.68"/>
        <polygon class="cls-2" points="314.33 44.95 282.67 27.21 282.67 77.54 314.33 95.54 314.33 44.95"/>
        <polygon class="cls-4" points="282.67 77.54 282.67 125.84 314.33 107.47 314.33 95.54 282.67 77.54"/>
        <polygon class="cls-8" points="282.67 126.63 282.67 127.08 314.33 145.06 314.33 118.33 282.67 126.63"/>
        <polygon class="cls-9" points="314.33 107.47 282.67 125.84 282.67 126.63 314.33 118.33 314.33 107.47"/>
        <polygon class="cls-10" points="314.33 145.06 282.67 127.08 282.67 182.84 314.33 153.22 314.33 145.06"/>
        <polygon class="cls-2" points="282.67 182.84 282.67 240.02 314.33 257.75 314.33 153.22 282.67 182.84"/>
      </g>
      <g>
        <polygon class="cls-4" points="139.83 210.66 174.68 230.93 174.68 224.26 139.83 205.47 139.83 210.66"/>
        <polygon class="cls-8" points="174.68 224.26 140.8 208.35 282.67 126.02 314.12 144.7 174.68 224.26"/>
        <polygon class="cls-4" points="174.68 224.26 314.33 144.7 314.33 151.37 174.68 230.93 174.68 224.26"/>
      </g>
      <g>
        <polygon class="cls-10" points="140.64 69.43 104.26 48.42 104.26 79.15 93.93 79.15 93.93 89.96 140.64 156.7 140.64 69.43"/>
        <path class="cls-11" d="M93.93,301.66v5.4c21.85-1.51,40.54-16.16,56.09-32.19a33.48,33.48,0,0,1-3.43-4.26C129.6,281.51,112,292.23,93.93,301.66Z"/>
        <path class="cls-2" d="M140.64,248.73v-92L93.93,90v211.7c18.11-9.43,35.67-20.15,52.66-31.05C142.76,264.94,140.64,257.83,140.64,248.73Z"/>
        <path class="cls-2" d="M212.67,111l-35-20.19V132L175,133.62,173.73,216l.84,67.31c-3.11,3.58-8.41,2.69-15.4-1.34a40.55,40.55,0,0,1-9.15-7.05c-15.55,16-34.24,30.68-56.09,32.19V311h45.6v-9.7a125.27,125.27,0,0,0,19,13.36q5,2.91,9.6,5l-8.33,31.64,40.11-28.92,0,0c8.51-5,12.85-16.66,12.85-34.57V172.08l.24-61.26Z"/>
        <path class="cls-7" d="M66.26,247.87V71.23l36.38,21v179.3c0,16.54,7,26.5,18.53,33.19s18.52,4.74,18.52-11.8V113.62l35.07,20.25V310.51c0,50.57-18.53,47.53-54.25,26.9S66.26,284.92,66.26,247.87Z"/>
        <polygon class="cls-1" points="66.06 71.55 104.06 48.75 140.8 69.02 102.8 91.81 66.06 71.55"/>
        <polygon class="cls-1" points="139.53 113.35 177.53 90.55 213 110.81 175 133.62 139.53 113.35"/>
      </g>
      <g>
        <polygon class="cls-4" points="139.83 113.13 174.68 133.39 174.68 126.73 139.53 107.02 139.83 113.13"/>
        <polygon class="cls-8" points="174.68 126.73 139.53 107.02 168 91.28 320.67 6.95 352.13 25.64 174.68 126.73"/>
        <polygon class="cls-4" points="174.68 126.73 352.33 25.64 352.33 32.3 174.68 133.39 174.68 126.73"/>
      </g>
      <g>
        <polygon class="cls-4" points="67.33 66.48 67.63 72.59 117.33 100.74 117.53 94.57 67.33 66.48"/>
        <polygon class="cls-12" points="125.83 99.22 117.53 94.57 117.33 100.74 119.9 102.19 125.83 99.22"/>
        <polygon class="cls-4" points="175 126.73 125.83 99.22 119.9 102.19 175 133.39 175 126.73"/>
      </g>
      <g>
        <path class="cls-1" d="M203.64,81.82,206.91,80l17.83,10.51-3.27,1.85Z"/>
        <path class="cls-1" d="M209.35,78.59l4.1-2.32,13.85,4.49.06,0-10.67-6.29,2.91-1.65L237.44,83.3l-3.36,1.9-17-5.45-.06,0,13,7.67-2.91,1.65Z"/>
        <path class="cls-1" d="M227.14,71.46l-3.42,1.94-2.54-1.5,10.1-5.72,2.55,1.5-3.42,1.94,15.29,9-3.27,1.85Z"/>
        <path class="cls-1" d="M232.86,65.29l8.91-5.05,2.55,1.5-5.65,3.2,4.72,2.78,4.49-2.54,2.54,1.5-4.48,2.54,5.48,3.22,5.64-3.19,2.55,1.5-8.92,5Z"/>
        <path class="cls-1" d="M243.65,59.18l4.84-2.74c3.39-1.91,6.2-1.94,8.95-.32l1.09.64c1.84,1.08,2.33,2.16,1.38,3.28l0,0a6.89,6.89,0,0,1,5.94,1L269,62.91A7.72,7.72,0,0,0,271.56,64l-3.33,1.88a7.77,7.77,0,0,1-2.49-1.12l-3.26-1.92a3.64,3.64,0,0,0-4.24-.13l-1.13.64,7.64,4.5-3.27,1.85Zm12.1,2c1.22-.69,1.5-1.38.08-2.22l-1.38-.81A3.19,3.19,0,0,0,251,58l-1.49.84,5.1,3Z"/>
        <path class="cls-1" d="M255.62,52.41l8.65-4.9,2.55,1.5-5.38,3.05,5,2.92,4.22-2.38,2.55,1.5L269,56.48l7.77,4.58-3.27,1.85Z"/>
        <path class="cls-1" d="M267.43,45.73l4.42-2.51,21.23,8.59-3.27,1.85-4.14-1.75.05,0L282,54l2.9,2.4-3,1.71Zm15.49,5-10.28-4.36-.06,0,7.39,6Z"/>
        <path class="cls-1" d="M290.26,48.64,280.68,43c-2.75-1.62-2.72-3.53.43-5.31a8.94,8.94,0,0,1,9.2-.14l1.88,1.11-3.09,1.75L287,39.19a3.14,3.14,0,0,0-3.29,0c-1,.56-1.15,1.21,0,1.9l10,5.87A3.11,3.11,0,0,0,297,47c1-.56,1.17-1.2,0-1.89l-2.72-1.61,3.09-1.74,2.52,1.48c2.75,1.62,2.72,3.52-.43,5.31A8.94,8.94,0,0,1,290.26,48.64Z"/>
        <path class="cls-1" d="M288.14,34l8.92-5,2.55,1.5L294,33.66l4.71,2.77,4.49-2.54,2.55,1.51-4.49,2.53,5.48,3.23L312.35,38l2.55,1.5-8.92,5Z"/>
      </g>
      <polygon class="cls-8" points="182.6 86.75 106.42 43.78 67.52 66.59 144.35 109.58 182.6 86.75"/>
      <polygon class="cls-7" points="212.73 166.56 212.6 166.34 314.52 107.22 314.65 107.44 212.73 166.56"/>
      <g>
        <g>
          <g>
            <path class="cls-1" d="M111.17,137a2.08,2.08,0,0,0,1.21,1.89l16,6.05,2.21-2.94-7.08-5.43A44,44,0,0,0,111.17,137Z"/>
            <path class="cls-1" d="M114,130.93a6.91,6.91,0,0,0-2.91,5.51,4.83,4.83,0,0,0,0,.58,44,44,0,0,1,12.33-.43l-7.36-5.65A1.75,1.75,0,0,0,114,130.93Z"/>
            <ellipse class="cls-1" cx="129.46" cy="143.36" rx="1.96" ry="1.11" transform="translate(-53.43 205.53) rotate(-66.69)"/>
          </g>
          <g class="cls-13">
            <polyline class="cls-7" points="140.8 139.95 129.1 142.75 133.52 144.23 129.1 144.23 139.53 155.15"/>
          </g>
        </g>
        <g>
          <g>
            <polygon class="cls-4" points="33.36 339.07 37.46 341.45 37.46 192.86 33.36 190.56 33.36 339.07"/>
            <polygon class="cls-4" points="33.37 190.56 37.46 192.86 139.79 132.56 139.79 127.87 33.37 190.56"/>
            <g>
              <polygon class="cls-1" points="37.46 192.86 37.46 341.45 139.79 281.15 139.79 132.56 37.46 192.86"/>
              <g class="cls-14">
                <g>
                  <polygon class="cls-5" points="130.03 136.08 35.95 190.4 35.95 205.58 130.03 152.49 130.03 136.08"/>
                  <polygon class="cls-15" points="35.95 205.58 35.95 343.62 130.03 289.3 130.03 152.49 35.95 205.58"/>
                  <polygon class="cls-2" points="157.23 120.37 130.03 136.08 130.03 152.49 157.23 137.13 157.23 120.37"/>
                  <polygon class="cls-1" points="130.03 152.49 130.03 289.3 157.23 273.6 157.23 137.13 130.03 152.49"/>
                </g>
              </g>
            </g>
          </g>
          <polygon class="cls-4" points="37.46 321.56 37.03 341.38 129.82 286.75 129.82 268.09 37.46 321.56"/>
          <polygon class="cls-3" points="139.79 262.32 129.82 268.09 129.82 286.75 139.79 280.88 139.79 262.32"/>
        </g>
        <g>
          <g>
            <ellipse class="cls-3" cx="41.69" cy="197.4" rx="2.97" ry="1.68" transform="matrix(0.6, -0.8, 0.8, 0.6, -141.12, 112.06)"/>
            <polygon class="cls-3" points="43.24 194.9 44.27 195.49 44 198.73 40.8 200.31 39.99 199.82 40.75 196.57 43.24 194.9"/>
            <path class="cls-8" d="M44.76,196.61a4.62,4.62,0,0,1-2.23,3.52c-1.23.71-2.23.29-2.23-.94a4.63,4.63,0,0,1,2.23-3.52,1.81,1.81,0,0,1,1.58-.26A1.2,1.2,0,0,1,44.76,196.61Z"/>
          </g>
          <g>
            <ellipse class="cls-3" cx="48.54" cy="193.53" rx="2.97" ry="1.68" transform="translate(-135.3 115.99) rotate(-53.05)"/>
            <polygon class="cls-3" points="50.09 191.03 51.12 191.62 50.85 194.87 47.65 196.44 46.84 195.96 47.6 192.7 50.09 191.03"/>
            <path class="cls-16" d="M51.61,192.75a4.65,4.65,0,0,1-2.23,3.52c-1.23.71-2.23.28-2.23-1a4.65,4.65,0,0,1,2.23-3.52,1.83,1.83,0,0,1,1.58-.25A1.19,1.19,0,0,1,51.61,192.75Z"/>
          </g>
          <g>
            <ellipse class="cls-3" cx="55.39" cy="189.67" rx="2.97" ry="1.68" transform="translate(-129.48 119.93) rotate(-53.05)"/>
            <polygon class="cls-3" points="56.94 187.16 57.97 187.76 57.7 191 54.5 192.58 53.7 192.09 54.45 188.84 56.94 187.16"/>
            <path class="cls-17" d="M58.46,188.88a4.63,4.63,0,0,1-2.23,3.52c-1.23.71-2.23.29-2.23-.94a4.62,4.62,0,0,1,2.23-3.52,1.81,1.81,0,0,1,1.58-.26A1.19,1.19,0,0,1,58.46,188.88Z"/>
          </g>
        </g>
        <g>
          <polygon class="cls-4" points="108.36 239.5 57.2 269.04 57.2 217.87 108.36 188.33 108.36 239.5"/>
          <polygon class="cls-7" points="108.36 252.97 57.2 282.51 57.2 276.45 108.36 246.91 108.36 252.97"/>
          <path class="cls-1" d="M97.46,216.17,61.64,236.85a.27.27,0,0,1-.41-.24V233.2a.29.29,0,0,1,.14-.23l35.81-20.68a.28.28,0,0,1,.41.24v3.41A.25.25,0,0,1,97.46,216.17Z"/>
          <path class="cls-1" d="M97.46,226.27,61.64,247a.28.28,0,0,1-.41-.24V243.3a.29.29,0,0,1,.14-.23l35.81-20.68a.28.28,0,0,1,.41.24V226A.28.28,0,0,1,97.46,226.27Z"/>
          <path class="cls-1" d="M97.46,235.7,61.64,256.38a.28.28,0,0,1-.41-.24v-3.41a.29.29,0,0,1,.14-.24l35.81-20.67a.27.27,0,0,1,.41.23v3.41A.28.28,0,0,1,97.46,235.7Z"/>
          <polygon class="cls-8" points="120.48 181.33 120.48 232.5 129.9 227.17 129.9 176 120.48 181.33"/>
          <polygon class="cls-2" points="139.79 170.4 129.9 176 129.9 227.17 139.79 221.57 139.79 170.4"/>
        </g>
      </g>
      <path class="cls-2" d="M35.5,193.78a2.68,2.68,0,0,1,1.58-2.71l.16-.09c.71-.62,71.11-61.95,85.9-93.31l-.86-.4C107.77,128,39.13,188.06,36.68,190.2a3.65,3.65,0,0,0-2.13,3.58V339.36c0,.19-.34,1.89.68,2.4a1.32,1.32,0,0,0,.59.13,3,3,0,0,0,1.46-.52l-.93-.57c-.43.18-.63.14-.69.1-.25-.12-.27-.87-.17-1.45Z"/>
      <g>
        <g>
          <g>
            <polygon class="cls-4" points="280.52 151.89 280.52 153.06 272.24 153.06 272.24 151.83 280.52 151.89"/>
            <g>
              <ellipse class="cls-4" cx="276.38" cy="152.94" rx="4.14" ry="2.25"/>
              <ellipse class="cls-1" cx="276.38" cy="152.02" rx="4.14" ry="2.25"/>
            </g>
          </g>
          <g>
            <polygon class="cls-4" points="276.96 152.25 276.48 152.53 276.52 147.25 277.01 146.97 276.96 152.25"/>
            <polygon class="cls-8" points="276.52 147.25 277.01 146.97 275.59 146.08 275.11 146.35 276.52 147.25"/>
            <polygon class="cls-2" points="276.52 147.25 275.1 146.35 275.06 151.64 276.48 152.53 276.52 147.25"/>
          </g>
          <g>
            <polygon class="cls-2" points="283.89 145.43 277.48 149.17 277.48 148.84 283.89 145.13 283.89 145.43"/>
            <g>
              <polygon class="cls-2" points="277.48 148.84 283.89 145.13 275.28 140.25 268.87 143.95 277.48 148.84"/>
              <g class="cls-18">
                <polygon class="cls-1" points="278.27 148.4 273.73 141.09 274.85 140.19 283.89 145.07 278.27 148.4"/>
              </g>
            </g>
            <polygon class="cls-2" points="277.48 148.84 268.86 143.95 268.86 144.29 277.48 149.17 277.48 148.84"/>
          </g>
        </g>
        <g>
          <g>
            <polygon class="cls-3" points="298.74 152.72 290.1 157.63 290.1 150.31 298.74 145.42 298.74 152.72"/>
            <polygon class="cls-4" points="290.1 150.31 298.73 145.42 297 144.42 288.37 149.31 290.1 150.31"/>
            <polygon class="cls-4" points="290.1 150.31 288.37 149.31 288.37 156.63 290.1 157.63 290.1 150.31"/>
          </g>
          <g>
            <polygon class="cls-3" points="274.94 139.12 266.31 144.03 266.31 136.72 274.94 131.82 274.94 139.12"/>
            <polygon class="cls-4" points="266.31 136.72 274.94 131.82 273.2 130.82 264.57 135.71 266.31 136.72"/>
            <polygon class="cls-4" points="266.31 136.72 264.57 135.71 264.57 143.03 266.31 144.03 266.31 136.72"/>
          </g>
          <g>
            <polygon class="cls-3" points="300.87 146.96 291.2 152.68 291.2 150.15 300.87 144.75 300.87 146.96"/>
            <polygon class="cls-1" points="291.2 150.15 300.83 144.75 270.84 127.71 261.21 133.05 291.2 150.15"/>
            <polygon class="cls-4" points="291.2 150.15 261.17 133.05 261.17 135.57 291.2 152.68 291.2 150.15"/>
          </g>
        </g>
        <g>
          <g>
            <polygon class="cls-8" points="282.8 139.08 282.3 139.37 282.3 138.16 282.8 137.88 282.8 139.08"/>
            <polygon class="cls-5" points="282.3 138.16 282.8 137.88 278.59 135.42 278.08 135.69 282.3 138.16"/>
            <polygon class="cls-4" points="282.3 138.16 278.08 135.69 278.08 136.9 282.3 139.37 282.3 138.16"/>
          </g>
          <g>
            <polygon class="cls-4" points="284.71 139.51 284.42 139.68 284.42 129.18 284.71 129.02 284.71 139.51"/>
            <polygon class="cls-4" points="284.42 129.18 284.71 129.02 276.66 124.28 276.37 124.44 284.42 129.18"/>
            <polygon class="cls-7" points="284.42 129.18 276.37 124.44 276.37 134.94 284.42 139.68 284.42 129.18"/>
          </g>
          <g>
            <path class="cls-1" d="M278.68,127.88v-.13l.34.06-.34-.35v-.13l.5.51V128Z"/>
            <path class="cls-1" d="M278.57,128.12l-.15-.09-.46-1.41.16.09Z"/>
            <path class="cls-1" d="M277.86,127.41l-.5-.5v-.12l.5.07V127l-.34,0,.34.34Z"/>
          </g>
        </g>
        <g>
          <g>
            <polygon class="cls-4" points="283.89 141.61 280.82 143.44 280.82 143.1 283.89 141.31 283.89 141.61"/>
            <polygon class="cls-2" points="280.82 143.1 283.89 141.31 275.28 136.43 272.21 138.22 280.82 143.1"/>
            <polygon class="cls-4" points="280.82 143.1 272.21 138.22 272.21 138.55 280.82 143.44 280.82 143.1"/>
          </g>
          <g>
            <polygon class="cls-4" points="279.36 140.66 278.67 141.05 278.67 140.71 279.36 140.35 279.36 140.66"/>
            <polygon class="cls-2" points="278.67 140.71 279.35 140.35 275.76 138.34 275.08 138.7 278.67 140.71"/>
            <polygon class="cls-4" points="278.67 140.71 275.07 138.7 275.07 139.03 278.67 141.05 278.67 140.71"/>
          </g>
        </g>
        <g>
          <polygon class="cls-4" points="284.11 144.15 284.11 144.55 286.98 144.55 286.98 144.13 284.11 144.15"/>
          <g>
            <ellipse class="cls-4" cx="285.55" cy="144.51" rx="1.43" ry="0.78"/>
            <ellipse class="cls-7" cx="285.55" cy="144.19" rx="1.43" ry="0.78"/>
          </g>
        </g>
        <g>
          <polygon class="cls-19" points="277.54 148.7 277.25 148.87 277.25 138.41 277.54 138.25 277.54 148.7"/>
          <polygon class="cls-19" points="277.25 138.41 277.54 138.25 269.53 133.53 268.86 133.58 277.25 138.41"/>
          <polygon class="cls-1" points="277.25 138.41 268.86 133.58 268.86 144.35 277.25 148.87 277.25 138.41"/>
        </g>
        <g>
          <polygon class="cls-3" points="276.71 133.95 276.71 127.54 281.89 130.53 281.89 136.94 276.71 133.95"/>
          <polygon class="cls-1" points="284.11 138.22 281.89 136.94 281.89 130.53 284.11 131.82 284.11 138.22"/>
          <path class="cls-7" d="M281.17,135.35,277.09,133s-.06,0-.06,0h0a.1.1,0,0,0,.06.09l4.08,2.36s.06,0,.06,0h0A.13.13,0,0,0,281.17,135.35Z"/>
          <path class="cls-7" d="M279.77,132.22l-2.68-1.55s-.06,0-.06,0h0a.11.11,0,0,0,.06.09l2.68,1.55s.06,0,.06,0h0A.13.13,0,0,0,279.77,132.22Z"/>
          <path class="cls-7" d="M280.65,130.53l-3.56-2.06s-.06,0-.06,0h0a.11.11,0,0,0,.06.1l3.56,2.06a0,0,0,0,0,.06,0h0A.13.13,0,0,0,280.65,130.53Z"/>
          <path class="cls-20" d="M279.69,134.22l-2.28-1.32s-.06,0-.06,0h0a.11.11,0,0,0,.06.1l2.28,1.32a0,0,0,0,0,.06,0h0A.13.13,0,0,0,279.69,134.22Z"/>
          <path class="cls-20" d="M278.93,133.3l-1.52-.88s-.06,0-.06,0h0a.11.11,0,0,0,.06.1l1.52.88a0,0,0,0,0,.06,0h0A.13.13,0,0,0,278.93,133.3Z"/>
          <path class="cls-20" d="M279.33,133.17l-1.92-1.11s-.06,0-.06,0h0a.11.11,0,0,0,.06.1l1.92,1.11s.06,0,.06,0h0A.13.13,0,0,0,279.33,133.17Z"/>
          <path class="cls-20" d="M279.33,132.77l-1.92-1.11s-.06,0-.06,0h0a.11.11,0,0,0,.06.1l1.92,1.11a0,0,0,0,0,.06,0h0A.13.13,0,0,0,279.33,132.77Z"/>
          <path class="cls-20" d="M279.69,131.77l-2.28-1.31s-.06,0-.06,0h0a.12.12,0,0,0,.06.1l2.28,1.31s.06,0,.06,0h0A.15.15,0,0,0,279.69,131.77Z"/>
          <path class="cls-20" d="M278.93,130.85l-1.52-.87s-.06,0-.06,0h0a.12.12,0,0,0,.06.1l1.52.87s.06,0,.06,0h0A.15.15,0,0,0,278.93,130.85Z"/>
          <path class="cls-20" d="M279.33,130.73l-1.92-1.11s-.06,0-.06,0h0a.12.12,0,0,0,.06.1l1.92,1.11s.06,0,.06,0h0A.11.11,0,0,0,279.33,130.73Z"/>
          <path class="cls-20" d="M279.33,130.32l-1.92-1.1s-.06,0-.06,0h0a.12.12,0,0,0,.06.1l1.92,1.1s.06,0,.06,0h0A.15.15,0,0,0,279.33,130.32Z"/>
          <polygon class="cls-7" points="282.19 131.88 283.67 132.72 283.67 135.08 282.15 134.2 282.19 131.88"/>
        </g>
      </g>
      <g>
        <polygon class="cls-5" points="262.4 132.54 226.93 153.02 226.93 123.29 262.4 102.81 262.4 132.54"/>
        <polygon class="cls-8" points="232.67 125.71 229.02 127.82 229.02 124.17 232.67 122.06 232.67 125.71"/>
        <polygon class="cls-8" points="238.41 122.4 234.75 124.51 234.75 120.86 238.41 118.75 238.41 122.4"/>
        <polygon class="cls-21" points="259.27 110.36 255.62 112.46 255.62 108.81 259.27 106.7 259.27 110.36"/>
        <polygon class="cls-21" points="259.27 116.09 255.62 118.2 255.62 114.55 259.27 112.44 259.27 116.09"/>
        <polygon class="cls-16" points="244.14 119.09 240.49 121.2 240.49 117.55 244.14 115.44 244.14 119.09"/>
        <polygon class="cls-16" points="244.14 124.31 240.49 126.41 240.49 122.76 244.14 120.65 244.14 124.31"/>
        <polygon class="cls-16" points="244.14 129.52 240.49 131.63 240.49 127.98 244.14 125.87 244.14 129.52"/>
        <polygon class="cls-16" points="249.36 116.08 245.71 118.19 245.71 114.53 249.36 112.43 249.36 116.08"/>
        <polygon class="cls-8" points="232.67 131.45 229.02 133.56 229.02 129.91 232.67 127.8 232.67 131.45"/>
      </g>
      <g>
        <path class="cls-1" d="M287.71,107.66v-6.15l1.46-.85v6.25c0,.57.28.62.75.35a1.32,1.32,0,0,0,.74-1.21V99.8l1.41-.81v6.15a3.84,3.84,0,0,1-2.18,3.29C288.45,109.26,287.71,109,287.71,107.66Z"/>
        <path class="cls-1" d="M294.38,101.59l-1.61-3,1.55-.89,1,2,0,0,1-3.19,1.38-.79-1.61,4.87,1.69,3.14-1.54.89-1.07-2.19h0l-1.09,3.44-1.39.8Z"/>
      </g>
      <g>
        <rect class="cls-1" x="289.05" y="112.98" width="8.12" height="0.65" transform="matrix(0.87, -0.5, 0.5, 0.87, -17.36, 161.86)"/>
        <polygon class="cls-1" points="295.79 113 300.4 109.1 295.79 110.52 295.79 113"/>
      </g>
      <g class="cls-22">
        <polygon class="cls-15" points="212.67 111.01 212.67 202.82 314.33 145.02 314.33 53.92 212.67 111.01"/>
      </g>
      <polygon class="cls-5" points="130.77 223.77 130.55 223.33 138.01 219.6 138.01 174.55 130.77 178.17 130.55 177.73 138.51 173.75 138.51 219.9 130.77 223.77"/>
      <path class="cls-15" d="M117.09,276.86c.14.05.27,0,.37.18.21.34-.13,1-.12,1.48,0,1,1.7,1.15,2.48.17.41-.52.23-.92,1-3.28a5.78,5.78,0,0,1,1-2c.14-.17.47-.57.73-.62.74-.16.49,2.57.45,3-.33,3.58-1.53,5.2-1.71,8.49-.07,1.22-.14,2.5.52,2.54s2.11-1.45,2.49-2.66c.28-.91-.14-1.19-.49-2.24-.87-2.67,0-6.32.29-7.28a18.43,18.43,0,0,1,1.14-3.41c.88-2,1.74-3,1.62-3.36s-1.3.31-3,1.44c-6.46,4.26-7.06,5.21-7.2,5.78S116.59,276.68,117.09,276.86Z"/>
      <ellipse class="cls-15" cx="124.33" cy="299.4" rx="2.53" ry="1.37"/>
      <ellipse class="cls-15" cx="129.4" cy="298.13" rx="1.27" ry="0.69"/>
      <ellipse class="cls-2" cx="266.82" cy="313.26" rx="0.57" ry="0.32" transform="translate(-126.46 434.34) rotate(-66.69)"/>
      <ellipse class="cls-2" cx="266.82" cy="315.79" rx="0.57" ry="0.32" transform="translate(-128.78 435.87) rotate(-66.69)"/>
      <g>
        <g>
          <path class="cls-1" d="M112.44,119.29a2.06,2.06,0,0,0,1.21,1.89l16,6,2.21-3-7.07-5.42A44,44,0,0,0,112.44,119.29Z"/>
          <path class="cls-2" d="M115.3,113.19a7,7,0,0,0-2.92,5.52,3.56,3.56,0,0,0,.06.58,44,44,0,0,1,12.33-.43l-7.36-5.65A1.77,1.77,0,0,0,115.3,113.19Z"/>
          <ellipse class="cls-4" cx="130.73" cy="125.63" rx="1.96" ry="1.11" transform="translate(-36.37 195.98) rotate(-66.69)"/>
        </g>
        <g class="cls-13">
          <polyline class="cls-7" points="142.06 115.88 130.37 125.02 134.79 126.49 130.37 126.49 140.8 145.02"/>
        </g>
      </g>
      <ellipse class="cls-4" cx="121.86" cy="182.63" rx="1.6" ry="0.91" transform="translate(-94.08 222.28) rotate(-66.69)"/>
      <g>
        <ellipse class="cls-3" cx="123.07" cy="229.25" rx="0.73" ry="0.42" transform="translate(-134.12 189.81) rotate(-53.05)"/>
        <polygon class="cls-3" points="123.46 228.64 123.71 228.78 123.64 229.58 122.85 229.97 122.66 229.85 122.84 229.05 123.46 228.64"/>
        <path class="cls-23" d="M123.83,229.06a1.14,1.14,0,0,1-.55.87c-.3.18-.55.07-.55-.23a1.14,1.14,0,0,1,.55-.87.45.45,0,0,1,.39-.07A.31.31,0,0,1,123.83,229.06Z"/>
      </g>
      <g>
        <polygon class="cls-1" points="147.11 269.61 165.06 279.83 165.06 165.05 147.11 154.86 147.11 269.61"/>
        <polygon class="cls-4" points="165.06 165.05 147.11 154.86 150.72 152.78 168.66 162.96 165.06 165.05"/>
        <polygon class="cls-4" points="165.06 165.05 168.66 162.96 168.66 277.74 165.06 279.83 165.06 165.05"/>
      </g>
      <g>
        <polygon class="cls-3" points="163.08 75.49 117.32 101.54 117.32 93.14 163.08 67.18 163.08 75.49"/>
        <polygon class="cls-4" points="117.32 93.14 163.07 67.18 160.22 65.68 114.47 91.63 117.32 93.14"/>
        <polygon class="cls-4" points="117.32 93.14 114.46 91.63 114.46 100.02 117.32 101.54 117.32 93.14"/>
      </g>
      <g>
        <path class="cls-20" d="M167.4,276.57h0c-.65.37-1.18.15-1.18-.5V168.59a2.44,2.44,0,0,1,1.18-1.86h0c.64-.37,1.17-.15,1.17.5V274.71A2.46,2.46,0,0,1,167.4,276.57Z"/>
        <ellipse class="cls-24" cx="167.4" cy="167.91" rx="0.52" ry="0.3" transform="translate(-67.41 200.76) rotate(-53.05)"/>
        <ellipse class="cls-24" cx="167.4" cy="275" rx="0.52" ry="0.3" transform="translate(-153 243.48) rotate(-53.05)"/>
      </g>
      <path class="cls-1" d="M62.26,185.36h0a4.33,4.33,0,0,1,2.09-3.29L124,147.62c1.15-.66,2.08-.27,2.08.88h0a4.32,4.32,0,0,1-2.08,3.28L64.35,186.24C63.2,186.9,62.26,186.5,62.26,185.36Z"/>
      <g>
        <polygon class="cls-4" points="342.63 229.9 342.63 179.01 327.11 187.63 327.11 221.24 342.18 230.16 342.63 229.9"/>
        <polygon class="cls-2" points="342.18 230.16 327.11 221.24 327.11 238.49 327.11 238.53 342.18 230.16"/>
      </g>
      <g>
        <polygon class="cls-4" points="151.98 263.02 151.98 240.4 158.88 244.23 158.88 259.17 152.18 263.13 151.98 263.02"/>
        <polygon class="cls-7" points="152.18 263.13 158.88 259.17 158.88 266.86 152.18 263.13"/>
      </g>
      <g class="cls-22">
        <polygon class="cls-15" points="327.11 170.38 327.11 203.98 327.11 221.28 342.18 212.9 342.63 212.65 342.63 161.75 327.11 170.38"/>
      </g>
      <g>
        <path class="cls-25" d="M157,171.12a16.28,16.28,0,0,1,2,1.95c1.8,2.17,2.73,4.86,2.3,6.68s-2.13,2.45-4.23,1.54a10.78,10.78,0,0,1-5.76-7.42c0-.08,0-.16-.08-.25v-1.43c.27-1.93,1.45-2.58,3.37-2.24a10.66,10.66,0,0,1,1.08.44Z"/>
        <path class="cls-26" d="M156.61,179.48a7.46,7.46,0,0,1-3.72-5.38c0-.16-.13-.46.12-.36s.25.37.26.55a5.71,5.71,0,0,0,1.16,2.84,5,5,0,0,0,3.16,2.27,1.48,1.48,0,0,0,1.89-1.44c0-.05,0-.11,0-.15s0-.35.25-.19.14.3.14.43C159.84,179.6,158.45,180.49,156.61,179.48Z"/>
        <path class="cls-27" d="M158.63,175.39c0,.43-.35.58-.77.34a1.64,1.64,0,0,1-.78-1.27c0-.43.37-.56.8-.3A1.57,1.57,0,0,1,158.63,175.39Z"/>
        <path class="cls-27" d="M154.06,172.73c0-.43.35-.57.78-.32a1.54,1.54,0,0,1,.77,1.26c0,.42-.38.56-.8.3A1.63,1.63,0,0,1,154.06,172.73Z"/>
      </g>
      <g>
        <g>
          <polygon class="cls-4" points="308.13 21.77 308.13 25.67 335.73 25.67 335.73 21.55 308.13 21.77"/>
          <g>
            <ellipse class="cls-4" cx="321.93" cy="25.26" rx="13.8" ry="7.49"/>
            <ellipse class="cls-1" cx="321.93" cy="22.19" rx="13.8" ry="7.49"/>
          </g>
        </g>
        <g>
          <path class="cls-25" d="M315.54,18.31a8.76,8.76,0,0,0-2.28,1.91c-1.38,2-.44,4.35,2.37,5.87a15.19,15.19,0,0,0,10.54,1c4.47-1.22,6.34-4.21,4.24-6.79s-7.46-3.93-12.2-2.91c-.26.05-.45.21-.78.15Z"/>
          <path class="cls-28" d="M320.42,20.59a2.54,2.54,0,0,0,1.1.45,19,19,0,0,0,3.05.41c.35,0,.65,0,.74-.23a3,3,0,0,0,.35-2.11c-.22-.64-1.23-1-2.22-.77-.51.11-.87.31-.95.61s-.25.27-.66.24a1.87,1.87,0,0,0-1.55.46C320,20,320,20.27,320.42,20.59Z"/>
          <path class="cls-28" d="M314.44,22.79a3.38,3.38,0,0,0,1.55.6,26.59,26.59,0,0,0,2.72.33c.39,0,.66,0,.74-.28a3.87,3.87,0,0,0,.39-1.78c-.07-.61-.62-1-1.45-1.11a1.69,1.69,0,0,0-1.82.8c-.12.23-.36.11-.56.1a2.06,2.06,0,0,0-1.57.43A.55.55,0,0,0,314.44,22.79Z"/>
          <path class="cls-29" d="M325.15,25a4.24,4.24,0,0,0,2.67-2.29c.05-.15.15-.32-.22-.37s-.43.12-.48.27a3.36,3.36,0,0,1-1.82,1.78,8.61,8.61,0,0,1-4.25.76c-.35,0-1-.21-1,.14s.62.23,1,.26A10.06,10.06,0,0,0,325.15,25Z"/>
        </g>
      </g>
      <g>
        <path class="cls-25" d="M155.49,196.64a19.61,19.61,0,0,1-2-1.91c-1.79-2.16-2.73-4.85-2.29-6.67s2.12-2.45,4.22-1.55a10.71,10.71,0,0,1,5.78,7.59.7.7,0,0,0,.06.17v1.35c-.27,1.92-1.45,2.58-3.36,2.23a9.85,9.85,0,0,1-1.09-.43Z"/>
        <path class="cls-30" d="M156.21,192c1,.56,1.95,1.15,2.93,1.68.39.21.42.36.36.66-.39,2.19-2.9,2-5-.5a6.46,6.46,0,0,1-1.61-3.51c0-.26.09-.21.27-.1Z"/>
        <path class="cls-27" d="M155.44,189.77c0,.43-.34.59-.77.35a1.64,1.64,0,0,1-.78-1.23c0-.46.34-.61.78-.35A1.59,1.59,0,0,1,155.44,189.77Z"/>
        <path class="cls-27" d="M158.46,191.53c0,.42-.37.57-.79.32a1.59,1.59,0,0,1-.76-1.27c0-.42.37-.55.8-.29A1.59,1.59,0,0,1,158.46,191.53Z"/>
      </g>
      <g>
        <path class="cls-25" d="M161.29,210.21a4.57,4.57,0,0,1-.76,1.53c-1.13,1.14-3.28.84-5.35-.79a10.87,10.87,0,0,1-4-6.53c-.41-3,1.45-4.49,4.25-3.32a.3.3,0,0,0,.13,0l1.27.73a10.18,10.18,0,0,1,3,3.2,8.21,8.21,0,0,1,1.4,3.82Z"/>
        <path class="cls-27" d="M156.25,206.59c1,.57,2,1.15,3,1.71.27.15.33.27.29.51a1.59,1.59,0,0,1-2.06,1.55,5.64,5.64,0,0,1-3.5-2.65,6,6,0,0,1-1.08-2.86c0-.25.13-.14.27,0Z"/>
        <path class="cls-27" d="M156.91,205.19c0-.43.35-.57.78-.32a1.6,1.6,0,0,1,.77,1.27c0,.42-.39.56-.8.3A1.62,1.62,0,0,1,156.91,205.19Z"/>
        <path class="cls-27" d="M153.89,203.48c0-.44.31-.6.75-.37a1.62,1.62,0,0,1,.8,1.26c0,.43-.35.58-.77.34A1.62,1.62,0,0,1,153.89,203.48Z"/>
        <path class="cls-31" d="M156.23,207.91c.49.29,1,.59,1.47.85s.38.4.31.61c-.22.64-.73.82-1.49.52a3.69,3.69,0,0,1-1.81-1.79,1.63,1.63,0,0,1-.11-.23c-.14-.34-.33-.74-.18-.92s.43.18.66.3C155.47,207.46,155.85,207.69,156.23,207.91Z"/>
      </g>
      <g>
        <g>
          <polygon class="cls-4" points="337.72 256.95 346.58 262.31 346.58 258.99 337.72 253.92 337.72 256.95"/>
          <polygon class="cls-2" points="346.58 258.99 337.76 253.92 353.52 245.05 362.34 250.06 346.58 258.99"/>
          <polygon class="cls-4" points="346.58 258.99 362.38 250.06 362.38 253.37 346.58 262.31 346.58 258.99"/>
        </g>
        <g>
          <polygon class="cls-4" points="334.27 251.77 343.13 257.13 343.13 253.81 334.27 248.74 334.27 251.77"/>
          <polygon class="cls-2" points="343.13 253.81 334.31 248.74 350.06 239.87 358.89 244.88 343.13 253.81"/>
          <polygon class="cls-4" points="343.13 253.81 358.93 244.88 358.93 248.2 343.13 257.13 343.13 253.81"/>
        </g>
        <g>
          <polygon class="cls-4" points="330.82 246.6 339.68 251.95 339.68 248.64 330.82 243.57 330.82 246.6"/>
          <polygon class="cls-2" points="339.68 248.64 330.86 243.57 346.61 234.69 355.44 239.71 339.68 248.64"/>
          <polygon class="cls-4" points="339.68 248.64 355.48 239.71 355.48 243.02 339.68 251.95 339.68 248.64"/>
        </g>
        <g>
          <polygon class="cls-4" points="327.37 241.42 336.23 246.78 336.23 243.46 327.37 238.39 327.37 241.42"/>
          <polygon class="cls-2" points="336.23 243.46 327.41 238.39 343.16 229.52 351.99 234.53 336.23 243.46"/>
          <polygon class="cls-4" points="336.23 243.46 352.03 234.53 352.03 237.84 336.23 246.78 336.23 243.46"/>
        </g>
        <polygon class="cls-4" points="330.56 242.84 331.42 245.43 333.14 244.57 330.56 242.84"/>
        <polygon class="cls-4" points="334.01 248.02 334.87 250.61 336.6 249.75 334.01 248.02"/>
        <polygon class="cls-4" points="337.46 253.2 338.32 255.78 340.05 254.92 337.46 253.2"/>
      </g>
      <path class="cls-4" d="M142.31,195.63a16.36,16.36,0,0,1-14.59-8.8l.22-.12a16.14,16.14,0,0,0,16.26,8.56l0,.25A16.48,16.48,0,0,1,142.31,195.63Z"/>
      <g>
        <polygon class="cls-20" points="169.93 192.59 167.9 193.74 167.9 192.28 169.93 191.19 169.93 192.59"/>
        <polygon class="cls-4" points="167.9 192.28 169.92 191.19 167.9 190.13 165.89 191.21 167.9 192.28"/>
        <polygon class="cls-3" points="167.9 192.28 165.88 191.21 165.88 192.66 167.9 193.74 167.9 192.28"/>
      </g>
      <g>
        <polygon class="cls-2" points="170.43 190.36 152.05 200.81 152.05 199.45 170.43 189.07 170.43 190.36"/>
        <polygon class="cls-5" points="152.05 199.45 170.42 189.07 168.55 188.08 150.18 198.46 152.05 199.45"/>
        <polygon class="cls-32" points="152.05 199.45 150.18 198.46 150.18 199.81 152.05 200.81 152.05 199.45"/>
      </g>
      <g>
        <polygon class="cls-20" points="169.93 188.79 167.9 189.94 167.9 188.48 169.93 187.39 169.93 188.79"/>
        <polygon class="cls-4" points="167.9 188.48 169.92 187.39 167.9 186.33 165.89 187.41 167.9 188.48"/>
        <polygon class="cls-20" points="167.9 188.48 165.88 187.41 165.88 188.87 167.9 189.94 167.9 188.48"/>
      </g>
      <g>
        <ellipse class="cls-3" cx="167.14" cy="168.3" rx="1.01" ry="0.57" transform="translate(-67.83 200.71) rotate(-53.05)"/>
        <polygon class="cls-3" points="167.67 167.44 168.02 167.65 167.93 168.75 166.83 169.29 166.56 169.13 166.82 168.01 167.67 167.44"/>
        <path class="cls-1" d="M168.19,168a1.59,1.59,0,0,1-.77,1.2c-.42.24-.76.1-.76-.32a1.57,1.57,0,0,1,.76-1.2.62.62,0,0,1,.54-.09A.41.41,0,0,1,168.19,168Z"/>
      </g>
      <g>
        <ellipse class="cls-3" cx="167.14" cy="274.7" rx="1.01" ry="0.57" transform="translate(-152.86 243.15) rotate(-53.05)"/>
        <polygon class="cls-3" points="167.67 273.85 168.02 274.05 167.93 275.15 166.83 275.69 166.56 275.53 166.82 274.42 167.67 273.85"/>
        <path class="cls-1" d="M168.19,274.43a1.59,1.59,0,0,1-.77,1.2c-.42.25-.76.1-.76-.32a1.57,1.57,0,0,1,.76-1.2A.62.62,0,0,1,168,274,.41.41,0,0,1,168.19,274.43Z"/>
      </g>
      <g>
        <g class="cls-22">
          <path class="cls-15" d="M122.3,181.76h0a.34.34,0,0,0-.43,0,1.08,1.08,0,0,0-.53.83.28.28,0,0,0,.14.28h0l10.31,6,.84-1.13Z"/>
        </g>
        <g class="cls-22">
          <ellipse class="cls-15" cx="132.21" cy="188.33" rx="0.7" ry="0.4" transform="translate(-97.77 180.78) rotate(-53.05)"/>
        </g>
      </g>
      <g>
        <polygon class="cls-32" points="124.84 185.3 152.09 200.81 152.09 199.45 124.84 184 124.84 185.3"/>
        <polygon class="cls-5" points="152.09 199.45 124.85 184 126.72 183.02 153.96 198.46 152.09 199.45"/>
        <polygon class="cls-2" points="152.09 199.45 153.97 198.46 153.97 199.81 152.09 200.81 152.09 199.45"/>
      </g>
      <g>
        <polygon class="cls-20" points="94.07 82.96 92.06 84.14 93.33 84.87 95.28 83.66 94.07 82.96"/>
        <polygon class="cls-4" points="93.33 84.87 95.28 83.67 95.19 85.94 93.25 87.16 93.33 84.87"/>
        <polygon class="cls-4" points="93.33 84.87 93.25 87.16 91.98 86.44 92.06 84.14 93.33 84.87"/>
      </g>
      <g>
        <polygon class="cls-2" points="96.25 83.63 78.04 94.37 79.21 95.04 97.37 84.28 96.25 83.63"/>
        <polygon class="cls-5" points="79.21 95.04 97.37 84.29 97.29 86.4 79.14 97.16 79.21 95.04"/>
        <polygon class="cls-32" points="79.21 95.04 79.14 97.17 77.97 96.49 78.04 94.37 79.21 95.04"/>
      </g>
      <g>
        <polygon class="cls-20" points="97.37 84.86 95.36 86.04 96.62 86.77 98.58 85.55 97.37 84.86"/>
        <polygon class="cls-3" points="96.62 86.77 98.58 85.56 98.49 87.84 96.55 89.05 96.62 86.77"/>
        <polygon class="cls-4" points="96.62 86.77 96.55 89.06 95.28 88.33 95.36 86.04 96.62 86.77"/>
      </g>
      <g>
        <polygon class="cls-32" points="77.93 125.69 78.06 94.34 79.23 95.01 79.05 126.33 77.93 125.69"/>
        <polygon class="cls-5" points="79.23 95.01 79.06 126.33 80.84 125.2 81.03 93.89 79.23 95.01"/>
        <polygon class="cls-2" points="79.23 95.01 81.03 93.88 79.86 93.21 78.06 94.34 79.23 95.01"/>
      </g>
      <g>
        <path class="cls-4" d="M194,142l2.59-1.5c1.69-1,2.53-.64,2.53.85v4.73a4.36,4.36,0,0,1-2.53,3.77L194,151.37Zm2.56,6.53a1.52,1.52,0,0,0,.86-1.41v-4.86c0-.67-.32-.72-.86-.41l-.87.5v6.68Z"/>
        <path class="cls-4" d="M194.37,155.19l4.62-2.67v1.33l-2.93,1.7V158l2.33-1.35V158l-2.33,1.34v2.87l2.93-1.69v1.34l-4.62,2.67Z"/>
        <path class="cls-4" d="M194,175.88v-.53l1.61-.93v.64c0,.67.34.72.88.4a1.55,1.55,0,0,0,.88-1.44c0-.77-.34-1.07-1.45-1.27-1.42-.26-1.88-.76-1.88-1.82a4.46,4.46,0,0,1,2.52-3.79c1.65-.95,2.47-.57,2.47.93v.39l-1.6.92v-.48c0-.67-.31-.74-.85-.43a1.5,1.5,0,0,0-.85,1.38c0,.68.36,1,1.47,1.17,1.42.27,1.86.76,1.86,1.92a4.49,4.49,0,0,1-2.56,3.85C194.84,177.75,194,177.38,194,175.88Z"/>
        <path class="cls-4" d="M195.69,181.14l1.69-1v9.35l-1.69,1Z"/>
        <path class="cls-4" d="M194,202.58v-4.91a4.42,4.42,0,0,1,2.53-3.81c1.66-1,2.53-.61,2.53.89v.8l-1.61.92v-.89c0-.67-.34-.73-.88-.41a1.57,1.57,0,0,0-.88,1.42v5.12c0,.67.34.71.88.4a1.56,1.56,0,0,0,.88-1.42v-1.83l-.85.49V198l2.46-1.42v3.06a4.44,4.44,0,0,1-2.53,3.81C194.89,204.43,194,204.08,194,202.58Z"/>
        <path class="cls-4" d="M193.87,208.89l2.13-1.22,1.65,4.64,0,0V206.7l1.51-.88v9.35l-1.74,1-2-5.64h0v6.83l-1.52.87Z"/>
      </g>
    </g>
  </g>
</svg>
