<svg id="Layer_1" data-name="Layer 1" xmlns="http://www.w3.org/2000/svg" viewBox="0 0 31.2 31.2"><defs><style>.cls-1{fill:#5ac7f2;}.cls-2{fill:#fff;}</style></defs><title>facebook copy 2</title><path class="cls-1" d="M15.76.33c8.38.29,14.83,6.46,14.85,14.9A14.6,14.6,0,0,1,15.79,30.11,14.6,14.6,0,0,1,.89,15.21C.92,6.76,7.4.6,15.76.33ZM13.29,12.56v1.29c0,1.87,0,3.75-.06,5.63-.15,2.82-.19,2.79,2.6,2.7.81,0,1-.37,1-1.08,0-1.4,0-2.81,0-4.22a1.36,1.36,0,0,1,1.41-1.53c1,0,1.38.62,1.43,1.49s0,1.8,0,2.7c.07,3.06-.53,2.58,2.81,2.64.65,0,.91-.22.9-.88,0-1.68.06-3.37,0-5.05a3.74,3.74,0,0,0-4.83-3.65,7.64,7.64,0,0,0-1.45.6C15.9,12.08,14.61,12.77,13.29,12.56ZM8.6,17.34V20c0,2.29,0,2.26,2.31,2.15.64,0,.93-.25.92-.9,0-2.58,0-5.16,0-7.74,0-.7-.35-1-1-1-.39,0-.78,0-1.17,0-.83-.07-1.09.33-1.06,1.12C8.63,14.92,8.6,16.13,8.6,17.34Zm1.48-5.53A1.81,1.81,0,0,0,11.94,10,1.86,1.86,0,0,0,10,8.17,1.83,1.83,0,0,0,8.14,10,1.88,1.88,0,0,0,10.08,11.81Z"/><path class="cls-2" d="M13.29,12.56c1.32.21,2.61-.48,3.77.64a7.64,7.64,0,0,1,1.45-.6,3.74,3.74,0,0,1,4.83,3.65c.09,1.68,0,3.37,0,5.05,0,.66-.25.89-.9.88-3.34-.06-2.74.42-2.81-2.64,0-.9,0-1.8,0-2.7s-.42-1.52-1.43-1.49a1.36,1.36,0,0,0-1.41,1.53c0,1.41,0,2.82,0,4.22,0,.71-.16,1-1,1.08-2.79.09-2.75.12-2.6-2.7.1-1.88,0-3.76.06-5.63Z"/><path class="cls-2" d="M8.6,17.34c0-1.21,0-2.42,0-3.63,0-.79.23-1.19,1.06-1.12.39,0,.78,0,1.17,0,.67,0,1,.26,1,1,0,2.58,0,5.16,0,7.74,0,.65-.28.86-.92.9C8.6,22.3,8.6,22.33,8.6,20Z"/><path class="cls-2" d="M10.08,11.81A1.88,1.88,0,0,1,8.14,10,1.83,1.83,0,0,1,10,8.17,1.86,1.86,0,0,1,11.94,10,1.81,1.81,0,0,1,10.08,11.81Z"/></svg>