<svg id="Layer_1" data-name="Layer 1" xmlns="http://www.w3.org/2000/svg" viewBox="0 0 525.72 543.67"><defs><style>.cls-1{fill:#1a1a1a;}.cls-2{fill:#131313;}.cls-3{fill:#090909;}.cls-4{fill:#d3145a;}.cls-5{fill:#662d90;}.cls-6{fill:#fefefe;}.cls-7{fill:#592883;}.cls-8{fill:#7540a2;}.cls-9{fill:#be1057;}.cls-10{fill:#d11459;}.cls-11{fill:#d01458;}.cls-12{fill:#c91355;}.cls-13{fill:#ce1357;}.cls-14{fill:#cf1458;}.cls-15{fill:#d21459;}.cls-16{fill:#22030f;}.cls-17{fill:#21030e;}.cls-18{fill:#350516;}.cls-19{fill:#181717;}.cls-20{fill:#171616;}.cls-21{fill:#181616;}.cls-22{fill:#300415;}.cls-23{fill:#260310;}.cls-24{fill:#740a32;}.cls-25{fill:#920e3e;}.cls-26{fill:#2a0412;}.cls-27{fill:#3f051b;}.cls-28{fill:#e3c1ce;}.cls-29{fill:#ce809c;}.cls-30{fill:#f7d5b8;}.cls-31{fill:#f7d6b8;}.cls-32{fill:#e7cab6;}.cls-33{fill:#e5c9b5;}.cls-34{fill:#eeceb3;}.cls-35{fill:#f2d1b5;}.cls-36{fill:#f8f4f1;}.cls-37{fill:#730b33;}.cls-38{fill:#970e40;}.cls-39{fill:#f1f1f1;}.cls-40{fill:#381160;}.cls-41{fill:#391361;}.cls-42{fill:#391261;}.cls-43{fill:#3a1361;}.cls-44{fill:#3b1462;}.cls-45{fill:#3e1665;}.cls-46{fill:#3b1562;}.cls-47{fill:#3c1563;}.cls-48{fill:#3d1864;}.cls-49{fill:#3a1462;}.cls-50{fill:#391260;}.cls-51{fill:#401a66;}.cls-52{fill:#22030e;}.cls-53{fill:#100107;}.cls-54{fill:#441c6a;}.cls-55{fill:#46206c;}.cls-56{fill:#451d6b;}.cls-57{fill:#642c8f;}.cls-58{fill:#622b8d;}.cls-59{fill:#672f91;}</style></defs><path d="M485.3,342.61c3.23,2.79,3.72,6.65,3.52,10.46-.14,2.74.76,3,3,2.67,4.12-.57,8.3-.73,12.41-1.34,2.57-.38,3.39.19,3.35,2.94q-.78,55.44-1.29,110.89c0,3-1,3.94-3.88,4.25q-92.32,10-184.63,20.26-81.13,9-162.26,18-70,7.79-139.93,15.66c-6.32.71-6.38.7-6.32-5.77q.64-65.69,1.35-131.38c.11-9.89.21-10,10.1-11.23,13.38-1.62,26.79-3,40.2-4.42a17.44,17.44,0,0,0,6.66-1.84c8.8-4.67,17.61-9.31,26.48-13.85,2.07-1.06,3.28-2.27,3.6-4.77a124.26,124.26,0,0,1,2.54-13.22c.77-3.23-.43-3.68-3.23-3.11-4.69,1-9.43,1.73-14.68,2.67,1-10.07,2.3-19.74,4.09-29.35,6.14-32.76,14.72-64.79,29-95C125.89,192.9,139,172.56,158,156.68c2.5-2.08,1.68-3.63.72-5.88Q133.2,91,107.81,31.24c-.71-1.67-1.32-3.38-2.09-5.36,57.51-12.67,114.74-14.42,171.71.87C323,39,362,62,387,103c42.37,69.55,51.51,142.49,16.6,218.33-3.47,7.55-3.5,7.52,3.48,12.19,2.47,1.66,4.91,3.38,7.36,5.07-1.09,2.73,4.42,2.61,2.48,5.48-1.23,1.83-3.95,1.82-5.49,3.32-3.49,3.42-7.78,4.82-12.43,5.85-4.86,1.08-7.33,4.7-6.85,9,.58,5.19,3.59,8.1,9.05,7.93a77.07,77.07,0,0,1,15.14,1.46c6.92,1.12,14.31.2,20.61-4a7.17,7.17,0,0,1,5.55-1.43c9.47,1.58,18.53.89,26.34-5.56,1.82-1.51,4.06-1.26,6.18-1.55,8.59-1.17,10.76-4.15,9.53-12.79C484.35,345.09,483,343.41,485.3,342.61Z"/><path class="cls-1" d="M485.3,342.61c-.8,1,0,1.92.26,2.79,2.57,9.37-.39,14.11-10.06,15-3.29.3-5.48,1.68-8.22,3.28A34.15,34.15,0,0,1,443,367.75c-1.59-.32-2.68-1.07-4.5.11-8.53,5.54-17.69,7.51-27.5,3.51-3.46-1.42-6.75.57-10.22.31-6.12-.45-9.23-3-10.24-9.35A9.51,9.51,0,0,1,398,352c5-.93,9.45-2.31,13.11-6.11,1.26-1.31,3.56-1.6,5.57-2.43-.92-2.19-3.4-2.43-4.61-4.06.38-1.55,2,.53,2.4-.83,2,1.52,4.09,3.46,6.7,2.83,4.84-1.15,9.54-.44,14.31.15.3.64.68,1.15,1.44.6,7.73-5.5,16.7-5.19,25.54-5.5a9.32,9.32,0,0,1,5.27,2.75c3.95.75,7.79-.7,11.7-.62A8.3,8.3,0,0,1,485.3,342.61Z"/><path class="cls-2" d="M462.41,336.65c-4,1.65-8.33,1.11-12.48,1.81-4.46.75-8.81,1.48-12.13,4.76-1.28,1.26-2.39,1.22-3.35.18-.74-.81.88-1.08,1-1.85C443.71,336,452.86,335.22,462.41,336.65Z"/><path class="cls-3" d="M479.38,338.78c-3.94.7-7.88,1.4-11.82,2.05-.12,0-.47-.48-.44-.7s.36-.49.56-.73C471.54,338.46,475.41,337.65,479.38,338.78Z"/><path class="cls-4" d="M292.47,108.61l-8.19,9c-2,1.55-4.1.94-6.16.23A126.35,126.35,0,0,0,242.63,111a6.15,6.15,0,0,1-4.14-1.39l2.07-16.89a9.35,9.35,0,0,0,.28-4c.44,1-.12,2.08-1.26,2.93l-6.27,16.9c-4.51,2.6-9.65,2-14.44,2.25-8.27.43-16.38,1.74-24.55,2.81-1.94.26-3.89.9-5.82-.07a113.91,113.91,0,0,1-4.21-18.7c-.29-.25-.45-1-.83-.69a1.92,1.92,0,0,0-.17,2.44q.14,9,.29,18a30.33,30.33,0,0,1-14.29,4.28c-1.89-1.15-2.38-3.15-3-5-4.66-14.42-9.07-28.91-13.75-43.32-1.57-4.84-.68-6,4.37-6.24,8.33-.38,16.63.64,24.9,1.21A489.17,489.17,0,0,1,251,75.18c31.77,6.83,62.34,16.88,90.46,33.47,22.4,13.2,41.71,29.73,55,52.51a80.91,80.91,0,0,1,5.48,11.18,22.79,22.79,0,0,1,1.09,3.43c.66,1.15.55,2.6,1.38,3.68a185,185,0,0,1,5.8,57.31A193.48,193.48,0,0,1,389,316.11a25.89,25.89,0,0,1-1.63,2.44c-2.45,1.83-5.08,1.15-7.67.46-19.95-5.3-31.52-19.17-39-37.58-4.91-12.08-4.35-23.95-.33-36,12-.78,24,.51,36,1.26,1.35.93,2.62-.36,3.34,0-.25,0-.87-.48-1.53-.89l-36.84-10a5.07,5.07,0,0,1-.84-3.3,131.23,131.23,0,0,0-.51-25.22c-.31-2.87-.72-6,1.45-8.55,8.07-3.45,16.55-5.64,24.87-8.34.89-1.25,2.19-1.34,3.51-1.27a1.08,1.08,0,0,1,.83,0c-.35-.54-.74.12-1.13,0-1.77.27-3.57-.26-5.28.39l-24.82,2.2c-1.69-1.84-1.68-4.26-2.12-6.48-2-9.92-4.84-19.54-9.93-28.37-.75-1.29-1.51-2.59-.92-4.18l12-10.07a5.76,5.76,0,0,1,1.53-1.83c.62-.26-.14-.57-.21-.35-.35,1.13-1.65.59-2.43,1.11l-12.67,6.19c-1.95,1-3.15-.19-4.25-1.52-8.17-9.92-18.27-17.41-29.47-23.54-1.16-.63-3.05-1-2.52-3.09l5.15-9.79c.06-1.91,1.57-3.08,2.32-4.58a.5.5,0,0,0,.12-.7,4.49,4.49,0,0,1-.21.84A8.91,8.91,0,0,1,292.47,108.61Z"/><path class="cls-5" d="M169.42,166.56a75.06,75.06,0,0,1,22.94-12c6.49-1.84,12.86,0,19.23.74,16.92,2,33.47,5.64,49.26,12.22A48.73,48.73,0,0,1,273.19,175c7.1,5.88,9.05,13.08,6.34,21.9-5.19,16.86-10.73,33.6-16.78,50.17-4.28,11.69-8.77,23.31-13.16,35.58,3.48,0,6.18-1.31,9-1.78,13.17-2.24,23.55,2.26,31.25,13,5.85,8.15,8.88,17.48,10.5,27.26,1.37,8.32-7.09,19.07-15.08,19.57-2.66-10.77-3.9-21.8-5.85-32.7-.4-2.28-.64-4.61-1.22-6.84-1.88-7.25-10.35-13.37-19.68-6.5-7.72,7.75-15.82,15.33-21.72,24.52-10.63,16.55-21.89,32.6-35.12,47.13-6.47,7.1-13.89,13.42-23.32,16.61a7.43,7.43,0,0,0-4.24,4c-1.16,2.2-2.29,4.46-4.66,5.68-2.88.7-2.91-1.17-2.89-3.16.07-7.16,0-14.33.23-21.48.14-3.63-.9-4.63-4.57-3.88-6.33,1.29-6.27,1.06-5.2-5.61,3.19-19.85,6.35-39.71,9.3-59.59.55-3.74,1.56-5.63,5.75-6.56,15.57-3.49,31.14-7.26,45.06-15.56,10.72-6.4,14.1-14.34,10-23.57-3.18-7.1-9.41-10.51-16.57-12.46a28.91,28.91,0,0,0-15.79,0c-9.72,2.85-19.38,6-29,9.12-5,1.62-8.89,5.13-13.23,7.88-1.57-2.89,1-4.22,2.36-5.86,9.66-11.31,22.55-17.36,36.25-22,11.09-3.79,22.55-5.85,34.11-7.47a9.67,9.67,0,0,1,5,.18c-22.1-3.7-43,.78-66.31,9.37-3.9,1.44-7.74,3-12,3-7,0-9.88-2.69-9.71-9.6.18-7.48,2.86-14.34,6-21C154.26,191.19,161,178.38,169.42,166.56Z"/><path class="cls-5" d="M26.58,473.35c0-26,.1-51.94-.1-77.92,0-3.95,1.4-5.16,4.92-5.53q24.56-2.55,49.1-5.31c23-2.54,45.94-5,68.89-7.76,4.28-.51,6.47-.14,6.06,5.07-.52,6.46,0,13-.35,19.47-.18,3.74,1.32,4.55,4.67,4.15q22.51-2.73,45.06-5.24c18.66-2.11,37.29-4.86,56-6,17.09-1.06,33.94-3.76,50.92-5.51,16.69-1.72,33.4-3.3,50.08-5.14q59-6.5,117.9-13.18c3-.34,6-.36,8.91-1.07,3.79-.93,4.71.51,4.51,4-.92,16.63-.64,33.29-.77,49.93-.08,9.33-.5,18.67-.12,28,.19,4.55-1.65,5.73-5.52,6.1q-14.4,1.41-28.77,3.11c-24.91,2.91-49.8,5.95-74.71,8.8-16.18,1.85-32.39,3.43-48.58,5.2q-39.87,4.35-79.72,8.82c-14.82,1.68-29.73,2.23-44.56,4-40.24,4.9-80.52,9.42-120.8,14-20.32,2.31-40.68,4.31-61,6.72-3.75.44-3.28-1.52-3.28-3.7v-31Z"/><path class="cls-6" d="M401.58,173.5c-15.18-32.36-40.9-53.91-71.94-69.91-33-17-68.44-26.12-104.85-31.95a513.16,513.16,0,0,0-65.5-6c-2.12-.06-4.26,0-7,0l17.18,52.93c1.67,1.1,2,2.93,2.5,4.66,1.87,6.48,4.39,12.76,6.07,19.3.44,1.71,1.35,3.41.47,5.26-3.29,1.61-2.6-1.74-3.08-2.83-7.78-17.64-15.38-35.35-23-53-7.57-17.5-15.11-35-22.8-52.46-1.38-3.13-1.52-4.3,2.58-5a471.47,471.47,0,0,1,68.4-6.94c4.33-.12,6,1,6.53,5.44,1,8.36,2.67,16.65,4.28,26.25,4.41-10.09,8.47-18.8,12-27.73,1.33-3.36,3.44-2.89,5.89-2.7,3.33.26,2.12,2.71,2.14,4.51.05,3.46,0,6.91,0,11.22,2.83-4,5.51-7.52,7.81-11.24,1.45-2.34,3.13-3,5.77-2.57C321,42.62,379.79,88.56,402.3,169.47a11.65,11.65,0,0,1,.21,2C402.88,172.44,403.45,173.52,401.58,173.5Z"/><path class="cls-7" d="M285.27,340.64c6.71-2.71,10.88-7.87,13.73-14.29,1.26-2.85,0-5.59-.61-8.29A69.4,69.4,0,0,0,290,296.38c-9.3-15.2-24.68-17.48-38.5-12.34-1.14.43-2.34,2-3.55.73s.26-2.46.7-3.64C259,253.45,269.44,225.8,278,197.49c3.44-11.44.42-18.56-9.9-24.64-13.39-7.9-28.24-11.34-43.24-14.21a289.93,289.93,0,0,0-32.46-4.1c21.26-8.71,42.6-8.29,63.41.87,34.89,15.36,54.36,42.3,58.88,80.25a291.52,291.52,0,0,1,1.67,47.79c-.74,16.16,6.22,27.4,19.95,35.06a24.23,24.23,0,0,1,2.05,1.5l-50.67,21.66C286.49,342.16,285.35,342.63,285.27,340.64Z"/><path class="cls-8" d="M169.42,166.56c1.18,2-.77,2.92-1.53,4.22-9.31,15.86-19.32,31.4-23.85,49.57-.08.32-.26.62-.33.94-2.14,10.24,2.64,14.78,12.74,11.7,8.4-2.56,16.51-6,25-8.31,15.14-4.07,30.43-6.22,46.11-4a32,32,0,0,1,4.11,1.17c-2.81,2.44-6.08,1.44-8.94,2.11-3.05.71-6.18,1.08-9.26,1.66-17.56,3.3-34.6,8.11-49.07,19.14-4.65,3.53-9.5,7.22-11.92,13-10.95,9.95-14.81,23.46-17.87,37.09-1.76,7.85-5,12.58-13.49,13.45a70.61,70.61,0,0,0-14.48,3.57c-3.9,1.27-4.81.16-3.94-3.52,3-12.57,5.5-25.26,8.93-37.7,7.81-28.27,18.06-55.56,35.08-79.79C153.13,181.66,159.92,172.82,169.42,166.56Z"/><path class="cls-7" d="M169.46,392.51c1.55-2.74,3.14-5.46,4.64-8.23a4.38,4.38,0,0,1,2.53-2.26c14-4.41,23-15,32-25.7,10.72-12.7,19.47-26.76,28.9-40.37,5.24-7.56,11.9-14.23,18.74-20.54a6.56,6.56,0,0,1,2.28-.81,31,31,0,0,0-6,19.62q.48,18.18,1,36.37c.33,11.18-3.09,21.23-8.86,30.66a6.75,6.75,0,0,1-5.45,3.67c-10.23,1-20.43,2.28-30.65,3.4Q189,390.45,169.46,392.51Z"/><path class="cls-9" d="M340.42,245.44c.35,5.36-1.52,10.46-1.9,15.7-.92,12.84,4.21,24,11,34.34C357,306.93,367.09,315.2,381,318a43.48,43.48,0,0,0,6.4.57c-3.65,8.27-8.85,15.57-14.19,22.78-1.06,1.44-2,2.44-4,1.05-6.79-4.76-13.67-9.38-21.08-14.43l25.07-10.9c-6.89-1.37-12.42-2.38-17.91-3.58-9.07-2-17.61-5.07-23.5-12.88a22.21,22.21,0,0,1-4.49-14c.09-12,.19-23.95-.09-35.92-.08-3.47.95-5,4.27-5.06C334.44,245.57,337.43,245.51,340.42,245.44Z"/><path class="cls-9" d="M288.4,119.53c6,4.25,12.77,7.39,18.62,12a95.53,95.53,0,0,1,14.42,14.15,4.48,4.48,0,0,0,3.2,2c-10.24,5.52-20.5,11-30.69,16.61-1.9,1-2.94.19-4.34-.88-4.34-3.35-8.66-6.79-13.3-9.69-2.55-1.59-2.9-3-2-5.64A152.61,152.61,0,0,1,288.4,119.53Z"/><path class="cls-9" d="M238.49,109.59c13.25-.32,26,2.34,38.56,6.34,2.37.75,4.63,1.93,7.23,1.64q-10.83,12.68-21.63,25.37c-1.35,1.6-2.73,2.17-4.76,1.29a90.67,90.67,0,0,0-19.1-5.48c-1.84-.34-2.48-1.13-2.49-2.93C236.23,127,236.59,118.23,238.49,109.59Z"/><path class="cls-9" d="M188.5,113.57c7.36-2.45,15.11-2.81,22.69-3.84,7.29-1,14.74-.82,22.12-1.15q-4.51,13.19-9,26.4a3.44,3.44,0,0,1-3.72,2.58,78.3,78.3,0,0,0-20.71,2.82c-2.36.6-3.68.07-4.55-2.36A145.18,145.18,0,0,1,188.5,113.57Z"/><path class="cls-9" d="M326.46,152.63a88.61,88.61,0,0,1,13,39c-7.54,1-15.09,1.9-22.61,3-2.29.32-3.17-1-4.17-2.64a97,97,0,0,0-7.25-11.27c-2.49-3.11-2.21-5.57.13-8.36A128.57,128.57,0,0,1,326.46,152.63Z"/><path class="cls-9" d="M341.45,198.71c-.74,7.64,1.28,15.15,1,22.78-.16,4.79.17,9.6-1.13,14.29-4.5-1.08-9-2.26-13.49-3.2-2.1-.43-2.55-1.81-2.83-3.51a99,99,0,0,0-4.16-17.84c-1-2.66.71-3.68,2.45-4.65A84.83,84.83,0,0,1,341.45,198.71Z"/><path class="cls-9" d="M178.55,147.8q-4.53-14.61-9-29.22a52.86,52.86,0,0,1,14.07-4c1,8.18.44,16.45,1.13,24.63C185.14,144.34,183.41,147,178.55,147.8Z"/><path class="cls-10" d="M338.18,379.41c-4.42,1.13-4.4-3.64-7-5.4-1.52,1.33-.63,3.11-.95,4.56-.39,1.75-1.76,1.71-3.08,1.83-1.81.17-1.68-1.12-1.69-2.27,0-1.49,0-3,0-4.46,0-10.06,0-10.06,10-11.27,4.15-1.31,5.16.86,5.35,4.49s-1.68,7-.29,10.68C341.1,379.12,339.06,378.88,338.18,379.41Z"/><path class="cls-11" d="M309,382.22c-5.67,3.69-6.11-2.11-8.76-4.26-1.55,1.4-.67,3.18-1,4.63-.4,1.75-1.79,1.71-3.11,1.81-1.84.15-1.65-1.21-1.65-2.33,0-4,.17-8,.12-12,0-1.94.83-2.65,2.65-2.76,1.48-.08,2.95-.43,4.43-.63,6.88-.89,9.76,2.23,6.78,8.6C307,378.34,307.85,379.93,309,382.22Z"/><path class="cls-10" d="M279.53,368.6l1.48-.17C294.2,367,294.1,367,293.51,380.3c-.13,3.07-1.44,4-4.17,4.2-3.29.22-6.56.67-9.84,1A21,21,0,0,1,279.53,368.6Z"/><path class="cls-12" d="M278.47,385.56c-5,2.75-6.92-1.19-8.91-4.49-.54.33-.94.43-1,.64-.78,2.14,1,6.25-3.43,5.58-3.28-.49-1.43-3.72-1.61-5.67-.28-2.95.07-6,.07-8.94,0-1.77,1-2.22,2.52-2.3,1.29-.07,2.13.1,2.4,1.7.23,1.38-1.41,3.95,2.14,3.7s2.37-2.82,2.63-4.72c.07-.49.12-1,.18-1.48,3.79-1.51,5,.1,5,3.81C278.5,377.45,277.43,381.51,278.47,385.56Z"/><path class="cls-10" d="M368.75,369.67c-2.32,2.2.58,7.08-3.68,6.48-3.94-.55-1.52-4.56-1.89-7s.09-5,.09-7.47c0-1.75.93-2.27,2.51-2.31s1.88.92,2,2.21c.13,1.51-.53,3.49,2.39,3.21,2.43-.23,2.57-1.64,2.42-3.41-.18-2.08.62-3,2.8-3.09,2.52-.06,2.21,1.74,2,3.07-.42,2.61,1.51,5.65-1.47,7.83-.79.58-.09,1.47.06,2.26.2,1.13,2.84,2.37,0,3.48-1.85.73-3.52.82-4.63-1.36A42.23,42.23,0,0,0,368.75,369.67Z"/><path class="cls-13" d="M347.48,373.59c1-.07,2-.21,3-.2,4.58,0,7.23-1.58,6.15-6.76a21.24,21.24,0,0,1,0-4c0-1.77,1.05-2.16,2.56-2.31,1.86-.18,2.3.77,2.29,2.34,0,3.83-.06,7.66,0,11.49,0,2.47-1.51,3.06-3.51,3.26-3.48.35-6.95.72-10.42,1.08A3.31,3.31,0,0,1,347.48,373.59Z"/><path class="cls-14" d="M314.48,377.57c.22-1.79.47-3.26.56-4.74s-.15-3.18-2.38-2.68c-1.85.41-2.36-.39-2.39-2,0-1.47.2-2.56,2-2.71,3.29-.28,6.57-.7,9.86-1,1-.1,2.09,0,2.18,1.33.06,1.08.58,2.78-.92,2.93-4.89.51-3.7,4.06-3.82,7,0,.66-.06,1.32-.12,2-.14,1.85.62,4.24-2.67,4.11C313.28,381.57,315.25,378.78,314.48,377.57Z"/><path class="cls-15" d="M344.26,379.42l-2.77.1c-2.16-5.64-1.56-11.28,0-16.91a3.5,3.5,0,0,0,.9-.23c1.29-.36,3.25-.7,3.26.85,0,5,1.15,10,.09,15C345.64,378.87,344.89,379.2,344.26,379.42Z"/><path class="cls-16" d="M341.52,362.61c-.16,5.64-.62,11.27,0,16.91l-3.31-.11c.41-.29,1.18-.81,1.16-.83-2.58-4.11.61-8,.45-12.1-.14-3.35-1.26-4.46-4.35-4.08C337.53,360.73,339.53,361.58,341.52,362.61Z"/><path class="cls-17" d="M278.47,385.56c-1.62-2.27-3-3.93-1.11-7.43,2.46-4.52,0-8.46-3.91-8.55,1.77-1.9,4-.78,6.08-1-.18,5.64-.63,11.28,0,16.92Z"/><path class="cls-18" d="M344.26,379.42c2.35-5,1-10.25,1.18-15.39.06-2-1.9-1.27-3-1.65,2.56-1.54,3.87-1.08,4.13,2.15.23,3-1.1,6.23.93,9.06l0,4.91C346.46,378.92,345.51,379.72,344.26,379.42Z"/><path class="cls-19" d="M83.93,365.37l13.42-6.77.6,1.13L84.6,366.51C84.37,366.13,84.15,365.75,83.93,365.37Z"/><path class="cls-20" d="M68.23,373.68l10.25-5.14C75.82,371.79,72.21,373.08,68.23,373.68Z"/><path class="cls-21" d="M103,355.29l8.63-4.3c-2.12,3-5.27,4-8.15,5.49Z"/><path class="cls-22" d="M337.31,141.49l5.28-3.1a7.76,7.76,0,0,1-4.17,4.17Z"/><path class="cls-23" d="M296.9,104.54q-1.68,2.59-3.35,5.2l-1.08-1.13,3-4A1,1,0,0,1,296.9,104.54Z"/><path class="cls-24" d="M378.19,245.77a4,4,0,0,1,3.67,1.51c-2.09.45-3.82.55-5.48-.58Z"/><path class="cls-25" d="M183.29,96.62c-1-1.41-1.73-3.1.06-4.1.69-.39,1.08,1.32.94,2.35Z"/><path class="cls-26" d="M364.25,189.46c1.93-1.23,4.1-.8,6.19-.9.25.23.32.45.22.67s-.18.31-.27.31l-4.07.83Z"/><path class="cls-27" d="M239.58,91.68l1.28-4a4.7,4.7,0,0,1-.3,5.06Z"/><path class="cls-28" d="M401.58,173.5l.93-2.05c1.25,1.07.87,2.59,1.11,3.94.4,1.07-.12,1.27-1,1.1C402.25,175.5,401.91,174.5,401.58,173.5Z"/><path class="cls-29" d="M402.58,176.49l1-1.1c1,1.21,1,2.63.79,4.07C403.08,178.92,403,177.58,402.58,176.49Z"/><path class="cls-30" d="M442.65,356.54c-1.75-9.28-1.46-9.68,7.75-11.12,1.15-.17,2.27-.5,3.41-.68,9.05-1.38,12.58,2.63,10.31,11.72a4.05,4.05,0,0,0-3.58-.14c-3.8,1.72-8,2-12.14,2.4C446.2,359,444.08,358.54,442.65,356.54Z"/><path class="cls-31" d="M416.33,351.46c2.51-1.48,5.42-1.14,8.12-1.64,8.3-1.55,11,1,10.83,9.7-3.86,1.17-7.38,3.2-11.56,3.7-3.83.45-7.45.63-11.08-.71-.52-2.67-2.26-5.28-.36-8.05C414.6,354.77,416.28,354.21,416.33,351.46Z"/><path class="cls-32" d="M412.64,362.51c3.72-.88,7.49.55,11.36-.7,3.05-1,6.44-.75,9-3.25,1.17-1.13,1.48.69,2.27,1-.27,3.08-2.18,4.62-5,5.16-3.38.65-6.79,1.21-10.19,1.77S414,366,412.64,362.51Z"/><path class="cls-33" d="M442.65,356.54c6.37,2.33,12.86.78,18.29-1.82,3.79-1.81,2.15,1.33,3.18,1.74a4.68,4.68,0,0,1-4,3.16c-3.73.65-7.45,1.43-11.21,1.86C445.35,361.87,442.6,360.86,442.65,356.54Z"/><path class="cls-34" d="M471.42,349c-.09-3.86,3-2.86,4.64-3.12,2.83-.46,4.18,1.59,4.24,4.26.09,4.24-3.6,4.13-6,4.2C470.3,354.44,472.92,350.37,471.42,349Z"/><path class="cls-35" d="M401.46,365.69c-3.27.38-4.42-1.46-4.48-4.06-.08-3.7,2.75-4.22,5.45-4.11,3.91.17,2.23,3.73,2.74,5.67C406.09,366.75,402.66,365,401.46,365.69Z"/><path class="cls-36" d="M416.33,351.46c1.75.34,2.48,1.27,1,2.62s-3.14,3.17-5,.38C412.89,352.46,414.38,351.66,416.33,351.46Z"/><path class="cls-37" d="M296.9,104.54l-1.4.11c.65-.88,1.31-1.75,2-2.67C298.72,103.35,297.63,103.89,296.9,104.54Z"/><path class="cls-38" d="M370.39,189.54a1.92,1.92,0,0,0,.05-1c.69-.81,1.83-1.53,2.22-.26C372.94,189.21,371.44,189.58,370.39,189.54Z"/><path class="cls-39" d="M106.45,458.47c3.64.57,5.28-.33,5.28-4.65,0-18.14.53-36.27.65-54.41,0-3,.81-4,3.81-4.18,6.13-.41,12.25-1.15,18.34-2,2.26-.33,3.09.26,3.09,2.4,2.73,5.55,1.68,11.53,1.22,17.18-1.54,18.64-.4,37.29-.81,55.93-.06,2.67,0,5.33-.12,8-.19,3-1.56,4.8-4.76,5.39-7.85,1.45-15.8,1.88-23.69,2.86-11,1.37-22,2.48-33.08,3.74-9.22,1.05-18.46,1.95-27.68,3a4,4,0,0,1-3.26-1c-8,.9-8,.89-8-7.25.3-25.24.72-50.49.91-75.74,0-3.21.93-4.23,4.14-4.4,6-.34,11.89-1.2,17.82-1.91,1.78-.21,3.37-.37,3.29,2.15,2.7,7.59,1.5,15.4.89,23.06-.81,10.29-.19,20.55-.54,30.81-.14,4.13,2.9,4.18,5.48,5,4.28.87,5.23-1.06,5.24-5.13.07-18.1.51-36.2.71-54.3,0-2.35.42-3.53,3.18-3.72,6.28-.42,12.55-1.21,18.81-2,2-.25,3.27-.13,3.23,2.24,2.65,7.25,1.5,14.73.89,22.06-.87,10.6-.15,21.2-.56,31.78C100.81,457.68,104.1,457.38,106.45,458.47Z"/><path class="cls-39" d="M474.35,405.7c.38.95.75,1.91,1.12,2.86a4.5,4.5,0,0,1,.85,3.29c-.68,8.28-.21,16.58-.35,24.87-.12,7.26-.64,7.53-7.84,8.39-9.51,1.14-19,2.29-28.54,3.26-1.83.18-3.6.74-5.19-.64a6.31,6.31,0,0,0-4,.71c-3,2-4.57.58-5.26-2.39-.48-2.08-.78-4.2-1.06-6.32-.08-8.2.61-9.11,8.66-10.23,7.16-1,14.4-1.34,21.5-2.81-7,.34-13.86,1.19-20.77,2s-8.36-.49-8.45-7.35c-.08-5.66.11-11.31-.13-17,.33-3.61-.88-7.42,1.35-10.78,0-1.87.62-2.86,2.83-3.09,14.29-1.5,28.56-3.2,42.84-4.8,1.57-.18,3.44-.72,3.58,1.9,2.27,4.06,1.52,8.38.8,12.58-.51,3-3.15,3.47-5.75,3.78-8.06,1-16.16,1.53-24.12,3.29,6.12-.18,12.17-1.2,18.25-1.69C467.9,405.31,471.17,403.88,474.35,405.7Z"/><path class="cls-39" d="M373.39,399.56c.05-2.65,1.75-3,4-3.26,13.54-1.46,27.08-2.95,40.6-4.67,3.85-.5,5.12.61,4.55,4.41a31.32,31.32,0,0,0,.11,5.47c1.57,1.85,1.14,4.11,1.17,6.23.07,4.83,0,9.66,0,14.49.06,3.94-.31,7.35-5.34,8-2.57.33-2,2.16-1.06,3.76,2,3.47,4.23,6.8,6.08,10.34,2,3.81,1.47,4.8-2.73,5.95a19.75,19.75,0,0,1-9.39.22c-4.54,1-7.21-1-9.14-5.06-1.52-3.21-3.74-6.09-5.66-9.12-1.75-.24-2.56-3.34-4.63-1.95-1.66,1.11-1.06,3.35-1.12,5.15-.07,2.33,0,4.66,0,7-.14,7.1-3.14,9.19-10.34,7.22a6.12,6.12,0,0,0-4,.72c-1.83,1.28-3.1.61-3.94-1.22a8.34,8.34,0,0,1-.63-3.39q-.19-22.83,0-45.66A6.54,6.54,0,0,1,373.39,399.56Z"/><path class="cls-39" d="M235.41,469.72a17.07,17.07,0,0,0-3.38.35c-3.41,1.07-5.43-.1-7.05-3.27-1.85-3.62-4.25-7-6.41-10.43a6.12,6.12,0,0,1-2-1.4c-2.57-2.25-3.42-.74-3.62,1.76-.21,2.78-.06,5.59-.08,8.38-.06,8.47-2.69,10.45-11.35,8.58-6.33-.14-6.33-.14-6.33-6.79q0-13.66,0-27.32a33.24,33.24,0,0,1,.09-20c0-2.1.89-3.27,3.18-3.51,14.48-1.52,28.95-3.07,43.41-4.76,2.13-.25,2.64.55,2.72,2.3a3.83,3.83,0,0,1,1,2.24c.15,9.63.92,19.27-.63,28.86-.39,2.43-1.13,4.57-4,5.05-3,.51-2.81,2.13-1.56,4.26,2.12,3.58,4.33,7.1,6.22,10.81,1.53,3,.87,4.85-2.6,5.08C240.53,470.08,237.91,471.77,235.41,469.72Z"/><path class="cls-39" d="M247.6,449.71c1.11-11.38.76-22.79.71-34.19,0-3.57.52-5.23,4.53-5.6,13.36-1.22,26.68-2.9,40-4.3,1.72-.18,4.19-1.25,4.64,2a4,4,0,0,1,1,3.22c-1.32,9.05-.4,18.17-.72,27.24-.1,2.88-.76,5.25-4.12,5.81-3,.51-2.68,2.22-1.52,4.31,2.4,4.32,5.47,8.29,6.88,13.14a2.69,2.69,0,0,1-.58,1.58c-2.92,1.35-5.83,2.85-9.06.86-8.22,2.86-12.12-1.84-15-8.47a25.27,25.27,0,0,0-2.74-4c-2-.39-2.54-4-4.61-3s-1,3.9-1.15,6c-.12,1.81,0,3.63,0,5.45-.15,7.51-3.78,10.07-11.32,8-1.78,0-3.6-.38-5.26.63-1.94,1.23-2.21-.46-2.66-1.6-.87-2.21-.58-4.56-.62-6.86.35-2.93-.34-5.92.54-8.82A2.82,2.82,0,0,1,247.6,449.71Z"/><path class="cls-39" d="M181.51,475.77c-6.54.38-6.54.38-7.08-9.22-2.2-1-4.55-.63-6.8-.46-6.67.51-7.27,1.22-7.81,8-.44,5.64-2.61,6.78-10.39,5.45a7.73,7.73,0,0,0-2,0c-4.45,1.18-5.49-1.13-5.16-4.92-1.49-1.62-1.42-3.67-1.39-5.64.19-14.06-.81-28.15,1-42.17.25-1.94-.53-4.54,2.55-5.13,14.46-.56,28.73-3.05,43.11-4.38,3.65-.34,4.13.59,4,3.8-.23,5.14.05,10.31.11,15.46,1.47,1.67,1.25,3.72,1.25,5.7q0,13,0,26C192.89,475.69,189.1,478.19,181.51,475.77Z"/><path class="cls-39" d="M320.55,433.66c1.35-9.06.43-18.19.73-27.28.09-2.94.71-4.08,3.66-4.39,13.7-1.39,27.39-3,41.09-4.44,1.74-.19,3.79-.78,4.26,1.95a12,12,0,0,1,.71,4.4c0,15,.07,29.92-.05,44.88-.05,5.88-1.61,7.73-7.11,8.12-10.9.77-21.67,2.72-32.58,3.31-1.35.08-2.63.38-3.79-.54-2.09,0-4.22-.35-6.19.71-1.86-.06-2.07-1.6-2.14-2.82a155.23,155.23,0,0,1,0-21.35A3.45,3.45,0,0,1,320.55,433.66Z"/><path class="cls-39" d="M300.6,407.48c.42-1.36.37-2.87,2.54-3,4.11-.27,8.2-.81,12.29-1.35,2.13-.28,1.93,1.21,2.16,2.46,2.69,5.56,1.55,11.53,1.16,17.18-.75,10.66-.54,21.3-.76,31.95-.15,7-3.65,9.32-10.51,7.07-.77-.1-1.55-.24-2.12.52-2.12,1.2-4.19,2.09-5.77-.77-1-5.66-.47-11.37-.6-17.06-.19-9.43-.1-18.86,0-28.28A21.2,21.2,0,0,1,300.6,407.48Z"/><path class="cls-40" d="M144.47,421.63c-3.11,4.79-1.47,10.22-1.7,15.29-.56,12.53-.37,25.1-.48,37.65a3.57,3.57,0,0,0-.67,4.18c3.11,5.23-1.57,4.4-3.77,4.66-20.63,2.44-41.28,4.7-61.93,7-9.34,1-18.68,2.09-28,3-1.74.18-4.23.54-2.45-2.7,28.26-3.12,56.51-6.35,84.79-9.27,4.83-.5,6.39-2,6.38-7.09-.06-25.27.4-50.55.7-75.83,0-1,.2-2,.31-3,6.82-.3,6.81-.3,6.81,6.57Q144.45,411.9,144.47,421.63Z"/><path class="cls-41" d="M69.47,462.51c-6.84,1.6-6.93,1.6-6.83-5.13.29-17.93.66-35.85,1-53.78,6.82-.16,6.82-.16,6.8,6.76,0,6.3-.22,12.62,0,18.91C70.91,440.38,69.37,451.42,69.47,462.51Z"/><path class="cls-42" d="M106.45,458.47c-1.13.21-2.28.37-3.4.66-2.58.68-3.53-.14-3.47-2.92.42-18.87.72-37.74,1.06-56.61,6.81-.18,6.81-.18,6.8,6.75,0,10.44.07,20.89-.07,31.33C107.28,444.61,106.05,451.51,106.45,458.47Z"/><path class="cls-43" d="M434.4,447.73c12.18-1.4,24.34-2.94,36.55-4.09,3.18-.3,3.55-1.55,3.71-4.3.58-10.25-.46-20.55.81-30.78,6.93-.21,6.82-.21,6.92,6.92.13,9-.2,17.88-.9,26.81-.15,1.88-.46,3-2.71,3.28-12.32,1.25-24.62,2.63-36.92,4-2.29.25-4.57.87-6.86.89C431.28,450.49,433.3,448.94,434.4,447.73Z"/><path class="cls-44" d="M327.47,459.67c12.36-1.41,24.7-2.93,37.08-4.18,3.51-.35,5-1.22,5-5.28-.08-16.9-.19-33.82.74-50.72l3.1.07c0,17-.05,33.91-.14,50.87,0,2.33-.09,4.43,3.2,4-.06,2.05-1.23,2.86-3.17,3.07-14.45,1.54-28.91,3.09-43.35,4.75C327.63,462.52,327.42,461.36,327.47,459.67Z"/><path class="cls-45" d="M411.39,450.49c4-1.62,8.56-.39,12.85-2.33L413.62,430.1c.34-.27.54-.55.79-.59,7.84-1.56,7.86-1.56,8-9.6.1-6.13.15-12.26.22-18.4,1.36-1.53.74-3.39.75-5.1,0-2.07.83-3,2.89-2.82l0,11c-.74,6.94-.14,13.9-.31,20.85,0,.66-.36.06,0,.46,3.38,3.53,2.35,5.45-2.09,6.47-1,.22-.8,1.4-.43,2.14.82,1.63.83,3.58,2,5.05.17,1.46.67,3,.46,4.38-.54,3.71.88,5.14,4.52,4.51.89,1.67,0,2.56-1.51,2.72-4.83.55-9.67,1-14.52,1.36A2.91,2.91,0,0,1,411.39,450.49Z"/><path class="cls-46" d="M247.37,459.56c1.33,2.78-1.64,6.47,1.87,8.79,1.12.48,2.7-.1,3.59,1.62-5.26,2-10.76,1.32-16,2.45-1.84.39-4.21-.06-1.44-2.7l10.85-1.4c-3.32-5.62-6.28-11-9.57-16.11-1.78-2.78-.67-3.65,1.89-3.43,4.45.37,5.55-1.56,5.51-5.79-.11-9.79.32-19.59.53-29.39,3.19-.33,2.82,1.91,2.83,3.9l.15,32.21a.9.9,0,0,1-.18.83,5.6,5.6,0,0,1-3.91,1.7C245.67,454.2,246.4,456.94,247.37,459.56Z"/><path class="cls-47" d="M300.6,407.48l-.3,37c-1.84,1.66-2.47,3.22-1.41,5.94,1.37,3.5,2.33,7.45-.31,11.05l-10.46-17.33c.43-.38.54-.5.67-.59,2.31-1.66,6.24.54,7.52-2.28,1-2.22.1-5.24.32-7.88.73-8.6-.38-17.27.88-25.85Z"/><path class="cls-48" d="M307.48,461.78c9-1.1,9-1.1,9.12-9.95.28-15.42.65-30.83,1-46.25,3.14-.33,2.86,1.86,2.86,3.87q0,12.1.1,24.21c0,7.2-.1,14.4,0,21.6,0,1.71-.74,3.61.77,5.12.84.47,2.78.4,1.11,2.11-.88.9-13.48,2.33-14.3,1.53C307.61,463.56,307.67,462.54,307.48,461.78Z"/><path class="cls-44" d="M474.35,405.7c-9.57,1.2-19.14,2.42-28.72,3.57-1.17.14-2.8.86-3-1.35s1.19-2.3,2.81-2.48c8.6-.93,17.18-2.11,25.8-2.81,3.28-.27,4.28-1.41,4.1-4.57-.19-3.47.12-7,.21-10.46,6.88-.05,6.88-.05,6.88,6.81a28.52,28.52,0,0,0,0,3.46c.56,4.55-.57,7.47-6,6.79C475.79,404.58,475.05,405.33,474.35,405.7Z"/><path class="cls-47" d="M181.51,475.77c9.77-1.34,9.71-1.34,9.78-11.38.07-9.3.26-18.59.39-27.88,1.66-4.28.41-8.73.74-13.1.15-2-.23-4.17,2.89-3.84l-.09,20c-1.66,6.36-1,12.87-.58,19.23.34,5.64-3.58,12.37,3.27,17-4.48,2.66-9.7,1.16-14.38,2.57C181.72,478.91,181.51,477.18,181.51,475.77Z"/><path class="cls-42" d="M254.5,467.72c9.78-1.41,9.78-1.41,9.78-11.54,0-2.16-.11-4.32,0-6.46.09-1.46-.88-3.41,1.63-4,2.27-.55,3.39.65,4.25,2.41.5,1,.95,2.1,1.42,3.15-.06,4.33-.25,8.66-.16,13,.06,2.7-.5,4-3.62,4.62-3.77.79-7.63.17-11.34,1.39C254.55,470.88,254.54,469.07,254.5,467.72Z"/><path class="cls-49" d="M380.47,453.72c9.12-1.14,9.12-1.14,9.12-10.33V436c0-1.83-.24-3.7,2.29-4.24s3.12,1.19,3.94,2.8c.3.57.52,1.19.77,1.79,0,4.78-.06,9.57-.14,14.36,0,1.26.48,2.9-1,3.57-4.46,2-9.35,1.29-14,1.95C380.41,456.34,380.5,454.69,380.47,453.72Z"/><path class="cls-50" d="M201.51,473.69c3.2-.61,7.87-.18,9.24-2.11,1.68-2.35.61-6.67.69-10.14,0-1.83-.11-3.67,0-5.48.14-1.63-.85-3.79,1.93-4.4s3.49,1.2,4.41,3c.29.58.5,1.2.75,1.81,0,4.47-.22,8.95-.07,13.42.11,3.11-.41,4.72-4.17,5-3.26.24-6.58.46-9.83,1C202.54,476.08,201.66,475.61,201.51,473.69Z"/><path class="cls-49" d="M149.43,479.5c2.9-.54,6.59-.2,8.49-1.87,2.06-1.82.48-5.67.83-8.62.28-2.39.93-3.53,3.55-3.59,3.32-.07,6.62-.63,9.93-1,1.61-.18,2.65.2,2.2,2.13-.61.26-1.25.78-1.83.72-6.45-.68-7.4,3.48-7,8.3.3,4-1.14,5.16-5,5.16-2.75,0-5.51,1-8.36.85C150.71,481.52,149.54,481.28,149.43,479.5Z"/><path class="cls-51" d="M300.59,462.41l4.77-.11c.09,1.32-.49,2.42-1.76,2.57-5.54.64-11.05,2.07-16.76,1.43.21-2.12,2-1.51,2.56-2.56l9.06-1.22A1.68,1.68,0,0,1,300.59,462.41Z"/><path class="cls-52" d="M335.55,368.08c-2.14.69-3.28,1.37-5,.55C332,367.23,333.36,367.35,335.55,368.08Z"/><path class="cls-52" d="M304.48,371.9c-2,.91-3.24,1.7-4.92.54C300.91,371.24,302.26,371.45,304.48,371.9Z"/><path class="cls-53" d="M283.66,377.47c.18-2.43-.43-4.9,2.94-4.9,2.78,0,1.83,2.08,2,3.5.3,2.2-.15,3.81-2.89,3.91C283.34,380.07,283.62,378.56,283.66,377.47Z"/><path class="cls-54" d="M425.46,439.55c-2.62-1.29-2.88-4.29-4.5-6.33-1-1.33-.2-2.54,1.56-2.62s3.51,0,4.23,0c-2.2-8.95-1.71-17.45-.51-26,0,6.15.36,12.31-.05,18.42-.3,4.56,1.56,5.19,5.39,4.64,7.55-1.07,15.13-1.95,22.72-2.74,1.34-.14,3.54-1.67,4.05,1,.56,2.91-1.88,2.46-3.6,2.66-7.91.92-15.8,2.15-23.74,2.63-4.31.26-6.06,1.63-5.34,5.92A9.87,9.87,0,0,1,425.46,439.55Z"/><path class="cls-55" d="M395.14,414.74c-1,.15-2,.29-2.95.46-1.16.21-2-.06-1.94-1.43,0-1-.17-2.12,1.22-2.3,4.28-.56,8.56-1.07,12.83-1.59a1.38,1.38,0,0,1,1.64,1.42,1.9,1.9,0,0,1-1.9,2.35c-3,.34-5.92.76-8.89,1.15Z"/><path class="cls-55" d="M215.24,434.75c-1.48-.08-3.1.85-3.34-1.34s1.3-2.4,2.84-2.58c3.45-.41,6.9-.81,10.36-1.12,1-.1,2.46-.56,2.53,1.34.05,1.63-.68,2.31-2.34,2.47C221.84,433.83,218.4,434.35,215.24,434.75Z"/><path class="cls-56" d="M266.42,429.1c-1.15.27-2,0-2-1.35,0-.92-.31-2.13,1.12-2.33q6.63-.9,13.28-1.67c1.35-.16,1.59.82,1.61,1.91s-.55,1.74-1.75,1.88C274.6,428,270.51,428.58,266.42,429.1Z"/><path class="cls-57" d="M300.59,462.41l-2.13.11.12-1c1.5-3.71,1.7-7.55-.74-10.77-2.94-3.86-2.17-5.64,2.46-6.22Q300.45,453.48,300.59,462.41Z"/><path class="cls-58" d="M247.37,459.56c-.86-1.16-1.82-2.26-2.58-3.48-2.68-4.3-2.49-4.65,2.63-5.54Z"/><path class="cls-49" d="M165.47,448.36c-2-.07-5.23,1.7-5.8-.27-.92-3.17-.25-6.83-.06-10.28,0-.85,1.22-1,2-1,4.26-.38,8.53-.73,12.8-1.08,1,1.89.49,3.51-1.55,3.75-4,.46-5.26,2.75-5.4,6.33A2.86,2.86,0,0,1,165.47,448.36Z"/><path class="cls-59" d="M165.47,448.36a5.74,5.74,0,0,0,1-3.74c-.58-4.29.8-6.69,5.59-6.11,2,.24,2.49-1.13,2.43-2.82C177.62,444.66,175.46,447.7,165.47,448.36Z"/><path class="cls-42" d="M344.45,440.57c-7.18,1.79-7.2,1.79-7.17-5.24,0-4.82.1-9.65.15-14.47,0-.33-.11-.72,0-1,3-6,9.1-2.08,13.43-4,2.15-1,2.94.55,2.39,2.66-7.73,1.63-7.79,7.36-7.44,13.53C346,434.9,346.52,438,344.45,440.57Z"/><path class="cls-59" d="M344.45,440.57q0-6.42,0-12.83c0-8.84,0-8.84,8.83-9.24,0,5.28-.32,10.58.11,15.81.39,4.77-1.26,6.75-6,6.27A29.22,29.22,0,0,0,344.45,440.57Z"/></svg>