<svg xmlns="http://www.w3.org/2000/svg" viewBox="0 0 82 163"><defs><style>.cls-1{fill:none;stroke:#d3145a;stroke-miterlimit:10;stroke-width:5px;}</style></defs><g id="layer"><path d="M41.64,115.33a11.21,11.21,0,0,1-1.5,3.49l-3.91-1.74a11.74,11.74,0,0,0,1.84-6.19c0-2-.5-3-1.52-3a1.26,1.26,0,0,0-1.19.87,16.24,16.24,0,0,0-.82,2.79,25.73,25.73,0,0,1-1,3.54,5.93,5.93,0,0,1-1.67,2.44,4.53,4.53,0,0,1-3.11,1,5.41,5.41,0,0,1-3.09-.93,6.26,6.26,0,0,1-2.18-2.8,11.43,11.43,0,0,1-.81-4.57,16,16,0,0,1,.42-3.64,11.19,11.19,0,0,1,1.22-3.16L28.27,105a11,11,0,0,0-1.44,5.2,4.27,4.27,0,0,0,.47,2.3,1.4,1.4,0,0,0,1.21.73,1.22,1.22,0,0,0,1.13-.86,15.55,15.55,0,0,0,.78-2.76,25.26,25.26,0,0,1,1-3.55,6,6,0,0,1,1.66-2.43,4.43,4.43,0,0,1,3.1-1,5.31,5.31,0,0,1,3.05.94,6.38,6.38,0,0,1,2.18,2.81,11.3,11.3,0,0,1,.82,4.56A17.48,17.48,0,0,1,41.64,115.33Z"/><path d="M41,96.12a9.29,9.29,0,0,1-3.46,3.68,9.52,9.52,0,0,1-5,1.34,9.49,9.49,0,0,1-5-1.34A9.25,9.25,0,0,1,24,96.12a11.08,11.08,0,0,1-1.25-5.29,11.45,11.45,0,0,1,.91-4.63,9,9,0,0,1,2.63-3.43l3.05,3.38a5.63,5.63,0,0,0-1.53,7.13,4.68,4.68,0,0,0,1.89,1.85,6.27,6.27,0,0,0,5.6,0,4.68,4.68,0,0,0,1.89-1.85,5.63,5.63,0,0,0-1.53-7.13l3-3.38a8.92,8.92,0,0,1,2.63,3.43,11.45,11.45,0,0,1,.91,4.63A11.08,11.08,0,0,1,41,96.12Z"/><path d="M36.84,72.22v2.89h5v5.31H23.08V71.85a10.73,10.73,0,0,1,.84-4.42,6.51,6.51,0,0,1,2.41-2.89,6.6,6.6,0,0,1,3.68-1,6.48,6.48,0,0,1,3.55.95,6.39,6.39,0,0,1,2.37,2.72l5.89-4v5.68ZM28,69.7a3.7,3.7,0,0,0-.72,2.47v2.94h5.49V72.17A3.75,3.75,0,0,0,32,69.7a2.9,2.9,0,0,0-4.06,0Z"/><path d="M40.94,56.49a9.59,9.59,0,0,1-17,0A12,12,0,0,1,24,45.8a9.59,9.59,0,0,1,17,0,12,12,0,0,1,0,10.69Zm-3.8-7.91a4.89,4.89,0,0,0-1.89-1.83,6.19,6.19,0,0,0-5.6,0,4.89,4.89,0,0,0-1.89,1.83,5.05,5.05,0,0,0-.67,2.57,5.1,5.1,0,0,0,.67,2.57,4.94,4.94,0,0,0,1.89,1.82,6.19,6.19,0,0,0,5.6,0,4.94,4.94,0,0,0,1.89-1.82,5.1,5.1,0,0,0,.67-2.57A5.05,5.05,0,0,0,37.14,48.58Z"/><path d="M23.08,37.94v-5.3H37.62V23.7h4.2V37.94Z"/><path d="M23.08,21.61v-5.3H37.62V7.36h4.2V21.61Z"/><line class="cls-1" x1="57.5" y1="47.5" x2="57.5" y2="162.5"/></g></svg>