<svg xmlns="http://www.w3.org/2000/svg" xmlns:xlink="http://www.w3.org/1999/xlink" viewBox="0 0 883 594"><defs><style>.cls-1{fill:#39b54a;}.cls-2,.cls-25,.cls-27{fill:#5f308b;}.cls-2,.cls-3{clip-rule:evenodd;}.cls-3,.cls-30,.cls-32{fill:#6a4199;}.cls-4{fill:#8cc63f;}.cls-5{fill:#009245;}.cls-6{clip-path:url(#clip-path);}.cls-7{fill:#46bc4c;}.cls-8{fill:#5ccc5e;}.cls-9{fill:#61d163;}.cls-10,.cls-9{opacity:0.47;}.cls-10{fill:#7ee07e;}.cls-11{opacity:0.78;}.cls-12{fill:#6f0063;}.cls-13{fill:#ff0001;}.cls-14{fill:#fff;}.cls-15,.cls-17,.cls-18,.cls-19,.cls-20,.cls-39,.cls-40,.cls-41{fill:none;}.cls-15{stroke:#39b54a;}.cls-15,.cls-17,.cls-18,.cls-19,.cls-20,.cls-39{stroke-miterlimit:10;}.cls-16{fill:#e2c6aa;}.cls-17,.cls-18{stroke:#dbbaa1;}.cls-17,.cls-18,.cls-19,.cls-39,.cls-40,.cls-41{stroke-linecap:round;}.cls-18{stroke-width:0.75px;}.cls-19,.cls-20,.cls-41{stroke:#fff;}.cls-21{fill:#037737;}.cls-22{fill:#999;}.cls-23{fill:#f2f2f2;}.cls-24{fill:#4d4d4d;}.cls-25,.cls-30{fill-rule:evenodd;}.cls-26{clip-path:url(#clip-path-2);}.cls-28{clip-path:url(#clip-path-3);}.cls-29{clip-path:url(#clip-path-4);}.cls-31{clip-path:url(#clip-path-5);}.cls-33{fill:#e6e6e6;}.cls-34{fill:#ccc;}.cls-35{fill:#b3b3b3;}.cls-36{fill:#fc6060;}.cls-37{fill:#f44747;}.cls-38{fill:#61d0f2;opacity:0.38;}.cls-39,.cls-40{stroke:#7ad7fc;}.cls-39,.cls-40,.cls-41{stroke-width:0.25px;}.cls-40,.cls-41{stroke-linejoin:round;}.cls-42{fill:#2e8e2e;}.cls-43{fill:#f4dfc9;}.cls-44{fill:#0071bc;}.cls-45{fill:#333;}.cls-46{fill:#ce3c46;}.cls-47{font-size:25.45px;fill:#d4145a;}.cls-47,.cls-49{font-family:Avenir-Black, Avenir;font-weight:800;}.cls-48{letter-spacing:-0.02em;}.cls-49{font-size:17.12px;fill:#662d91;}.cls-50{letter-spacing:-0.02em;}.cls-51{fill:#996e47;}.cls-52{fill:#a67c52;}.cls-53{fill:#83b535;}.cls-54{fill:#79aa2d;}.cls-55{fill:#d1ab8f;}.cls-56{fill:#cea98d;}</style><clipPath id="clip-path"><ellipse class="cls-1" cx="544.73" cy="373.04" rx="352.18" ry="194.68" transform="translate(-94.65 208.46) rotate(-19.97)"/></clipPath><clipPath id="clip-path-2"><path class="cls-2" d="M675.76-535.56H641.62a1.52,1.52,0,0,0-1.55,1.49v32.66a1.51,1.51,0,0,0,1.55,1.48h18.23v-13.36H655.2v-5.57h4.65v-4.45c0-4.6,3-6.87,7.34-6.87,2.06,0,3.82.15,4.34.21v4.81h-3c-2.33,0-2.88,1.06-2.88,2.61v3.68h5.82l-1.16,5.57h-4.66l.1,13.36h10a1.51,1.51,0,0,0,1.55-1.48v-32.66a1.52,1.52,0,0,0-1.55-1.49"/></clipPath><clipPath id="clip-path-3"><path class="cls-2" d="M565.31-528.55a15.62,15.62,0,0,1-4.39,1.16,7.41,7.41,0,0,0,3.36-4.07,15.66,15.66,0,0,1-4.85,1.78,7.76,7.76,0,0,0-5.58-2.32,7.5,7.5,0,0,0-7.64,7.36,7.15,7.15,0,0,0,.2,1.68,22,22,0,0,1-15.75-7.69,7.08,7.08,0,0,0-1,3.7,7.29,7.29,0,0,0,3.4,6.12,7.88,7.88,0,0,1-3.46-.92v.09a7.45,7.45,0,0,0,6.13,7.22,7.8,7.8,0,0,1-2,.26,8.57,8.57,0,0,1-1.44-.13,7.63,7.63,0,0,0,7.14,5.11,15.74,15.74,0,0,1-9.49,3.15,15.47,15.47,0,0,1-1.82-.11,22.19,22.19,0,0,0,11.71,3.31,21.17,21.17,0,0,0,21.74-20.94c0-.32,0-.63,0-1a15.16,15.16,0,0,0,3.81-3.81"/></clipPath><clipPath id="clip-path-4"><path class="cls-2" d="M779.89-535.64h-28.4a4.33,4.33,0,0,0-4.42,4.23v27.17a4.33,4.33,0,0,0,4.42,4.23h28.4a4.33,4.33,0,0,0,4.42-4.23v-27.17a4.33,4.33,0,0,0-4.42-4.23m-5.62,4.86h3.89c.71,0,1.3.44,1.3,1v2.92c0,.53-.59,1-1.3,1h-3.89c-.71,0-1.29-.44-1.29-1v-2.92c0-.53.58-1,1.29-1m-8.58,6.48c4,0,7.29,2.9,7.29,6.48s-3.27,6.47-7.29,6.47-7.29-2.9-7.29-6.47,3.27-6.48,7.29-6.48m14.2,21h-28.4a1.15,1.15,0,0,1-1.18-1.11v-16.7H755a6.43,6.43,0,0,0-.83,3.38c0,6,5.17,10.81,11.52,10.81s11.52-4.85,11.52-10.81a5.4,5.4,0,0,0-.91-3.38h4.73v16.7a1.15,1.15,0,0,1-1.18,1.11"/></clipPath><clipPath id="clip-path-5"><path class="cls-3" d="M779.89-584.64h-28.4a4.33,4.33,0,0,0-4.42,4.23v27.17a4.33,4.33,0,0,0,4.42,4.23h28.4a4.33,4.33,0,0,0,4.42-4.23v-27.17a4.33,4.33,0,0,0-4.42-4.23m-5.62,4.86h3.89c.71,0,1.3.44,1.3,1v2.92c0,.53-.59,1-1.3,1h-3.89c-.71,0-1.29-.44-1.29-1v-2.92c0-.53.58-1,1.29-1m-8.58,6.48c4,0,7.29,2.9,7.29,6.48s-3.27,6.47-7.29,6.47-7.29-2.9-7.29-6.47,3.27-6.48,7.29-6.48m14.2,21h-28.4a1.15,1.15,0,0,1-1.18-1.11v-16.7H755a6.43,6.43,0,0,0-.83,3.38c0,6,5.17,10.81,11.52,10.81s11.52-4.85,11.52-10.81a5.4,5.4,0,0,0-.91-3.38h4.73v16.7a1.15,1.15,0,0,1-1.18,1.11"/></clipPath></defs><g id="Ground"><path class="cls-4" d="M121.34,285.8,4.27,353.39l11,6.36c61.51,35.51,154.56,39.37,207.83,8.61l20.62-11.9Z"/><polygon class="cls-5" points="705.1 190.49 577.07 116.57 457 185.89 340.78 118.79 139.98 234.72 255.02 301.14 158.97 356.6 332.42 456.75 749.35 216.03 705.1 190.49"/><ellipse class="cls-1" cx="544.73" cy="373.04" rx="352.18" ry="194.68" transform="translate(-94.65 208.46) rotate(-19.97)"/><g class="cls-6"><polygon class="cls-7" points="291.04 218.82 246.7 193.22 552.78 16.5 597.12 42.1 291.04 218.82"/><polygon class="cls-8" points="335.38 244.42 291.04 218.82 597.12 42.1 641.46 67.7 335.38 244.42"/><polygon class="cls-7" points="379.72 270.02 335.38 244.42 641.46 67.7 685.8 93.3 379.72 270.02"/><polygon class="cls-8" points="424.06 295.62 379.72 270.02 685.8 93.3 730.14 118.9 424.06 295.62"/><polygon class="cls-7" points="468.4 321.22 424.06 295.62 730.14 118.9 774.48 144.5 468.4 321.22"/><polygon class="cls-8" points="512.74 346.82 468.4 321.22 774.48 144.5 818.82 170.1 512.74 346.82"/><polygon class="cls-7" points="557.08 372.42 512.74 346.82 818.82 170.1 863.16 195.7 557.08 372.42"/><polygon class="cls-9" points="502.06 46.34 553.26 16.78 863.16 195.7 811.96 225.26 502.06 46.34"/><polygon class="cls-10" points="450.86 75.9 502.06 46.34 811.96 225.26 760.76 254.82 450.86 75.9"/><polygon class="cls-9" points="399.66 105.46 450.86 75.9 760.76 254.82 709.56 284.38 399.66 105.46"/><polygon class="cls-10" points="348.46 135.02 399.66 105.46 709.56 284.38 658.36 313.94 348.46 135.02"/><polygon class="cls-9" points="297.26 164.58 348.46 135.02 658.36 313.94 607.16 343.5 297.26 164.58"/><polygon class="cls-10" points="246.06 194.14 297.26 164.58 607.16 343.5 557.24 372.32 246.06 194.14"/><polygon class="cls-7" points="601.42 398.01 557.08 372.42 863.16 195.7 907.5 221.3 601.42 398.01"/><polygon class="cls-8" points="645.76 423.62 601.42 398.01 907.5 221.3 951.84 246.9 645.76 423.62"/><polygon class="cls-7" points="690.1 449.21 645.76 423.62 951.84 246.9 996.18 272.5 690.1 449.21"/><polygon class="cls-8" points="734.44 474.81 690.1 449.21 996.18 272.5 1040.52 298.1 734.44 474.81"/><polygon class="cls-7" points="778.78 500.41 734.44 474.81 1040.52 298.1 1084.86 323.7 778.78 500.41"/><polygon class="cls-8" points="823.12 526.01 778.78 500.41 1084.86 323.7 1129.2 349.3 823.12 526.01"/><polygon class="cls-7" points="867.46 551.61 823.12 526.01 1129.2 349.3 1173.54 374.9 867.46 551.61"/><polygon class="cls-9" points="812.44 225.54 863.64 195.98 1173.54 374.9 1122.34 404.46 812.44 225.54"/><polygon class="cls-10" points="761.24 255.1 812.44 225.54 1122.34 404.46 1071.14 434.02 761.24 255.1"/><polygon class="cls-9" points="710.04 284.66 761.24 255.1 1071.14 434.02 1019.94 463.58 710.04 284.66"/><polygon class="cls-10" points="658.84 314.22 710.04 284.66 1019.94 463.58 968.74 493.14 658.84 314.22"/><polygon class="cls-9" points="607.64 343.78 658.84 314.22 968.74 493.14 917.54 522.7 607.64 343.78"/><polygon class="cls-10" points="557.73 372.6 607.64 343.78 917.54 522.7 866.34 552.26 557.73 372.6"/><polygon class="cls-7" points="-15.09 395.56 -59.43 369.96 246.65 193.24 290.99 218.84 -15.09 395.56"/><polygon class="cls-8" points="29.25 421.16 -15.09 395.56 290.99 218.84 335.33 244.44 29.25 421.16"/><polygon class="cls-7" points="73.59 446.76 29.25 421.16 335.33 244.44 379.67 270.04 73.59 446.76"/><polygon class="cls-8" points="117.93 472.36 73.59 446.76 379.67 270.04 424.01 295.64 117.93 472.36"/><polygon class="cls-7" points="162.27 497.96 117.93 472.36 424.01 295.64 468.35 321.24 162.27 497.96"/><polygon class="cls-8" points="206.61 523.56 162.27 497.96 468.35 321.24 512.69 346.84 206.61 523.56"/><polygon class="cls-7" points="250.95 549.16 206.61 523.56 512.69 346.84 557.03 372.44 250.95 549.16"/><polygon class="cls-9" points="195.93 223.08 247.13 193.52 557.03 372.44 505.83 402 195.93 223.08"/><polygon class="cls-10" points="144.73 252.64 195.93 223.08 505.83 402 454.63 431.56 144.73 252.64"/><polygon class="cls-9" points="93.53 282.2 144.73 252.64 454.63 431.56 403.43 461.12 93.53 282.2"/><polygon class="cls-10" points="42.33 311.76 93.53 282.2 403.43 461.12 352.23 490.68 42.33 311.76"/><polygon class="cls-9" points="-8.87 341.32 42.33 311.76 352.23 490.68 301.03 520.24 -8.87 341.32"/><polygon class="cls-10" points="-60.06 370.88 -8.87 341.32 301.03 520.24 249.83 549.8 -60.06 370.88"/><polygon class="cls-7" points="295.29 574.76 250.95 549.16 557.03 372.44 601.37 398.04 295.29 574.76"/><polygon class="cls-8" points="339.63 600.36 295.29 574.76 601.37 398.04 645.71 423.64 339.63 600.36"/><polygon class="cls-7" points="383.97 625.96 339.63 600.36 645.71 423.64 690.05 449.24 383.97 625.96"/><polygon class="cls-8" points="428.31 651.56 383.97 625.96 690.05 449.24 734.39 474.84 428.31 651.56"/><polygon class="cls-7" points="472.65 677.16 428.31 651.56 734.39 474.84 778.73 500.44 472.65 677.16"/><polygon class="cls-8" points="516.99 702.76 472.65 677.16 778.73 500.44 823.07 526.04 516.99 702.76"/><polygon class="cls-7" points="561.33 728.36 516.99 702.76 823.07 526.04 867.41 551.64 561.33 728.36"/><polygon class="cls-9" points="506.31 402.28 557.51 372.72 867.41 551.64 816.21 581.2 506.31 402.28"/><polygon class="cls-10" points="455.11 431.84 506.31 402.28 816.21 581.2 765.01 610.76 455.11 431.84"/><polygon class="cls-9" points="403.91 461.4 455.11 431.84 765.01 610.76 713.81 640.32 403.91 461.4"/><polygon class="cls-10" points="352.71 490.96 403.91 461.4 713.81 640.32 662.61 669.88 352.71 490.96"/><polygon class="cls-9" points="301.51 520.52 352.71 490.96 662.61 669.88 611.41 699.44 301.51 520.52"/><polygon class="cls-10" points="250.31 550.08 301.51 520.52 611.41 699.44 560.21 729 250.31 550.08"/><g id="ivkOxp.tif" class="cls-11"><path class="cls-12" d="M343.32,458.62l14.61-10.15-40.05-18.13-32.5,22.54c.34.22.58.4.86.56l33.09,19.1,24.05-13.89Zm-34.08-7.76c-3.28,1.45-7.73.77-8.5-1.34-.08-.2.35-.5.55-.76l.44.05a4.12,4.12,0,0,1,.33.4,3.74,3.74,0,0,0,3.58,1.6,5.76,5.76,0,0,0,4.48-1.8,7.59,7.59,0,0,0,1-2.93,11.8,11.8,0,0,1,.47-2.55c.63-1.33,2.83-2.34,5.11-2.53s4.08.44,4.91,1.53c.39.52.22.82-1,.91-.09-.09-.14-.13-.17-.17a3.75,3.75,0,0,0-3.93-1.47c-1.92.28-3.73,1.5-3.89,2.73a19.61,19.61,0,0,0,0,2.3C312.66,448.41,311.65,449.78,309.24,450.86Zm11.91-2a13.11,13.11,0,0,1-1.42-.8c-3.16,1.82-6.19,3.53-9.13,5.29-1.05.62-.35,1.12.46,1.52-.39.55-.85.6-1.51.29-1.28-.6-1.43-1.45-.09-2.3,2.2-1.4,4.54-2.73,6.82-4.08l2.23-1.29-1-.79c1-1,1.36,0,2.14,0,1-.18,1.63-1.43,3.33-.72l-2.33,1.48a12.76,12.76,0,0,1,1.39.83c.16.11,0,.36,0,.54A3.66,3.66,0,0,1,321.15,448.87Zm-4.79,9.87c-1.26-.16-.56-.63-.17-1-2.5,0-3.66-.41-3.87-1.39s1.33-2.42,3.53-3.09a8.53,8.53,0,0,1,5.28.08c.5.16,1,.37,1.51.58,3.56-1.7,3.59-2.88.15-3.72.11-.52.56-.65,1.37-.51,3,.53,3.61,2.28,1.19,3.85-1.28.84-2.71,1.6-4.08,2.4Zm7.6,4.37c-.94-.33-.94-.33.31-1.2-.47,0-.83.09-1.19.11-2.18.13-3.67-.74-3.32-2a3.25,3.25,0,0,1,.89-1.44,17.22,17.22,0,0,1,7.05-4.06,11.67,11.67,0,0,1,2.08-.48c2.66-.36,4,.34,4.11,2.19,1.86-1.07,3.63-2.08,5.36-3.1.73-.44,1.22-.46,1.74.14Z"/><path class="cls-13" d="M434,496.5l-68.73-48.57L343.5,458.72l-.12-.07-24.05,13.89,74.41,43a1.87,1.87,0,0,0,2.18,0c5.82-2.93,11.71-5.81,17.57-8.72l19.32-9.58C433.21,497,433.57,496.75,434,496.5Zm-92-22.85c-.21-.16-.09-.56.11-.81,1.39-1.67,2.84-3.32,4.46-5.21-3.79.71-5.39,2.69-8.25,3.83l-2.24-1.29,17.07-9.85,2.31,1.34-7.37,4.25.12.11c2.79-.68,5.62-1.31,8.36-2.07,1.61-.45,2.71-.41,3.6.35a11.55,11.55,0,0,0,1.21.71l-4.81,1c-2,.44-4.5.63-6,1.43s-2,2.18-2.89,3.31c-1.11,1.35-2.2,2.71-3.42,4.22A20.89,20.89,0,0,1,342,473.65Zm14.92,3.9a17.27,17.27,0,0,1-4.12.91c-3.62.35-6.29-1.33-5.53-3.42a5.45,5.45,0,0,1,1.36-2,24.32,24.32,0,0,1,9.17-5.32,18.13,18.13,0,0,1,3.72-.84c4.33-.5,7.17,1.47,5.76,3.93-1,1.72-3.05,3.06-5.15,4.44C360.42,476,358.77,476.88,356.94,477.55ZM361,484.6c-.18-.15,0-.57.25-.79,1.18-1,2.5-2,3.67-3s1-1.54-.5-2.27l-6.95,4-2.42-1.4c.34-.21.66-.43,1-.63,4.91-2.84,9.85-5.66,14.73-8.53a2,2,0,0,1,2.26-.17,35.49,35.49,0,0,1,3.29,1.9c1.44,1,1.73,2.28.29,3.66a9.7,9.7,0,0,1-6.75,2.34l-1.2-.05c.29,1.06-.55,2-1.63,2.85-1.31,1.07-2.6,2.16-4,3.34A17.46,17.46,0,0,1,361,484.6ZM385.68,482,383,480.48l-14.57,8.41-2.43-1.4,14.54-8.39c-.7-.4-1.18-.74-1.76-1-.85-.38-.78-.74.15-1.18.5-.24.93-.53,1.46-.83l7.76,4.48Zm-7.2,12.68c-.2-.17,0-.63.27-.87,1.2-1.05,2.57-2.05,3.74-3.11s.81-1.51-.7-2.11l-6.88,4-2.38-1.38c.31-.2.61-.43,1-.63,4.92-2.84,9.87-5.67,14.75-8.54a2,2,0,0,1,2.27-.15,31,31,0,0,1,3.37,2c1.42,1.07,1.67,2.34.08,3.68a9.49,9.49,0,0,1-6.55,2.25l-1.3-.06c.27,1-.41,1.86-1.41,2.68-1.37,1.13-2.72,2.26-4.21,3.51A14.43,14.43,0,0,1,378.48,494.69Zm5.9,3.37-2.31-1.33,17.09-9.87,2.31,1.33Zm11.66.51c-.58.33-1.2.65-1.83.94-3.11,1.44-5.68,1.4-8-.08-.82-.5-.9-.91.38-1.36.42-.15.8-.35,1.17-.52a1.46,1.46,0,0,1,.31,0c1.86,1.11,2.85,1.09,5.12-.2,3.64-2.07,7.24-4.17,10.86-6.25l1.28-.75,2.4,1.39c-.36.23-.67.45-1,.66Zm2.66,7.8c-.2-.15,0-.57.2-.82,1.39-1.67,2.84-3.32,4.27-5l-.24-.18a18.64,18.64,0,0,0-2.43.89c-1.79,1-3.48,2-5.3,3l-2.38-1.37,17.06-9.85,2.33,1.35-7,4.07.11.13a7.74,7.74,0,0,0,.84-.14c2.63-.64,5.27-1.26,7.87-1.94a2.59,2.59,0,0,1,2.44.21,14.49,14.49,0,0,0,1.65,1c-.67.16-1.14.29-1.63.39-2.62.55-5.23,1.12-7.86,1.63a3,3,0,0,0-2,1.05c-1.52,2-3.15,3.95-4.74,5.92l-.86,1A22.15,22.15,0,0,1,398.7,506.37Z"/><path class="cls-14" d="M386.11,489.71c.27,1-.41,1.86-1.41,2.68-1.37,1.13-2.72,2.26-4.21,3.51a14.43,14.43,0,0,1-2-1.21c-.2-.17,0-.63.27-.87,1.2-1.05,2.57-2.05,3.74-3.11s.81-1.51-.7-2.11l-6.88,4-2.38-1.38c.31-.2.61-.43,1-.63,4.92-2.84,9.87-5.67,14.75-8.54a2,2,0,0,1,2.27-.15,31,31,0,0,1,3.37,2c1.42,1.07,1.67,2.34.08,3.68a9.49,9.49,0,0,1-6.55,2.25Zm-1.84-2.51a3.64,3.64,0,0,0,3.31.78c1.61-.24,3.52-1.35,3.79-2.21s-.51-1.34-1.61-1.74Z"/><path class="cls-14" d="M368.68,479.64c.29,1.06-.55,2-1.63,2.85-1.31,1.07-2.6,2.16-4,3.34a17.46,17.46,0,0,1-2-1.23c-.18-.15,0-.57.25-.79,1.18-1,2.5-2,3.67-3s1-1.54-.5-2.27l-6.95,4-2.42-1.4c.34-.21.66-.43,1-.63,4.91-2.84,9.85-5.66,14.73-8.53a2,2,0,0,1,2.26-.17,35.49,35.49,0,0,1,3.29,1.9c1.44,1,1.73,2.28.29,3.66a9.76,9.76,0,0,1-6.75,2.35Zm3.7-5.67-5.56,3.2a3.93,3.93,0,0,0,3.53.7c1.74-.37,3-1.09,3.54-2.12C374.31,474.9,373.46,474.4,372.38,474Z"/><path class="cls-14" d="M362.15,475.26c-1.73.77-3.38,1.62-5.21,2.29a17.27,17.27,0,0,1-4.12.91c-3.62.35-6.29-1.33-5.53-3.42a5.45,5.45,0,0,1,1.36-2,24.32,24.32,0,0,1,9.17-5.32,18.13,18.13,0,0,1,3.72-.84c4.33-.5,7.17,1.47,5.76,3.93C366.31,472.54,364.25,473.88,362.15,475.26Zm-2.6-1.4c1.36-1,2.74-2,4-3.06.67-.56,1.06-1.25.24-1.77a3.66,3.66,0,0,0-3,0,24.88,24.88,0,0,0-9.54,5.48c-.62.6-.94,1.27-.07,1.76a3.69,3.69,0,0,0,3.06-.12C356,475.45,357.76,474.64,359.55,473.86Z"/><path class="cls-14" d="M353.17,460.32l2.31,1.34-7.37,4.25.12.11c2.79-.68,5.62-1.31,8.36-2.07,1.61-.45,2.71-.41,3.6.35a11.55,11.55,0,0,0,1.21.71l-4.81,1c-2,.44-4.5.63-6,1.43s-2,2.18-2.89,3.31c-1.11,1.35-2.2,2.71-3.42,4.22a20.89,20.89,0,0,1-2.25-1.34c-.21-.16-.09-.56.11-.81,1.39-1.67,2.84-3.32,4.46-5.21-3.79.71-5.39,2.69-8.25,3.83l-2.24-1.29Z"/><path class="cls-14" d="M402.93,500.38a18.64,18.64,0,0,0-2.43.89c-1.79,1-3.48,2-5.3,3l-2.38-1.37,17.06-9.85,2.33,1.35-7,4.07.11.13a7.74,7.74,0,0,0,.84-.14c2.63-.64,5.27-1.26,7.87-1.94a2.59,2.59,0,0,1,2.44.21,14.49,14.49,0,0,0,1.65,1c-.67.16-1.14.29-1.63.39-2.62.55-5.23,1.12-7.86,1.63a3,3,0,0,0-2,1.05c-1.52,2-3.15,3.95-4.74,5.92l-.86,1a22.15,22.15,0,0,1-2.28-1.36c-.2-.15,0-.57.2-.82,1.39-1.67,2.84-3.32,4.27-5Z"/><path class="cls-14" d="M380.58,479.1c-.7-.4-1.18-.74-1.76-1-.85-.38-.78-.74.15-1.18.5-.24.93-.53,1.46-.83l7.76,4.48L385.68,482,383,480.48l-14.57,8.41-2.43-1.4Z"/><path class="cls-14" d="M405.29,490.39l2.4,1.39c-.36.23-.67.45-1,.66L396,498.57c-.58.33-1.2.65-1.83.94-3.11,1.44-5.68,1.4-8-.08-.82-.5-.9-.91.38-1.36.42-.15.8-.35,1.17-.52a1.46,1.46,0,0,1,.31,0c1.86,1.11,2.85,1.09,5.12-.2,3.64-2.07,7.24-4.17,10.86-6.25Z"/><path class="cls-14" d="M399.16,486.86l2.31,1.33-17.09,9.87-2.31-1.33Z"/><path class="cls-14" d="M341,453.27l-17,9.84c-.94-.33-.94-.33.31-1.2-.47,0-.83.09-1.19.11-2.18.13-3.67-.74-3.32-2a3.31,3.31,0,0,1,.88-1.44,17.33,17.33,0,0,1,7.06-4.06,11.67,11.67,0,0,1,2.08-.48c2.66-.36,4,.34,4.11,2.19,1.86-1.07,3.63-2.08,5.36-3.1C340,452.69,340.47,452.67,341,453.27Zm-12.13,6a39.75,39.75,0,0,0,3.26-2.37c.66-.6.86-1.3,0-1.83a4,4,0,0,0-3.17,0,17.37,17.37,0,0,0-7.25,4.19c-.59.6-.89,1.27-.06,1.77a3.81,3.81,0,0,0,3.16.06C326.24,460.51,327.59,459.84,328.86,459.28Z"/><path class="cls-14" d="M322.64,453.89c3.56-1.7,3.59-2.88.15-3.72.11-.52.56-.65,1.37-.51,3,.53,3.61,2.28,1.19,3.85-1.28.84-2.71,1.6-4.08,2.4l-4.91,2.83c-1.26-.16-.56-.63-.17-1-2.5,0-3.66-.41-3.87-1.39s1.33-2.42,3.53-3.09a8.53,8.53,0,0,1,5.28.08C321.63,453.47,322.09,453.68,322.64,453.89Zm-1,.77a5.81,5.81,0,0,0-6.64.07c-1.18.73-1.49,1.46-.83,2a3.78,3.78,0,0,0,3.37,0C318.92,456.12,320.18,455.38,321.6,454.66Z"/><path class="cls-14" d="M320.65,443.44c-.09-.09-.14-.13-.17-.17a3.75,3.75,0,0,0-3.93-1.47c-1.92.28-3.73,1.5-3.89,2.73a19.61,19.61,0,0,0,0,2.3c0,1.58-1,2.95-3.44,4-3.28,1.45-7.73.77-8.5-1.34-.08-.2.35-.5.55-.76l.44.05a4.12,4.12,0,0,1,.33.4,3.74,3.74,0,0,0,3.58,1.6,5.76,5.76,0,0,0,4.48-1.8,7.59,7.59,0,0,0,1-2.93,11.8,11.8,0,0,1,.47-2.55c.63-1.33,2.83-2.34,5.11-2.53s4.08.44,4.91,1.53C322,443.05,321.84,443.35,320.65,443.44Z"/><path class="cls-14" d="M319.73,448.07c-3.16,1.82-6.19,3.53-9.13,5.29-1.05.62-.35,1.12.46,1.52-.39.55-.85.6-1.51.29-1.28-.6-1.43-1.45-.09-2.3,2.2-1.4,4.54-2.73,6.82-4.08l2.23-1.29-1-.79c1-1,1.36,0,2.14,0,1-.18,1.63-1.43,3.33-.72l-2.33,1.48a12.76,12.76,0,0,1,1.39.83c.16.11,0,.36,0,.54a3.66,3.66,0,0,1-.94,0A13.11,13.11,0,0,1,319.73,448.07Z"/><path class="cls-13" d="M384.27,487.2l5.49-3.17c1.1.4,1.88.88,1.61,1.74s-2.18,2-3.79,2.21A3.64,3.64,0,0,1,384.27,487.2Z"/><path class="cls-13" d="M372.38,474c1.08.43,1.93.93,1.51,1.78-.51,1-1.8,1.75-3.54,2.12a3.93,3.93,0,0,1-3.53-.7Z"/><path class="cls-13" d="M359.55,473.86c-1.79.78-3.54,1.59-5.37,2.32a3.69,3.69,0,0,1-3.06.12c-.87-.49-.55-1.16.07-1.76a24.88,24.88,0,0,1,9.54-5.48,3.66,3.66,0,0,1,3,0c.82.52.43,1.21-.24,1.77C362.29,471.84,360.91,472.82,359.55,473.86Z"/><path class="cls-12" d="M328.86,459.28c-1.27.56-2.62,1.23-4.09,1.78a3.81,3.81,0,0,1-3.16-.06c-.83-.5-.53-1.17.06-1.77a17.37,17.37,0,0,1,7.25-4.19,4,4,0,0,1,3.17,0c.89.53.69,1.23,0,1.83A39.75,39.75,0,0,1,328.86,459.28Z"/><path class="cls-12" d="M321.6,454.66c-1.42.72-2.68,1.46-4.1,2.06a3.78,3.78,0,0,1-3.37,0c-.66-.5-.35-1.23.83-2A5.81,5.81,0,0,1,321.6,454.66Z"/></g></g><ellipse class="cls-15" cx="544.76" cy="373.35" rx="339.15" ry="187.48" transform="translate(-94.75 208.49) rotate(-19.97)"/><polygon class="cls-16" points="531.11 379.23 498.93 360.65 626.89 286.77 659.07 305.35 531.11 379.23"/><line class="cls-17" x1="613.82" y1="302.58" x2="567.17" y2="329.51"/><line class="cls-18" x1="613.4" y1="315.2" x2="596.89" y2="324.74"/><path class="cls-14" d="M616.49,297a.5.5,0,0,1-.43-.25.51.51,0,0,1,.18-.69l8.67-5a.5.5,0,1,1,.5.86l-8.67,5A.59.59,0,0,1,616.49,297Z"/><path class="cls-14" d="M642.39,312l1.73,1a.57.57,0,0,0,.25.06.52.52,0,0,0,.44-.25.51.51,0,0,0-.19-.68l-1.21-.7-1,.55Z"/><path class="cls-14" d="M642,311.14l.46-.26-27.82-16.06a.51.51,0,0,0-.68.19.5.5,0,0,0,.18.68l27.61,15.94A.51.51,0,0,1,642,311.14Z"/><path class="cls-14" d="M651.3,306.32a.49.49,0,0,0-.68-.18l-8.21,4.74,1,.58,7.71-4.45A.51.51,0,0,0,651.3,306.32Z"/><path class="cls-14" d="M642,311.14a.51.51,0,0,0-.25.49l.69.4.06,0,1-.55-1-.58Z"/><line class="cls-19" x1="507.1" y1="359.65" x2="515.77" y2="354.64"/><path class="cls-14" d="M543.91,370.31l-1.52-.87a.5.5,0,0,1-.24.48l-.46.26,1.72,1a.5.5,0,0,0,.5-.87Z"/><path class="cls-14" d="M541.7,369,513.88,353a.5.5,0,1,0-.5.87l27.31,15.77,1-.55Z"/><path class="cls-14" d="M533,374.06a.51.51,0,0,0-.19.68.51.51,0,0,0,.44.25.57.57,0,0,0,.25-.06l8.21-4.75-1-.57Z"/><path class="cls-14" d="M542.39,369.44l-.69-.4-.05,0-1,.55,1,.57.46-.26A.5.5,0,0,0,542.39,369.44Z"/><ellipse class="cls-20" cx="543.73" cy="373.04" rx="339.15" ry="187.48" transform="translate(-94.71 208.11) rotate(-19.97)"/><polyline class="cls-21" points="255 301 263.85 271.86 196.68 264.39 255 301"/><polyline class="cls-21" points="285 245 253.37 169.25 208.77 193.18 285 284"/><path class="cls-4" d="M350.28,113.18l-11,6.35,117.07,67.6,49.38-28.51L395.13,94.25A207.61,207.61,0,0,0,350.28,113.18Z"/><path class="cls-22" d="M443,85a255.66,255.66,0,0,0-47.88,9.24l110.59,64.37,29.64-17.11Z"/><path class="cls-4" d="M558.11,104.56C528.11,87.24,485.5,80.9,443,85l92.35,56.5,43.37-25Z"/><polygon class="cls-23" points="83.51 365.76 83.51 369.9 112.79 369.9 112.79 365.53 83.51 365.76"/><ellipse class="cls-23" cx="98.15" cy="369.46" rx="14.64" ry="7.94"/><path class="cls-24" d="M98.35,358.27h-.2c-8.08,0-14.64,3.56-14.64,7.94s6.56,7.94,14.64,7.94,14.64-3.55,14.64-7.94a4.91,4.91,0,0,0-.06-.67A39.34,39.34,0,0,1,98.35,358.27Z"/><path class="cls-24" d="M98.35,358.27a39.34,39.34,0,0,0,14.38,7.26C112.1,361.49,105.92,358.32,98.35,358.27Z"/><polygon class="cls-23" points="95.3 88.58 95.3 367.09 101 367.09 101 88.53 95.3 88.58"/><ellipse class="cls-23" cx="98.15" cy="367" rx="2.85" ry="1.55"/><ellipse class="cls-22" cx="98.15" cy="88.66" rx="2.85" ry="1.55"/><polygon class="cls-21" points="274.83 211.58 251.23 171.63 256.34 168.56 281.67 208.8 274.83 211.58"/><polygon class="cls-21" points="359.83 168.58 336.23 128.63 341.34 125.56 366.67 165.8 359.83 168.58"/><path class="cls-25" d="M675.76-535.56H641.62a1.52,1.52,0,0,0-1.55,1.49v32.66a1.51,1.51,0,0,0,1.55,1.48h18.23v-13.36H655.2v-5.57h4.65v-4.45c0-4.6,3-6.87,7.34-6.87,2.06,0,3.82.15,4.34.21v4.81h-3c-2.33,0-2.88,1.06-2.88,2.61v3.68h5.82l-1.16,5.57h-4.66l.1,13.36h10a1.51,1.51,0,0,0,1.55-1.48v-32.66a1.52,1.52,0,0,0-1.55-1.49"/><g class="cls-26"><rect class="cls-27" x="-929.19" y="-901.55" width="1658.32" height="6761.23"/></g><path class="cls-25" d="M565.31-528.55a15.62,15.62,0,0,1-4.39,1.16,7.41,7.41,0,0,0,3.36-4.07,15.66,15.66,0,0,1-4.85,1.78,7.76,7.76,0,0,0-5.58-2.32,7.5,7.5,0,0,0-7.64,7.36,7.15,7.15,0,0,0,.2,1.68,22,22,0,0,1-15.75-7.69,7.08,7.08,0,0,0-1,3.7,7.29,7.29,0,0,0,3.4,6.12,7.88,7.88,0,0,1-3.46-.92v.09a7.45,7.45,0,0,0,6.13,7.22,7.8,7.8,0,0,1-2,.26,8.57,8.57,0,0,1-1.44-.13,7.63,7.63,0,0,0,7.14,5.11,15.74,15.74,0,0,1-9.49,3.15,15.47,15.47,0,0,1-1.82-.11,22.19,22.19,0,0,0,11.71,3.31,21.17,21.17,0,0,0,21.74-20.94c0-.32,0-.63,0-1a15.16,15.16,0,0,0,3.81-3.81"/><g class="cls-28"><rect class="cls-27" x="-1041.19" y="-844.55" width="1658.32" height="6761.23"/></g><path class="cls-25" d="M779.89-535.64h-28.4a4.33,4.33,0,0,0-4.42,4.23v27.17a4.33,4.33,0,0,0,4.42,4.23h28.4a4.33,4.33,0,0,0,4.42-4.23v-27.17a4.33,4.33,0,0,0-4.42-4.23m-5.62,4.86h3.89c.71,0,1.3.44,1.3,1v2.92c0,.53-.59,1-1.3,1h-3.89c-.71,0-1.29-.44-1.29-1v-2.92c0-.53.58-1,1.29-1m-8.58,6.48c4,0,7.29,2.9,7.29,6.48s-3.27,6.47-7.29,6.47-7.29-2.9-7.29-6.47,3.27-6.48,7.29-6.48m14.2,21h-28.4a1.15,1.15,0,0,1-1.18-1.11v-16.7H755a6.43,6.43,0,0,0-.83,3.38c0,6,5.17,10.81,11.52,10.81s11.52-4.85,11.52-10.81a5.4,5.4,0,0,0-.91-3.38h4.73v16.7a1.15,1.15,0,0,1-1.18,1.11"/><g class="cls-29"><rect class="cls-27" x="-822.19" y="-961.55" width="1658.32" height="6761.23"/></g><path class="cls-30" d="M779.89-584.64h-28.4a4.33,4.33,0,0,0-4.42,4.23v27.17a4.33,4.33,0,0,0,4.42,4.23h28.4a4.33,4.33,0,0,0,4.42-4.23v-27.17a4.33,4.33,0,0,0-4.42-4.23m-5.62,4.86h3.89c.71,0,1.3.44,1.3,1v2.92c0,.53-.59,1-1.3,1h-3.89c-.71,0-1.29-.44-1.29-1v-2.92c0-.53.58-1,1.29-1m-8.58,6.48c4,0,7.29,2.9,7.29,6.48s-3.27,6.47-7.29,6.47-7.29-2.9-7.29-6.47,3.27-6.48,7.29-6.48m14.2,21h-28.4a1.15,1.15,0,0,1-1.18-1.11v-16.7H755a6.43,6.43,0,0,0-.83,3.38c0,6,5.17,10.81,11.52,10.81s11.52-4.85,11.52-10.81a5.4,5.4,0,0,0-.91-3.38h4.73v16.7a1.15,1.15,0,0,1-1.18,1.11"/><g class="cls-31"><rect class="cls-32" x="-822.19" y="-1010.55" width="1658.32" height="6761.23"/></g></g><g id="stadium"><polygon class="cls-23" points="268.8 212.22 268.8 214.44 284.5 214.44 284.5 212.1 268.8 212.22"/><ellipse class="cls-23" cx="276.65" cy="214.21" rx="7.85" ry="4.26"/><ellipse class="cls-14" cx="276.65" cy="212.46" rx="7.85" ry="4.26"/><polygon class="cls-23" points="272.32 210.72 272.32 211.94 280.98 211.94 280.98 210.65 272.32 210.72"/><ellipse class="cls-23" cx="276.65" cy="211.82" rx="4.33" ry="2.35"/><ellipse class="cls-14" cx="276.65" cy="210.85" rx="4.33" ry="2.35"/><path class="cls-33" d="M280.5,101.89l-7.7.06V202.79a87.14,87.14,0,0,0,7.7-23.14Z"/><path class="cls-14" d="M272.8,202.79v7.93h7.7V179.65A87.14,87.14,0,0,1,272.8,202.79Z"/><ellipse class="cls-14" cx="276.65" cy="210.6" rx="3.85" ry="2.09"/><ellipse class="cls-22" cx="276.65" cy="102.06" rx="3.85" ry="2.09"/><polygon class="cls-23" points="352.8 164.22 352.8 166.44 368.5 166.44 368.5 164.1 352.8 164.22"/><ellipse class="cls-23" cx="360.65" cy="166.21" rx="7.85" ry="4.26"/><ellipse class="cls-14" cx="360.65" cy="164.46" rx="7.85" ry="4.26"/><polygon class="cls-23" points="356.32 162.72 356.32 163.94 364.98 163.94 364.98 162.65 356.32 162.72"/><ellipse class="cls-23" cx="360.65" cy="163.82" rx="4.33" ry="2.35"/><ellipse class="cls-14" cx="360.65" cy="162.85" rx="4.33" ry="2.35"/><path class="cls-33" d="M364.5,53.89l-7.7.06V154.79a87.14,87.14,0,0,0,7.7-23.14Z"/><path class="cls-14" d="M356.8,154.79v7.93h7.7V131.65A87.14,87.14,0,0,1,356.8,154.79Z"/><ellipse class="cls-14" cx="360.65" cy="162.6" rx="3.85" ry="2.09"/><ellipse class="cls-22" cx="360.65" cy="54.06" rx="3.85" ry="2.09"/><polygon class="cls-33" points="462.42 0.77 446.87 10.01 446.87 71.91 539 125.1 539 99.51 462.42 0.77"/><line class="cls-33" x1="456.74" y1="149.12" x2="538.95" y2="99.32"/><polyline class="cls-33" points="538.92 118.96 538.92 139.36 504.86 120.59 538.95 100.86"/><polygon class="cls-23" points="455.16 147.09 437 136.69 520.76 87.37 538.92 97.72 455.16 147.09"/><polygon class="cls-22" points="455.16 147.09 538.95 97.72 538.94 100.51 455.15 149.89 455.16 147.09"/><polygon class="cls-23" points="452.52 142.68 434.36 132.28 518.12 82.95 536.28 93.3 452.52 142.68"/><polygon class="cls-22" points="452.52 142.68 536.31 93.3 536.3 96.09 452.51 145.47 452.52 142.68"/><polygon class="cls-23" points="449.88 138.26 431.72 127.86 515.48 78.53 533.64 88.89 449.88 138.26"/><polygon class="cls-22" points="449.88 138.26 533.68 88.89 533.66 91.68 449.87 141.05 449.88 138.26"/><polygon class="cls-23" points="447.25 133.84 429.09 123.44 512.84 74.11 531 84.47 447.25 133.84"/><polygon class="cls-22" points="447.25 133.84 531.04 84.47 531.03 87.26 447.24 136.63 447.25 133.84"/><polygon class="cls-23" points="444.61 129.43 426.45 119.02 510.21 69.7 528.37 80.05 444.61 129.43"/><polygon class="cls-22" points="444.61 129.43 528.4 80.05 528.39 82.84 444.6 132.22 444.61 129.43"/><polygon class="cls-23" points="441.97 125.01 423.81 114.61 507.57 65.28 525.73 75.63 441.97 125.01"/><polygon class="cls-22" points="441.97 125.01 525.76 75.63 525.75 78.42 441.96 127.8 441.97 125.01"/><polygon class="cls-23" points="439.33 120.59 421.17 110.19 504.93 60.86 523.09 71.22 439.33 120.59"/><polygon class="cls-22" points="439.33 120.59 523.13 71.22 523.12 74.01 439.32 123.38 439.33 120.59"/><polygon class="cls-23" points="436.7 116.17 418.54 105.77 502.29 56.45 520.45 66.8 436.7 116.17"/><polygon class="cls-22" points="436.7 116.17 520.49 66.8 520.48 69.59 436.69 118.96 436.7 116.17"/><polygon class="cls-23" points="434.06 111.76 415.9 101.35 499.66 52.03 517.82 62.38 434.06 111.76"/><polygon class="cls-22" points="434.06 111.76 517.85 62.38 517.84 65.17 434.05 114.55 434.06 111.76"/><polygon class="cls-23" points="430.88 107.02 412.72 96.61 496.48 47.29 514.64 57.64 430.88 107.02"/><polygon class="cls-22" points="430.88 107.02 514.68 57.64 514.66 60.43 430.87 109.81 430.88 107.02"/><polygon class="cls-33" points="437.84 137.19 437.85 136.89 452.51 145.47 452.52 142.68 437.93 134.34 437.94 134.07 449.87 141.05 449.88 138.26 438.03 131.48 438.04 131.25 447.24 136.63 447.25 133.84 438.13 128.63 438.13 128.43 444.6 132.22 444.61 129.43 435.02 123.94 434.7 123.55 441.96 127.8 441.97 125.01 430.57 118.49 430.21 118.05 439.32 123.38 439.33 120.59 426.12 113.04 425.73 112.55 436.69 118.96 436.7 116.17 421.67 107.58 421.24 107.05 434.05 114.55 434.06 111.76 417.22 102.13 416.74 101.54 430.87 109.81 430.88 107.02 412.75 96.65 412.72 96.61 412.72 96.63 412.69 96.61 412.68 99.16 412.71 99.18 412.61 125.21 437.75 139.71 455.15 149.89 455.16 147.09 437.84 137.19"/><polygon class="cls-23" points="420.51 100.13 402.35 89.73 486.11 40.4 504.27 50.76 420.51 100.13"/><polygon class="cls-22" points="420.51 100.13 504.31 50.76 504.3 53.55 420.5 102.92 420.51 100.13"/><polygon class="cls-23" points="417.88 95.71 399.72 85.31 483.47 35.98 501.63 46.34 417.88 95.71"/><polygon class="cls-22" points="417.88 95.71 501.67 46.34 501.66 49.13 417.87 98.5 417.88 95.71"/><polygon class="cls-23" points="415.24 91.3 397.08 80.89 480.84 31.57 499 41.92 415.24 91.3"/><polygon class="cls-22" points="415.24 91.3 499.03 41.92 499.02 44.71 415.23 94.09 415.24 91.3"/><polygon class="cls-23" points="412.6 86.88 394.44 76.48 478.2 27.15 496.36 37.5 412.6 86.88"/><polygon class="cls-22" points="412.6 86.88 496.39 37.5 496.38 40.29 412.59 89.67 412.6 86.88"/><polygon class="cls-23" points="409.96 82.46 391.8 72.06 475.56 22.73 493.72 33.09 409.96 82.46"/><polygon class="cls-22" points="409.96 82.46 493.75 33.09 493.74 35.88 409.95 85.25 409.96 82.46"/><polygon class="cls-23" points="407.33 78.04 389.17 67.64 472.92 18.32 491.08 28.67 407.33 78.04"/><polygon class="cls-22" points="407.33 78.04 491.12 28.67 491.11 31.46 407.31 80.83 407.33 78.04"/><polygon class="cls-23" points="404.69 73.63 386.53 63.22 470.29 13.9 488.45 24.25 404.69 73.63"/><polygon class="cls-22" points="404.69 73.63 488.48 24.25 488.47 27.04 404.68 76.42 404.69 73.63"/><polygon class="cls-23" points="402.05 69.21 383.89 58.81 467.65 9.48 485.81 19.83 402.05 69.21"/><polygon class="cls-22" points="402.05 69.21 485.84 19.83 485.83 22.62 402.04 72 402.05 69.21"/><polygon class="cls-23" points="399.41 64.79 381.25 54.39 465.01 5.06 483.17 15.42 399.41 64.79"/><polygon class="cls-22" points="399.41 64.79 483.2 15.42 483.19 18.21 399.4 67.58 399.41 64.79"/><polygon class="cls-23" points="396.24 60.05 378.08 49.65 461.84 0.33 480 10.68 396.24 60.05"/><polygon class="cls-22" points="396.24 60.05 480.03 10.68 480.02 13.47 396.23 62.84 396.24 60.05"/><polygon class="cls-33" points="403.19 90.22 403.2 89.92 417.87 98.5 417.88 95.71 403.29 87.37 403.3 87.11 415.23 94.09 415.24 91.3 403.38 84.52 403.39 84.29 412.59 89.67 412.6 86.88 403.48 81.66 403.49 81.47 409.95 85.25 409.96 82.46 400.37 76.98 400.05 76.58 407.31 80.83 407.33 78.04 395.92 71.52 395.57 71.09 404.68 76.42 404.69 73.63 391.48 66.07 391.08 65.59 402.04 72 402.05 69.21 387.03 60.62 386.59 60.09 399.4 67.58 399.41 64.79 382.58 55.16 382.1 54.58 396.23 62.84 396.24 60.05 378.11 49.69 378.08 49.65 378.08 49.67 378.04 49.65 378.03 52.2 378.07 52.22 377.97 78.24 403.11 92.74 420.5 102.92 420.51 100.13 403.19 90.22"/><path class="cls-34" d="M420.72,97.81,393.51,58.47l-15.55-9v92.1l5.57,3.21C394,127.58,406,111.43,420.72,97.81Z"/><path class="cls-33" d="M456.15,149,420.72,97.81c-14.76,13.62-26.74,29.77-37.19,47l72.62,41.92Z"/><polygon class="cls-33" points="534.33 141.67 534.85 102.92 538.92 100.08 538.95 139.36 534.33 141.67"/><path class="cls-22" d="M535,106.38l.06-3.21-34.64,18.48,8.82,5.21C515.43,117.86,524.75,111.13,535,106.38Z"/><path class="cls-35" d="M535,106.38c-10.29,4.75-19.61,11.48-25.76,20.48l25.05,14.81Z"/><polygon class="cls-23" points="455.8 187.09 508.93 156.3 508.54 117.74 455.62 148.27 455.8 187.09"/><path class="cls-23" d="M217.46,145.68c.65.63,1.32,1.24,2,1.82-.72-.58-1.39-1.19-2-1.82L210,141.54a18.32,18.32,0,0,0,5.47,6h0l.05,0a15,15,0,0,0,1.74,1l54.21,31c2.53,1.44,5.92,1.27,8.33.87Z"/><path class="cls-23" d="M354.5,9.5c5,2,9,6,14,9,4.87,2.27,9.74,4.44,14.55,6.68L352.61,7.78a11.4,11.4,0,0,0-7.56-2.08,22.17,22.17,0,0,0-9.41,2.07h-.05a33.87,33.87,0,0,0-3,1.56L314.85,19.56C327.48,12.68,340.37,4,354.5,9.5Z"/><path class="cls-14" d="M407.09,38.92l-24-13.74c-4.81-2.24-9.68-4.41-14.55-6.68-5-3-9-7-14-9-14.13-5.49-27,3.18-39.65,10.06L236.36,64.88C222.37,73,210.58,92.3,207,111.5c-1.19,12.63,1.41,25.42,10.51,34.18l62.37,34.69a21.55,21.55,0,0,0,3-.7l105.77-60.46C430.66,78.93,407.09,38.92,407.09,38.92Z"/><path class="cls-23" d="M207,111.5a64,64,0,0,0-1.17,11.81h0c0,7.55,1.55,13.72,4.24,18.23l7.44,4.14C208.36,136.92,205.76,124.13,207,111.5Z"/><path class="cls-33" d="M397.67,110.81l-67.78-39L284.17,98.42s-23.49,20.65-25.58,49.87c0,0-2.83,36.49,22,32.35L385.87,121S394.85,114.11,397.67,110.81Z"/><path class="cls-34" d="M385.57,39.61,363.88,52.13l14.2,8.09c9-8.66,19.6-15.29,32-18.43C404.54,35.08,395.63,33.81,385.57,39.61Z"/><path class="cls-33" d="M293.5,153.5a296.26,296.26,0,0,1,27.5-21l-57.45,32.36L259,162.3c2,11.13,8.25,17.74,16.57,18.29C277.79,169.92,285.37,160.89,293.5,153.5Z"/><path class="cls-33" d="M416.2,62.7c0-9.17-2.25-16.32-6.08-20.91-12.44,3.14-23.05,9.77-32,18.43l35.41,20.19-56.31,31.72a220.57,220.57,0,0,1,50.44-16.27c5.29-10.38,8.56-22.2,8.58-33.16Z"/><path class="cls-23" d="M321,132.52a296.26,296.26,0,0,0-27.5,21c-8.13,7.39-15.71,16.42-17.9,27.09,4,.27,8.55-.88,13.34-3.64l96.51-55.72c8.71-5,16.57-14.4,22.17-25.37a220.57,220.57,0,0,0-50.44,16.27Z"/><path class="cls-14" d="M413.49,80.41,363.88,52.13l-74.82,43.2c-16.95,9.79-30.71,36-30.75,58.53h0a47.09,47.09,0,0,0,.72,8.44l4.52,2.58Z"/><polygon class="cls-36" points="413.56 80.41 263.55 164.88 263.55 170.95 411.22 87.79 413.56 80.47 413.56 80.41"/><polygon class="cls-37" points="263.55 164.88 258.81 162.17 260.97 169.45 263.55 170.95 263.55 164.88"/><path class="cls-38" d="M385.57,39.61,363.88,52.13l-74.82,43.2c-16.95,9.79-30.71,36-30.75,58.53h0a47.09,47.09,0,0,0,.72,8.44c3,16.52,15.25,23.11,29.91,14.65l96.51-55.72c16.95-9.79,30.71-36,30.75-58.53h0C416.23,40.16,402.52,29.82,385.57,39.61Z"/><path class="cls-23" d="M258.31,154.69s.26,6.42.72,7.61l4.47,2.2,150-84a1.81,1.81,0,0,0,0-.2l-14-7.94Z"/><line class="cls-39" x1="281" y1="101.5" x2="281" y2="180.64"/><line class="cls-40" x1="315" y1="161.22" x2="315" y2="80.36"/><line class="cls-40" x1="349" y1="141.59" x2="349" y2="60.73"/><line class="cls-40" x1="383.36" y1="122.35" x2="383" y2="41.1"/><line class="cls-40" x1="261.79" y1="133.05" x2="412.78" y2="45.88"/><line class="cls-41" x1="258.5" y1="154.5" x2="399" y2="73"/><line class="cls-41" x1="262.43" y1="171.95" x2="412.01" y2="85.63"/><polygon class="cls-33" points="208.42 145.77 192.87 155.01 192.87 216.91 285 270.1 285 244.51 208.42 145.77"/><line class="cls-33" x1="202.74" y1="294.12" x2="284.95" y2="244.32"/><polyline class="cls-33" points="284.92 263.96 284.92 284.36 250.86 265.59 284.95 245.86"/><polygon class="cls-23" points="201.16 292.1 183 281.69 266.76 232.37 284.92 242.72 201.16 292.1"/><polygon class="cls-22" points="201.16 292.1 284.95 242.72 284.94 245.51 201.15 294.89 201.16 292.1"/><polygon class="cls-23" points="198.52 287.68 180.36 277.27 264.12 227.95 282.28 238.3 198.52 287.68"/><polygon class="cls-22" points="198.52 287.68 282.31 238.3 282.3 241.09 198.51 290.47 198.52 287.68"/><polygon class="cls-23" points="195.88 283.26 177.72 272.86 261.48 223.53 279.64 233.88 195.88 283.26"/><polygon class="cls-22" points="195.88 283.26 279.68 233.88 279.67 236.68 195.87 286.05 195.88 283.26"/><polygon class="cls-23" points="193.25 278.84 175.09 268.44 258.84 219.12 277 229.47 193.25 278.84"/><polygon class="cls-22" points="193.25 278.84 277.04 229.47 277.03 232.26 193.24 281.63 193.25 278.84"/><polygon class="cls-23" points="190.61 274.43 172.45 264.02 256.21 214.7 274.37 225.05 190.61 274.43"/><polygon class="cls-22" points="190.61 274.43 274.4 225.05 274.39 227.84 190.6 277.22 190.61 274.43"/><polygon class="cls-23" points="187.97 270.01 169.81 259.61 253.57 210.28 271.73 220.63 187.97 270.01"/><polygon class="cls-22" points="187.97 270.01 271.76 220.63 271.75 223.42 187.96 272.8 187.97 270.01"/><polygon class="cls-23" points="185.33 265.59 167.17 255.19 250.93 205.86 269.09 216.22 185.33 265.59"/><polygon class="cls-22" points="185.33 265.59 269.13 216.22 269.12 219.01 185.32 268.38 185.33 265.59"/><polygon class="cls-23" points="182.7 261.17 164.54 250.77 248.29 201.44 266.45 211.8 182.7 261.17"/><polygon class="cls-22" points="182.7 261.17 266.49 211.8 266.48 214.59 182.69 263.96 182.7 261.17"/><polygon class="cls-23" points="180.06 256.76 161.9 246.35 245.66 197.03 263.82 207.38 180.06 256.76"/><polygon class="cls-22" points="180.06 256.76 263.85 207.38 263.84 210.17 180.05 259.55 180.06 256.76"/><polygon class="cls-23" points="176.88 252.02 158.72 241.62 242.48 192.29 260.64 202.64 176.88 252.02"/><polygon class="cls-22" points="176.88 252.02 260.68 202.64 260.67 205.43 176.87 254.81 176.88 252.02"/><polygon class="cls-33" points="183.84 282.19 183.85 281.89 198.51 290.47 198.52 287.68 183.93 279.34 183.94 279.07 195.87 286.05 195.88 283.26 184.03 276.48 184.04 276.25 193.24 281.63 193.25 278.84 184.13 273.63 184.13 273.43 190.6 277.22 190.61 274.43 181.02 268.94 180.7 268.55 187.96 272.8 187.97 270.01 176.57 263.49 176.21 263.05 185.32 268.38 185.33 265.59 172.12 258.04 171.73 257.55 182.69 263.96 182.7 261.17 167.67 252.58 167.24 252.05 180.05 259.55 180.06 256.76 163.22 247.13 162.74 246.54 176.87 254.81 176.88 252.02 158.75 241.65 158.72 241.62 158.72 241.63 158.69 241.62 158.68 244.16 158.71 244.18 158.61 270.21 183.75 284.71 201.15 294.89 201.16 292.1 183.84 282.19"/><polygon class="cls-23" points="166.51 245.13 148.35 234.73 232.11 185.4 250.27 195.75 166.51 245.13"/><polygon class="cls-22" points="166.51 245.13 250.31 195.75 250.29 198.55 166.5 247.92 166.51 245.13"/><polygon class="cls-23" points="163.88 240.71 145.72 230.31 229.47 180.99 247.63 191.34 163.88 240.71"/><polygon class="cls-22" points="163.88 240.71 247.67 191.34 247.66 194.13 163.87 243.5 163.88 240.71"/><polygon class="cls-23" points="161.24 236.3 143.08 225.89 226.84 176.57 245 186.92 161.24 236.3"/><polygon class="cls-22" points="161.24 236.3 245.03 186.92 245.02 189.71 161.23 239.09 161.24 236.3"/><polygon class="cls-23" points="158.6 231.88 140.44 221.48 224.2 172.15 242.36 182.5 158.6 231.88"/><polygon class="cls-22" points="158.6 231.88 242.39 182.5 242.38 185.29 158.59 234.67 158.6 231.88"/><polygon class="cls-23" points="155.96 227.46 137.8 217.06 221.56 167.73 239.72 178.09 155.96 227.46"/><polygon class="cls-22" points="155.96 227.46 239.75 178.09 239.74 180.88 155.95 230.25 155.96 227.46"/><polygon class="cls-23" points="153.33 223.04 135.16 212.64 218.92 163.31 237.08 173.67 153.33 223.04"/><polygon class="cls-22" points="153.33 223.04 237.12 173.67 237.11 176.46 153.31 225.83 153.33 223.04"/><polygon class="cls-23" points="150.69 218.63 132.53 208.22 216.29 158.9 234.45 169.25 150.69 218.63"/><polygon class="cls-22" points="150.69 218.63 234.48 169.25 234.47 172.04 150.68 221.42 150.69 218.63"/><polygon class="cls-23" points="148.05 214.21 129.89 203.81 213.65 154.48 231.81 164.83 148.05 214.21"/><polygon class="cls-22" points="148.05 214.21 231.84 164.83 231.83 167.62 148.04 217 148.05 214.21"/><polygon class="cls-23" points="145.41 209.79 127.25 199.39 211.01 150.06 229.17 160.42 145.41 209.79"/><polygon class="cls-22" points="145.41 209.79 229.21 160.42 229.19 163.21 145.4 212.58 145.41 209.79"/><polygon class="cls-23" points="142.24 205.05 124.08 194.65 207.84 145.32 226 155.68 142.24 205.05"/><polygon class="cls-22" points="142.24 205.05 226.03 155.68 226.02 158.47 142.23 207.84 142.24 205.05"/><polygon class="cls-33" points="149.19 235.22 149.2 234.92 163.87 243.5 163.88 240.71 149.29 232.37 149.29 232.1 161.23 239.09 161.24 236.3 149.38 229.52 149.39 229.29 158.59 234.67 158.6 231.88 149.48 226.66 149.49 226.47 155.95 230.25 155.96 227.46 146.37 221.98 146.05 221.59 153.31 225.83 153.33 223.04 141.92 216.52 141.57 216.09 150.68 221.42 150.69 218.63 137.47 211.07 137.08 210.59 148.04 217 148.05 214.21 133.03 205.62 132.59 205.09 145.4 212.58 145.41 209.79 128.58 200.16 128.1 199.58 142.23 207.84 142.24 205.05 124.11 194.69 124.08 194.65 124.08 194.67 124.04 194.65 124.03 197.2 124.07 197.22 123.97 223.24 149.1 237.74 166.5 247.92 166.51 245.13 149.19 235.22"/><polygon class="cls-33" points="139.51 203.47 123.96 194.49 123.96 286.58 202.15 331.73 202.15 294.03 139.51 203.47"/><polygon class="cls-33" points="280.33 286.67 280.85 247.92 284.92 245.08 284.95 284.36 280.33 286.67"/><path class="cls-22" d="M281,251.38l.06-3.21-34.64,18.48,8.82,5.21C261.43,262.86,270.75,256.13,281,251.38Z"/><path class="cls-35" d="M281,251.38c-10.29,4.75-19.61,11.48-25.76,20.48l25,14.81Z"/><polygon class="cls-23" points="201.8 332.09 254.93 301.3 254.54 262.74 201.62 293.27 201.8 332.09"/><ellipse class="cls-42" cx="610" cy="250" rx="1.09" ry="0.62" transform="translate(-21.13 59.54) rotate(-5.49)"/><path class="cls-42" d="M639,253.27l-.32-.59-1.79-.55L633,251.05l-4.5-.69a1.68,1.68,0,0,0-.77-1.17,3.49,3.49,0,0,1-1.13-1.14l-.77-.23-.41-.28-.6.06-.36,0-.06-.41c-.05-.41-.31-.49-.31-.49l-.51-.16-.89-.22-.72.07a.53.53,0,0,0-.44.36c0,.15.06.24.17.3l.28.28,0,.73.53.26h0l-.45.25a3.49,3.49,0,0,1-1.09.11,10.69,10.69,0,0,1-1.28-.39l-1.68-.66h0l-.89-.34c-.25-.08-.43-.48-.43-.48l0-.2v-.11l-.22.23c-.1.12.17.3-.08.32a3.77,3.77,0,0,1-1-.31l-.24,0,.55.47-.75-.13,0,.1.76.23-.72.08v.1l.76.13-.34.24,0,.11,1.32-.14.7.39,0,.07s4.22,1.34,4.62,1.61.34.7,1,1.15,3.07,1.88,3.07,1.88l2.58,1,2.85.23,3,.23,2.22.09s.93.53,1.28.39.68-.38.39-.66a3.53,3.53,0,0,0-.81-.55l-.27-.18,1.27.29C639.15,253.67,639,253.27,639,253.27Zm-14.82-5.61h0Z"/><path class="cls-14" d="M610.4,240.69s5.1,1.91,5.59,2.3.42,1,1.23,1.63,3.72,2.66,3.72,2.66l3.12,1.41,3.44.33,3.59.32,2.67.13s1.13.75,1.55.56.82-.54.48-.95a4.5,4.5,0,0,0-1-.77l-.32-.26,1.52.42a.78.78,0,0,0,.48-.95l-.39-.84-2.16-.78-4.62-1.53-5.44-1a2.53,2.53,0,0,0-.94-1.67,4.66,4.66,0,0,1-1.37-1.61l-.93-.33-.49-.39-.73.09-2,.24.09.73-.88.1-.55.36a3.61,3.61,0,0,1-1.31.15,12.82,12.82,0,0,1-1.54-.55l-2-.95-.53.51Z"/><path class="cls-43" d="M610.54,240.67l-1-.63-1.6.19,0-.14.4-.35-.91-.18v-.15l.87-.1-.92-.34,0-.14.91.18-.67-.66.29,0a4.36,4.36,0,0,0,1.24.45c.29,0,0-.3.09-.46l.26-.33,0,.15,0,.29s.21.57.52.68,1.56.7,1.56.7l-.36.64Z"/><path class="cls-44" d="M616,238.85s-.6-.08-.51-.53a.64.64,0,0,1,.53-.51l.88-.1,1.07.32.62.22s.31.11.38.69l.08.73-.46-.12-1-.89-1.34-.14Z"/><path class="cls-45" d="M618.21,239.18l-.07-.59a6,6,0,0,0-1.38-.43h0c.81.37,1.21,1.31,1.8,1.77l.18-.22Z"/><path class="cls-43" d="M616.73,238.16a.88.88,0,0,0-1.09.58l.34.4,0,1,.63.37,1.22.3.72-.92C617.94,239.47,617.54,238.53,616.73,238.16Z"/><path class="cls-23" d="M620.25,241.45a18.07,18.07,0,0,1,2,2.27l.12,1-1.41,1.8.52.68.37-.64,1.74-1.54-.38-.69Z"/><polygon class="cls-23" points="625.88 246.55 627.83 246.77 630.07 246.95 632.5 247.52 633.41 247.74 631.71 247.05 628.38 246.41 625.83 246.12 625.88 246.55"/><polyline class="cls-43" points="623.99 245.59 623.93 246.34 623.97 246.63 624.42 246.72 624.45 247.02 624.63 247.29 624.93 247.26 625.24 247.37 625.2 247.08 625.33 246.91 625.29 246.62 625.44 246.6 625.37 246.02 624.83 245.2 623.85 245.61"/></g><g id="layer"><circle class="cls-46" cx="606" cy="242" r="0.68"/><path class="cls-46" d="M606,241.23a.77.77,0,1,0,0,1.54.72.72,0,0,0,.29-.06,2.62,2.62,0,0,0,.38-1.1A.79.79,0,0,0,606,241.23Z"/><path class="cls-46" d="M606.79,242a.72.72,0,0,0-.12-.39,2.62,2.62,0,0,1-.38,1.1A.77.77,0,0,0,606.79,242Z"/><path class="cls-42" d="M666.57,247.75l-.72-.41h0l-.71-.42-.83.48h0L663.2,247a5.53,5.53,0,0,0-1.07-.42c-.77-.25-2,.26-2.77.39a11.8,11.8,0,0,0-2.74,1.41l-1.65.44-1.32.24-1.8.35-1.46.15-1,.41-1.31.24s-.35.2.22.73,1.64-.25,1.64-.25l1,0,1.94-.08a9,9,0,0,0,1.65-.44,9.08,9.08,0,0,1,2.26-.09l.67,0c0,.08,0,.17.1.2s.15.09.47.08l.32,0,.2-.2h.14l-.75,1-.25.66-.39.57L656,253.53l-.06.56a.67.67,0,0,0,.4.63c.45.26,1,0,1.29-.05s.09-.74.09-.74l.73-.77.91-.87,1.45-1.36s1.14-.14,2.11-.18a5.67,5.67,0,0,0,2-.64c.45-.14.33-1,.2-1.51l.65-.37c.35-.21.42-.4.38-.55Z"/><text class="cls-47" transform="matrix(0.75, -0.43, 0.87, 0.5, 261.5, 82.17)">KO<tspan class="cls-48" x="39.55" y="0">R</tspan><tspan x="55.59" y="0">TRIJK</tspan></text><text class="cls-49" transform="matrix(0.75, -0.43, 0.87, 0.5, 291.8, 82.68)"><tspan class="cls-50">W</tspan><tspan x="16.7" y="0">ARRIORS</tspan></text><path class="cls-21" d="M623.71,136.89l-2.49.69,11.7,11.7.38-.1a23.39,23.39,0,0,1-3.67-6.37Z"/><path class="cls-21" d="M629.63,142.81a23.39,23.39,0,0,0,3.67,6.37l2.13-.57Z"/><ellipse class="cls-21" cx="634.14" cy="148.91" rx="1.38" ry="0.66" transform="translate(-7.99 39.49) rotate(-3.54)"/><ellipse class="cls-21" cx="622.51" cy="137.27" rx="1.38" ry="0.66" transform="translate(-7.3 38.75) rotate(-3.54)"/><path class="cls-21" d="M621.66,142.07c2.86,1.3,5.52,1.86,7.33,1.37,3.84-1,2.53-6.3-2.94-11.77-5.33-5.32-12.62-8.86-16.54-8.09C610.81,130,615.28,136.25,621.66,142.07Z"/><path class="cls-21" d="M609.51,123.58c-.1,0-.22,0-.32.06-3.84,1-2.52,6.29,2.95,11.76a33.4,33.4,0,0,0,9.52,6.67C615.28,136.25,610.81,130,609.51,123.58Z"/><path class="cls-51" d="M635.86,129.85l-3.42,0v18.91H633a31.7,31.7,0,0,1,2.9-9.38Z"/><path class="cls-52" d="M635.86,139.41a31.7,31.7,0,0,0-2.9,9.38h2.9Z"/><ellipse class="cls-52" cx="634.15" cy="148.74" rx="1.71" ry="0.93"/><ellipse class="cls-22" cx="634.15" cy="129.93" rx="1.71" ry="0.93"/><path class="cls-4" d="M628.07,135.75c1.69,2.63,3.95,4.25,6.43,4.25,5.25,0,9.5-7.16,9.5-16,0-8.61-4-15.61-9.1-16A45.19,45.19,0,0,0,628.07,135.75Z"/><path class="cls-53" d="M634.9,108c-.13,0-.26,0-.4,0-5.25,0-9.5,7.16-9.5,16a22.1,22.1,0,0,0,3.07,11.75A45.19,45.19,0,0,1,634.9,108Z"/><path class="cls-21" d="M201.71,360.89l-2.49.69,11.7,11.7.38-.1a23.39,23.39,0,0,1-3.67-6.37Z"/><path class="cls-21" d="M207.63,366.81a23.39,23.39,0,0,0,3.67,6.37l2.13-.57Z"/><ellipse class="cls-21" cx="212.14" cy="372.91" rx="1.38" ry="0.66" transform="translate(-22.65 13.83) rotate(-3.54)"/><ellipse class="cls-21" cx="200.51" cy="361.27" rx="1.38" ry="0.66" transform="translate(-21.95 13.09) rotate(-3.54)"/><path class="cls-21" d="M199.66,366.07c2.86,1.3,5.52,1.86,7.33,1.37,3.84-1,2.53-6.3-2.94-11.77s-12.62-8.86-16.54-8.09C188.81,354,193.28,360.25,199.66,366.07Z"/><path class="cls-21" d="M187.51,347.58c-.1,0-.22,0-.32.06-3.84,1-2.52,6.29,2.95,11.76a33.4,33.4,0,0,0,9.52,6.67C193.28,360.25,188.81,354,187.51,347.58Z"/><path class="cls-51" d="M213.86,353.85l-3.42,0v18.91H211a31.7,31.7,0,0,1,2.9-9.38Z"/><path class="cls-52" d="M213.86,363.41a31.7,31.7,0,0,0-2.9,9.38h2.9Z"/><ellipse class="cls-52" cx="212.15" cy="372.74" rx="1.71" ry="0.93"/><ellipse class="cls-22" cx="212.15" cy="353.93" rx="1.71" ry="0.93"/><path class="cls-4" d="M206.07,359.75c1.69,2.63,4,4.25,6.43,4.25,5.25,0,9.5-7.16,9.5-16,0-8.61-4-15.61-9.1-16A45.19,45.19,0,0,0,206.07,359.75Z"/><path class="cls-53" d="M212.9,332c-.13,0-.26,0-.4,0-5.25,0-9.5,7.16-9.5,16a22.1,22.1,0,0,0,3.07,11.75A45.19,45.19,0,0,1,212.9,332Z"/><path class="cls-21" d="M584.71,146.89l-2.49.69,11.7,11.7.38-.1a23.39,23.39,0,0,1-3.67-6.37Z"/><path class="cls-21" d="M590.63,152.81a23.39,23.39,0,0,0,3.67,6.37l2.13-.57Z"/><ellipse class="cls-21" cx="595.14" cy="158.91" rx="1.38" ry="0.66" transform="translate(-8.69 37.1) rotate(-3.54)"/><ellipse class="cls-21" cx="583.51" cy="147.27" rx="1.38" ry="0.66" transform="translate(-7.99 36.36) rotate(-3.54)"/><path class="cls-21" d="M582.66,152.07c2.86,1.3,5.52,1.86,7.33,1.37,3.84-1,2.53-6.3-2.94-11.77-5.33-5.32-12.62-8.86-16.54-8.09C571.81,140,576.28,146.25,582.66,152.07Z"/><path class="cls-21" d="M570.51,133.58c-.1,0-.22,0-.32.06-3.84,1-2.52,6.29,2.95,11.76a33.4,33.4,0,0,0,9.52,6.67C576.28,146.25,571.81,140,570.51,133.58Z"/><path class="cls-51" d="M596.86,139.85l-3.42,0v18.91H594a31.7,31.7,0,0,1,2.9-9.38Z"/><path class="cls-52" d="M596.86,149.41a31.7,31.7,0,0,0-2.9,9.38h2.9Z"/><ellipse class="cls-52" cx="595.15" cy="158.74" rx="1.71" ry="0.93"/><ellipse class="cls-22" cx="595.15" cy="139.93" rx="1.71" ry="0.93"/><path class="cls-4" d="M589.07,145.75c1.69,2.63,3.95,4.25,6.43,4.25,5.25,0,9.5-7.16,9.5-16,0-8.61-4-15.61-9.1-16A45.19,45.19,0,0,0,589.07,145.75Z"/><path class="cls-53" d="M595.9,118c-.13,0-.26,0-.4,0-5.25,0-9.5,7.16-9.5,16a22.1,22.1,0,0,0,3.07,11.75A45.19,45.19,0,0,1,595.9,118Z"/><path class="cls-21" d="M556.71,118.89l-2.49.69,11.7,11.7.38-.1a23.39,23.39,0,0,1-3.67-6.37Z"/><path class="cls-21" d="M562.63,124.81a23.39,23.39,0,0,0,3.67,6.37l2.13-.57Z"/><ellipse class="cls-21" cx="567.14" cy="130.91" rx="1.38" ry="0.66" transform="translate(-7.01 35.32) rotate(-3.54)"/><ellipse class="cls-21" cx="555.51" cy="119.27" rx="1.38" ry="0.66" transform="translate(-6.31 34.58) rotate(-3.54)"/><path class="cls-54" d="M554.66,124.07c2.86,1.3,5.52,1.86,7.33,1.37,3.84-1,2.53-6.3-2.94-11.77s-12.62-8.86-16.54-8.09C543.81,112,548.28,118.25,554.66,124.07Z"/><path class="cls-54" d="M542.51,105.58c-.1,0-.22,0-.32.06-3.84,1-2.52,6.29,2.95,11.76a33.4,33.4,0,0,0,9.52,6.67C548.28,118.25,543.81,112,542.51,105.58Z"/><path class="cls-51" d="M568.86,111.85l-3.42,0v18.91H566a31.7,31.7,0,0,1,2.9-9.38Z"/><path class="cls-52" d="M568.86,121.41a31.7,31.7,0,0,0-2.9,9.38h2.9Z"/><ellipse class="cls-52" cx="567.15" cy="130.74" rx="1.71" ry="0.93"/><ellipse class="cls-22" cx="567.15" cy="111.93" rx="1.71" ry="0.93"/><path class="cls-4" d="M561.07,117.75c1.69,2.63,3.95,4.25,6.43,4.25,5.25,0,9.5-7.16,9.5-16,0-8.61-4-15.61-9.1-16A45.19,45.19,0,0,0,561.07,117.75Z"/><path class="cls-53" d="M567.9,90c-.13,0-.26,0-.4,0-5.25,0-9.5,7.16-9.5,16a22.1,22.1,0,0,0,3.07,11.75A45.19,45.19,0,0,1,567.9,90Z"/><path class="cls-21" d="M166.71,342.89l-2.49.69,11.7,11.7.38-.1a23.39,23.39,0,0,1-3.67-6.37Z"/><path class="cls-21" d="M172.63,348.81a23.39,23.39,0,0,0,3.67,6.37l2.13-.57Z"/><ellipse class="cls-21" cx="177.14" cy="354.91" rx="1.38" ry="0.66" transform="translate(-21.61 11.63) rotate(-3.54)"/><ellipse class="cls-21" cx="165.51" cy="343.27" rx="1.38" ry="0.66" transform="translate(-20.91 10.89) rotate(-3.54)"/><path class="cls-54" d="M164.66,348.07c2.86,1.3,5.52,1.86,7.33,1.37,3.84-1,2.53-6.3-2.94-11.77s-12.62-8.86-16.54-8.09C153.81,336,158.28,342.25,164.66,348.07Z"/><path class="cls-54" d="M152.51,329.58c-.1,0-.22,0-.32.06-3.84,1-2.52,6.29,2.95,11.76a33.4,33.4,0,0,0,9.52,6.67C158.28,342.25,153.81,336,152.51,329.58Z"/><path class="cls-51" d="M178.86,335.85l-3.42,0v18.91H176a31.7,31.7,0,0,1,2.9-9.38Z"/><path class="cls-52" d="M178.86,345.41a31.7,31.7,0,0,0-2.9,9.38h2.9Z"/><ellipse class="cls-52" cx="177.15" cy="354.74" rx="1.71" ry="0.93"/><ellipse class="cls-22" cx="177.15" cy="335.93" rx="1.71" ry="0.93"/><path class="cls-4" d="M171.07,341.75c1.69,2.63,4,4.25,6.43,4.25,5.25,0,9.5-7.16,9.5-16,0-8.61-4-15.61-9.1-16A45.19,45.19,0,0,0,171.07,341.75Z"/><path class="cls-53" d="M177.9,314c-.13,0-.26,0-.4,0-5.25,0-9.5,7.16-9.5,16a22.1,22.1,0,0,0,3.07,11.75A45.19,45.19,0,0,1,177.9,314Z"/><path class="cls-54" d="M111.29,346.78l-5.84,1.61L133,375.91l.89-.24a55,55,0,0,1-8.65-15Z"/><path class="cls-54" d="M125.2,360.69a55,55,0,0,0,8.65,15l5-1.34Z"/><ellipse class="cls-21" cx="135.83" cy="375.04" rx="3.24" ry="1.55" transform="translate(-22.93 9.12) rotate(-3.54)"/><ellipse class="cls-21" cx="108.46" cy="347.68" rx="3.24" ry="1.55" transform="translate(-21.29 7.37) rotate(-3.54)"/><path class="cls-54" d="M77.91,315.48c2.22,10.95,8.4,21.73,17.37,32.07V319.23C88.59,316.08,82.34,314.61,77.91,315.48Z"/><path class="cls-54" d="M116.79,334.51a81.22,81.22,0,0,0-15.89-12.3V353.6c1.78,1.8,3.63,3.59,5.57,5.36,6.74,3,13,4.36,17.25,3.21C132.75,359.75,129.65,347.37,116.79,334.51Z"/><path class="cls-54" d="M100.9,353.6v2.5c1.87,1.08,3.74,2,5.57,2.86C104.53,357.19,102.68,355.4,100.9,353.6Z"/><path class="cls-54" d="M77.91,315.48c-.25,0-.51.08-.74.14-9,2.42-5.93,14.8,6.92,27.66a80.8,80.8,0,0,0,11.19,9.28v-5C86.31,337.21,80.13,326.43,77.91,315.48Z"/><path class="cls-51" d="M139.86,330.22l-8,.07v44.46H133c.92-7.68,3.58-14.94,6.82-22.05Z"/><path class="cls-52" d="M139.86,352.7c-3.24,7.11-5.9,14.37-6.82,22.05h6.82Z"/><ellipse class="cls-52" cx="135.84" cy="374.63" rx="4.02" ry="2.18"/><ellipse class="cls-22" cx="135.84" cy="330.41" rx="4.02" ry="2.18"/><path class="cls-4" d="M121.55,344.11c4,6.17,9.27,10,15.11,10,12.34,0,22.34-16.84,22.34-37.62,0-20.24-9.5-36.7-21.39-37.54C124.68,299.16,120.12,321.53,121.55,344.11Z"/><path class="cls-53" d="M137.61,278.93c-.32,0-.63-.08-1-.08-12.33,0-22.33,16.84-22.33,37.62,0,10.94,2.79,20.76,7.22,27.64C120.12,321.53,124.68,299.16,137.61,278.93Z"/><path class="cls-21" d="M560.71,149.89l-2.49.69,11.7,11.7.38-.1a23.39,23.39,0,0,1-3.67-6.37Z"/><path class="cls-21" d="M566.63,155.81a23.39,23.39,0,0,0,3.67,6.37l2.13-.57Z"/><ellipse class="cls-21" cx="571.14" cy="161.91" rx="1.38" ry="0.66" transform="translate(-8.92 35.62) rotate(-3.54)"/><ellipse class="cls-21" cx="559.51" cy="150.27" rx="1.38" ry="0.66" transform="translate(-8.22 34.88) rotate(-3.54)"/><path class="cls-21" d="M558.66,155.07c2.86,1.3,5.52,1.86,7.33,1.37,3.84-1,2.53-6.3-2.94-11.77-5.33-5.32-12.62-8.86-16.54-8.09C547.81,143,552.28,149.25,558.66,155.07Z"/><path class="cls-21" d="M546.51,136.58c-.1,0-.22,0-.32.06-3.84,1-2.52,6.29,2.95,11.76a33.4,33.4,0,0,0,9.52,6.67C552.28,149.25,547.81,143,546.51,136.58Z"/><path class="cls-51" d="M572.86,142.85l-3.42,0v18.91H570a31.7,31.7,0,0,1,2.9-9.38Z"/><path class="cls-52" d="M572.86,152.41a31.7,31.7,0,0,0-2.9,9.38h2.9Z"/><ellipse class="cls-52" cx="571.15" cy="161.74" rx="1.71" ry="0.93"/><ellipse class="cls-22" cx="571.15" cy="142.93" rx="1.71" ry="0.93"/><path class="cls-4" d="M565.07,148.75c1.69,2.63,3.95,4.25,6.43,4.25,5.25,0,9.5-7.16,9.5-16,0-8.61-4-15.61-9.1-16A45.19,45.19,0,0,0,565.07,148.75Z"/><path class="cls-53" d="M571.9,121c-.13,0-.26,0-.4,0-5.25,0-9.5,7.16-9.5,16a22.1,22.1,0,0,0,3.07,11.75A45.19,45.19,0,0,1,571.9,121Z"/><path class="cls-14" d="M648.19,240.78c0,.21.42.62.42.62s-2.51,1.46-2.3,2.09,0,1.25.63,1.88a17.74,17.74,0,0,1,1.25,1.46l-.63,2.3-.41,1.46-.42,1.25s-1,.62-.83.83.2.84.83.84a1.57,1.57,0,0,0,1-.42l.63-.63.63-2.08.41-.84.63-.83.63-1.46,1.46,1s1.46,1,1.46,1.46a5,5,0,0,0,.62,1.46l1.26,1.25.62.63s-.21,1.46.84,1.25,1-.62,1-.62l-.63-1.05-.2-1-.84-1-.83-1.46-.63-1-.63-1.46s.21-2.5-.21-3.13-.62-1.88-1.46-2.09a6,6,0,0,0-1.25-.2"/><path class="cls-43" d="M649,247.25l.2,1s.42.63.42.21a.41.41,0,0,1,.42-.42l.21-.21s.42-.21,0-.41a.46.46,0,0,1-.21-.63l-.42-.21Z"/><path class="cls-43" d="M651.53,246.62l-.63.21V247l-.2.62.2.21c.21.21.21.21.42.21s.63-.42.63-.42v-.2S651.32,246.83,651.53,246.62Z"/><path class="cls-43" d="M648.43,240.17a.89.89,0,0,0-.43.83v1a1,1,0,0,0,2,0h0A2.71,2.71,0,0,0,648.43,240.17Z"/><path class="cls-52" d="M649,240a1.34,1.34,0,0,0-.57.17A2.71,2.71,0,0,1,650,242v-1Z"/><polygon class="cls-44" points="648 240 650 241 650 241 650 241 650 240 648 240 648 240 648 240"/></g><g id="wickets"><polygon class="cls-55" points="634.21 299.3 633.84 299.85 646.79 300.7 647.16 300.15 634.21 299.3"/><polygon class="cls-55" points="632.61 298.12 632.24 298.67 645.2 299.52 645.57 298.97 632.61 298.12"/><polygon class="cls-55" points="635.8 300.48 635.43 301.03 647.39 301.88 647.76 301.33 635.8 300.48"/><polygon class="cls-14" points="632 298.71 632.59 299.05 632.59 290.53 632 290.2 632 298.71"/><polygon class="cls-33" points="632.59 290.53 632.01 290.2 632.35 290 632.93 290.32 632.59 290.53"/><polygon class="cls-34" points="632.59 290.53 632.93 290.32 632.93 298.85 632.59 299.05 632.59 290.53"/><polygon class="cls-14" points="633.65 299.81 634.23 300.15 634.23 291.62 633.65 291.3 633.65 299.81"/><polygon class="cls-33" points="634.23 291.62 633.65 291.3 633.99 291.1 634.57 291.42 634.23 291.62"/><polygon class="cls-34" points="634.23 291.62 634.57 291.42 634.57 299.94 634.23 300.15 634.23 291.62"/><polygon class="cls-14" points="635.29 300.9 635.87 301.24 635.87 292.72 635.29 292.39 635.29 300.9"/><polygon class="cls-33" points="635.87 292.72 635.29 292.39 635.63 292.19 636.21 292.51 635.87 292.72"/><polygon class="cls-34" points="635.87 292.72 636.21 292.51 636.21 301.04 635.87 301.24 635.87 292.72"/><polygon class="cls-56" points="520.21 365.3 519.84 365.85 532.79 366.7 533.16 366.15 520.21 365.3"/><polygon class="cls-56" points="518.61 364.12 518.24 364.67 531.2 365.52 531.57 364.97 518.61 364.12"/><polygon class="cls-56" points="521.8 366.48 521.43 367.03 533.39 367.88 533.76 367.33 521.8 366.48"/><polygon class="cls-14" points="518 364.71 518.59 365.05 518.59 356.53 518 356.2 518 364.71"/><polygon class="cls-33" points="518.59 356.53 518.01 356.2 518.35 356 518.93 356.32 518.59 356.53"/><polygon class="cls-34" points="518.59 356.53 518.93 356.32 518.93 364.85 518.59 365.05 518.59 356.53"/><polygon class="cls-14" points="519.65 365.81 520.23 366.15 520.23 357.62 519.65 357.3 519.65 365.81"/><polygon class="cls-33" points="520.23 357.62 519.65 357.3 519.99 357.1 520.57 357.42 520.23 357.62"/><polygon class="cls-34" points="520.23 357.62 520.57 357.42 520.57 365.94 520.23 366.15 520.23 357.62"/><polygon class="cls-14" points="521.29 366.9 521.87 367.24 521.87 358.72 521.29 358.39 521.29 366.9"/><polygon class="cls-33" points="521.87 358.72 521.29 358.39 521.63 358.19 522.21 358.51 521.87 358.72"/><polygon class="cls-34" points="521.87 358.72 522.21 358.51 522.21 367.04 521.87 367.24 521.87 358.72"/></g></svg>