<svg id="Ground" xmlns="http://www.w3.org/2000/svg" xmlns:xlink="http://www.w3.org/1999/xlink" viewBox="0 0 53 52"><defs><style>.cls-1,.cls-2,.cls-3{fill:#5f308b;}.cls-1{clip-rule:evenodd;}.cls-3{fill-rule:evenodd;}.cls-4{clip-path:url(#clip-path);}.cls-5{clip-path:url(#clip-path-2);}.cls-6{clip-path:url(#clip-path-3);}.cls-7{clip-path:url(#clip-path-4);}</style><clipPath id="clip-path"><path class="cls-1" d="M155.76,8.44H121.62a1.52,1.52,0,0,0-1.55,1.49V42.59a1.51,1.51,0,0,0,1.55,1.48h18.23V30.71H135.2V25.14h4.65V20.69c0-4.6,3.05-6.87,7.34-6.87,2.06,0,3.82.15,4.34.21v4.81h-3c-2.33,0-2.88,1.06-2.88,2.61v3.68h5.82l-1.16,5.57h-4.66l.1,13.36h10a1.51,1.51,0,0,0,1.55-1.48V9.93a1.52,1.52,0,0,0-1.55-1.49"/></clipPath><clipPath id="clip-path-2"><path class="cls-1" d="M45.31,15.45a15.62,15.62,0,0,1-4.39,1.16,7.41,7.41,0,0,0,3.36-4.07,15.66,15.66,0,0,1-4.85,1.78A7.76,7.76,0,0,0,33.85,12a7.5,7.5,0,0,0-7.64,7.36,7.15,7.15,0,0,0,.2,1.68,22,22,0,0,1-15.75-7.69,7.08,7.08,0,0,0-1,3.7A7.29,7.29,0,0,0,13,23.17a7.88,7.88,0,0,1-3.46-.92v.09a7.45,7.45,0,0,0,6.13,7.22,7.8,7.8,0,0,1-2,.26,8.57,8.57,0,0,1-1.44-.13,7.63,7.63,0,0,0,7.14,5.11A15.74,15.74,0,0,1,9.89,38a15.47,15.47,0,0,1-1.82-.11,22.19,22.19,0,0,0,11.71,3.31A21.17,21.17,0,0,0,41.52,20.21c0-.32,0-.63,0-.95a15.16,15.16,0,0,0,3.81-3.81"/></clipPath><clipPath id="clip-path-3"><rect class="cls-2" x="-1561.19" y="-300.55" width="1658.32" height="6761.23"/></clipPath><clipPath id="clip-path-4"><path class="cls-1" d="M259.89,8.36h-28.4a4.33,4.33,0,0,0-4.42,4.23V39.76A4.33,4.33,0,0,0,231.49,44h28.4a4.33,4.33,0,0,0,4.42-4.23V12.59a4.33,4.33,0,0,0-4.42-4.23m-5.62,4.86h3.89c.71,0,1.3.44,1.3,1v2.92c0,.53-.59,1-1.3,1h-3.89c-.71,0-1.29-.44-1.29-1V14.19c0-.53.58-1,1.29-1m-8.58,6.48c4,0,7.29,2.9,7.29,6.48s-3.27,6.47-7.29,6.47-7.29-2.9-7.29-6.47,3.27-6.48,7.29-6.48m14.2,21.05h-28.4a1.15,1.15,0,0,1-1.18-1.11V22.94H235a6.43,6.43,0,0,0-.83,3.38c0,6,5.17,10.81,11.52,10.81s11.52-4.85,11.52-10.81a5.4,5.4,0,0,0-.91-3.38h4.73v16.7a1.15,1.15,0,0,1-1.18,1.11"/></clipPath></defs><path class="cls-3" d="M155.76,8.44H121.62a1.52,1.52,0,0,0-1.55,1.49V42.59a1.51,1.51,0,0,0,1.55,1.48h18.23V30.71H135.2V25.14h4.65V20.69c0-4.6,3.05-6.87,7.34-6.87,2.06,0,3.82.15,4.34.21v4.81h-3c-2.33,0-2.88,1.06-2.88,2.61v3.68h5.82l-1.16,5.57h-4.66l.1,13.36h10a1.51,1.51,0,0,0,1.55-1.48V9.93a1.52,1.52,0,0,0-1.55-1.49"/><g class="cls-4"><rect class="cls-2" x="-1449.19" y="-357.55" width="1658.32" height="6761.23"/></g><path class="cls-3" d="M45.31,15.45a15.62,15.62,0,0,1-4.39,1.16,7.41,7.41,0,0,0,3.36-4.07,15.66,15.66,0,0,1-4.85,1.78A7.76,7.76,0,0,0,33.85,12a7.5,7.5,0,0,0-7.64,7.36,7.15,7.15,0,0,0,.2,1.68,22,22,0,0,1-15.75-7.69,7.08,7.08,0,0,0-1,3.7A7.29,7.29,0,0,0,13,23.17a7.88,7.88,0,0,1-3.46-.92v.09a7.45,7.45,0,0,0,6.13,7.22,7.8,7.8,0,0,1-2,.26,8.57,8.57,0,0,1-1.44-.13,7.63,7.63,0,0,0,7.14,5.11A15.74,15.74,0,0,1,9.89,38a15.47,15.47,0,0,1-1.82-.11,22.19,22.19,0,0,0,11.71,3.31A21.17,21.17,0,0,0,41.52,20.21c0-.32,0-.63,0-.95a15.16,15.16,0,0,0,3.81-3.81"/><g class="cls-5"><rect class="cls-2" x="-1561.19" y="-300.55" width="1658.32" height="6761.23"/><g class="cls-6"><rect class="cls-2" x="-0.03" y="3.9" width="53.44" height="45.34"/></g></g><path class="cls-3" d="M259.89,8.36h-28.4a4.33,4.33,0,0,0-4.42,4.23V39.76A4.33,4.33,0,0,0,231.49,44h28.4a4.33,4.33,0,0,0,4.42-4.23V12.59a4.33,4.33,0,0,0-4.42-4.23m-5.62,4.86h3.89c.71,0,1.3.44,1.3,1v2.92c0,.53-.59,1-1.3,1h-3.89c-.71,0-1.29-.44-1.29-1V14.19c0-.53.58-1,1.29-1m-8.58,6.48c4,0,7.29,2.9,7.29,6.48s-3.27,6.47-7.29,6.47-7.29-2.9-7.29-6.47,3.27-6.48,7.29-6.48m14.2,21.05h-28.4a1.15,1.15,0,0,1-1.18-1.11V22.94H235a6.43,6.43,0,0,0-.83,3.38c0,6,5.17,10.81,11.52,10.81s11.52-4.85,11.52-10.81a5.4,5.4,0,0,0-.91-3.38h4.73v16.7a1.15,1.15,0,0,1-1.18,1.11"/><g class="cls-7"><rect class="cls-2" x="-1342.19" y="-417.55" width="1658.32" height="6761.23"/></g></svg>