<svg xmlns="http://www.w3.org/2000/svg" viewBox="0 0 22 23">
  <defs>
    <style>
      .cls-1 {
        fill: #fff;
      }
    </style>
  </defs>
  <title>upload</title>
  <g id="isometric">
    <g id="UhTOwJ.tif">
      <g>
        <path class="cls-1" d="M3.05,21.59a3.48,3.48,0,0,1-.48-.21,1.18,1.18,0,0,1-.58-1V9a1.19,1.19,0,0,1,.73-1.17,1.4,1.4,0,0,1,.58-.12H6.65A1,1,0,0,1,7.59,9a.93.93,0,0,1-.77.59H3.89V19.69H17.1V9.61H14.35a1,1,0,0,1-1-.71.93.93,0,0,1,.82-1.17,3.09,3.09,0,0,1,.43,0h3.05a1.24,1.24,0,0,1,1.26.83A1.62,1.62,0,0,1,19,9V20.27a1.26,1.26,0,0,1-1,1.3l0,0Z"/>
        <path class="cls-1" d="M10.65,1.41a1.46,1.46,0,0,1,.7.47L14.27,4.8a.92.92,0,0,1,.28,1A.94.94,0,0,1,13,6.18c-.47-.46-.94-.93-1.4-1.4l-.14-.13v10.2a1,1,0,0,1-.2.68A.94.94,0,0,1,9.55,15V4.68l-.06,0s0,.1-.08.13L8,6.16A.91.91,0,0,1,7,6.4a.89.89,0,0,1-.63-.79.92.92,0,0,1,.31-.8l2-2,.9-.9a1.37,1.37,0,0,1,.69-.46Z"/>
      </g>
    </g>
  </g>
</svg>
