<svg xmlns="http://www.w3.org/2000/svg" viewBox="0 0 450 328">
  <defs>
    <style>
      .cls-1 {
        fill: #5ac7f2;
      }

      .cls-2 {
        fill: #fff;
      }

      .cls-3 {
        fill: #f77781;
      }
    </style>
  </defs>
  <title>webInfo</title>
  <g id="isometric">
    <rect class="cls-1" width="164" height="164"/>
    <rect class="cls-2" x="164" width="164" height="164"/>
    <rect class="cls-1" x="328" width="122" height="164"/>
    <rect class="cls-2" y="164" width="164" height="164"/>
    <rect class="cls-3" x="164" y="164" width="164" height="164"/>
    <rect class="cls-2" x="328" y="164" width="122" height="164"/>
    <circle class="cls-3" cx="246" cy="44" r="44"/>
    <circle class="cls-3" cx="246" cy="111" r="14"/>
    <g>
      <path class="cls-2" d="M214.94,222.41h4.55l2.1,23.09h.09l2.23-23.09h5.15l2.23,23.09h.09l2.1-23.09h4.08l-3.05,30h-5.88l-2.14-20.25h-.09l-2.15,20.25H218Z"/>
      <path class="cls-2" d="M240,222.41h12.87v4.3h-8.15v7.93h6.48v4.29h-6.48v9.23h8.15v4.29H240Z"/>
      <path class="cls-2" d="M255.54,222.41h7.12c4.89,0,7,2.28,7,6.91v1.2c0,3.09-1,5-3.05,5.88v.09c2.53.86,3.52,3.09,3.52,6.26v2.58c0,4.63-2.45,7.12-7.17,7.12h-7.42Zm6.56,12.23c1.76,0,2.84-.77,2.84-3.17v-1.68c0-2.14-.73-3.08-2.41-3.08h-2.27v7.93Zm.86,13.52c1.59,0,2.45-.73,2.45-3v-2.62c0-2.79-.9-3.65-3.05-3.65h-2.1v9.23Z"/>
    </g>
    <g>
      <path class="cls-2" d="M59,97.45V93.16a6.22,6.22,0,0,0,1.54.17c1.89,0,2.79-.9,2.79-2.87v-23H68V90.33c0,4.93-2.23,7.29-6.87,7.29A11.15,11.15,0,0,1,59,97.45Z"/>
      <path class="cls-2" d="M70.62,90.33V88.61h4.46v2.06c0,2.15.94,2.92,2.44,2.92s2.45-.77,2.45-3c0-2.48-.94-4.07-4-6.78-4-3.47-5.24-5.92-5.24-9.35,0-4.72,2.45-7.47,7-7.47s6.86,2.75,6.86,7.56v1.24H80.14V74.24c0-2.15-.86-3-2.36-3s-2.36.81-2.36,2.87,1,3.78,4.08,6.48c4,3.47,5.19,5.88,5.19,9.61,0,4.89-2.49,7.64-7.12,7.64S70.62,95.13,70.62,90.33Z"/>
    </g>
    <g>
      <path class="cls-2" d="M376.06,67.41H383c4.72,0,7,2.62,7,7.43v3c0,4.8-2.32,7.42-7,7.42h-2.23V97.45h-4.72ZM383,80.93c1.5,0,2.32-.69,2.32-2.83V74.54c0-2.15-.82-2.83-2.32-2.83h-2.23v9.22Z"/>
      <path class="cls-2" d="M391.51,67.41h4.55l2.1,23.09h.08l2.24-23.09h5.14l2.24,23.09h.08L410,67.41h4.08l-3.05,30H405.2L403.05,77.2H403l-2.14,20.25h-6.27Z"/>
      <path class="cls-2" d="M419.57,67.41H426l4.89,30h-4.72l-.86-6v.08h-5.36l-.86,5.88h-4.38Zm5.15,20.08-2.1-14.84h-.09l-2.06,14.84Z"/>
    </g>
  </g>
</svg>
